<svg width="212" height="174" viewBox="0 0 212 174" fill="none" xmlns="http://www.w3.org/2000/svg">
<path d="M41.0333 144.358C41.1881 144.358 41.2658 144.475 41.2658 144.709C41.2658 144.942 41.1881 145.059 41.0333 145.059C40.2969 145.059 39.1539 145.02 37.6039 144.942C36.054 144.864 34.9302 144.825 34.2328 144.825C33.3802 144.825 32.2953 144.864 30.9778 144.942C29.7378 145.02 28.7885 145.059 28.1298 145.059C27.9749 145.059 27.8972 144.942 27.8972 144.709C27.8972 144.475 27.9749 144.358 28.1298 144.358C29.5635 144.358 30.6098 144.222 31.2686 143.949C31.9273 143.677 32.2567 143.209 32.2567 142.547C32.2567 142.002 32.0047 141.165 31.5009 140.036L19.0044 113.402L8.83281 137.641C8.29034 138.965 8.01908 140.036 8.01908 140.853C8.01908 142.061 8.48407 142.956 9.41404 143.54C10.3828 144.085 11.8165 144.358 13.7152 144.358C13.9089 144.358 14.0058 144.475 14.0058 144.709C14.0058 144.942 13.9089 145.059 13.7152 145.059C13.0177 145.059 12.0102 145.02 10.6928 144.942C9.2203 144.864 7.94158 144.825 6.85661 144.825C5.84915 144.825 4.68669 144.864 3.36922 144.942C2.20674 145.02 1.23802 145.059 0.463041 145.059C0.269296 145.059 0.172424 144.942 0.172424 144.709C0.172424 144.475 0.269296 144.358 0.463041 144.358C1.54801 144.358 2.4586 144.163 3.19483 143.774C3.96982 143.346 4.68668 142.625 5.34542 141.613C6.04289 140.562 6.79848 139.062 7.61221 137.115L19.8763 108.028C19.9538 107.912 20.0894 107.853 20.2831 107.853C20.4769 107.853 20.5931 107.912 20.6319 108.028L34.3491 137.057C35.6666 139.939 36.7901 141.885 37.7202 142.898C38.65 143.871 39.7544 144.358 41.0333 144.358ZM84.9249 144.358C85.0412 144.358 85.0994 144.475 85.0994 144.709C85.0994 144.942 85.0412 145.059 84.9249 145.059C83.7237 145.059 82.755 145.04 82.0189 145.001L78.0082 144.942L73.7653 145.001C73.0677 145.04 72.1573 145.059 71.0335 145.059C70.9173 145.059 70.859 144.942 70.859 144.709C70.859 144.475 70.9173 144.358 71.0335 144.358C72.5447 144.358 73.649 144.261 74.3466 144.066C75.0439 143.871 75.509 143.501 75.7415 142.956C75.974 142.411 76.0903 141.535 76.0903 140.328V113.402L51.0971 145.585C50.9809 145.74 50.7483 145.818 50.3998 145.818C49.8185 145.818 49.5279 145.682 49.5279 145.409V113.285C49.5279 112.117 49.3923 111.26 49.1209 110.715C48.8884 110.17 48.4042 109.8 47.6678 109.605C46.9704 109.372 45.8855 109.255 44.4129 109.255C44.3355 109.255 44.2967 109.138 44.2967 108.905C44.2967 108.671 44.3355 108.554 44.4129 108.554L47.4355 108.612C49.0629 108.69 50.3804 108.729 51.3879 108.729C52.5114 108.729 53.9259 108.69 55.6308 108.612L58.3626 108.554C58.4788 108.554 58.5371 108.671 58.5371 108.905C58.5371 109.138 58.4788 109.255 58.3626 109.255C56.8514 109.255 55.7471 109.372 55.0495 109.605C54.3522 109.8 53.8871 110.17 53.6546 110.715C53.4221 111.26 53.3058 112.117 53.3058 113.285V140.561L78.357 108.262C78.4733 108.145 78.6864 108.087 78.9963 108.087C79.5776 108.087 79.8682 108.223 79.8682 108.496V140.328C79.8682 141.496 79.9844 142.372 80.2169 142.956C80.4883 143.501 80.9725 143.871 81.6701 144.066C82.3676 144.261 83.4526 144.358 84.9249 144.358ZM128.84 144.358C128.995 144.358 129.073 144.475 129.073 144.709C129.073 144.942 128.995 145.059 128.84 145.059C128.104 145.059 126.961 145.02 125.411 144.942C123.861 144.864 122.738 144.825 122.04 144.825C121.188 144.825 120.103 144.864 118.785 144.942C117.545 145.02 116.596 145.059 115.937 145.059C115.782 145.059 115.705 144.942 115.705 144.709C115.705 144.475 115.782 144.358 115.937 144.358C117.371 144.358 118.417 144.222 119.076 143.949C119.734 143.677 120.064 143.209 120.064 142.547C120.064 142.002 119.812 141.165 119.308 140.036L106.812 113.402L96.64 137.641C96.0975 138.965 95.8264 140.036 95.8264 140.853C95.8264 142.061 96.2912 142.956 97.2213 143.54C98.19 144.085 99.6237 144.358 101.522 144.358C101.716 144.358 101.813 144.475 101.813 144.709C101.813 144.942 101.716 145.059 101.522 145.059C100.825 145.059 99.8174 145.02 98.4999 144.942C97.0276 144.864 95.7487 144.825 94.6638 144.825C93.6563 144.825 92.4939 144.864 91.1765 144.942C90.0141 145.02 89.0452 145.059 88.2702 145.059C88.0765 145.059 87.9796 144.942 87.9796 144.709C87.9796 144.475 88.0765 144.358 88.2702 144.358C89.3553 144.358 90.2658 144.163 91.0022 143.774C91.7769 143.346 92.4939 142.625 93.1526 141.613C93.8502 140.562 94.6058 139.062 95.4194 137.115L107.684 108.028C107.761 107.912 107.897 107.853 108.09 107.853C108.284 107.853 108.4 107.912 108.439 108.028L122.156 137.057C123.474 139.939 124.597 141.885 125.527 142.898C126.457 143.871 127.562 144.358 128.84 144.358ZM172.732 144.358C172.848 144.358 172.907 144.475 172.907 144.709C172.907 144.942 172.848 145.059 172.732 145.059C171.531 145.059 170.562 145.04 169.826 145.001L165.816 144.942L161.572 145.001C160.875 145.04 159.964 145.059 158.841 145.059C158.724 145.059 158.666 144.942 158.666 144.709C158.666 144.475 158.724 144.358 158.841 144.358C160.352 144.358 161.456 144.261 162.154 144.066C162.851 143.871 163.316 143.501 163.549 142.956C163.781 142.411 163.897 141.535 163.897 140.328V113.402L138.904 145.585C138.788 145.74 138.556 145.818 138.207 145.818C137.626 145.818 137.335 145.682 137.335 145.409V113.285C137.335 112.117 137.199 111.26 136.928 110.715C136.696 110.17 136.211 109.8 135.475 109.605C134.778 109.372 133.693 109.255 132.22 109.255C132.143 109.255 132.104 109.138 132.104 108.905C132.104 108.671 132.143 108.554 132.22 108.554L135.243 108.612C136.87 108.69 138.187 108.729 139.195 108.729C140.319 108.729 141.733 108.69 143.438 108.612L146.17 108.554C146.286 108.554 146.344 108.671 146.344 108.905C146.344 109.138 146.286 109.255 146.17 109.255C144.659 109.255 143.554 109.372 142.857 109.605C142.159 109.8 141.694 110.17 141.462 110.715C141.229 111.26 141.113 112.117 141.113 113.285V140.561L166.164 108.262C166.281 108.145 166.494 108.087 166.804 108.087C167.385 108.087 167.675 108.223 167.675 108.496V140.328C167.675 141.496 167.792 142.372 168.024 142.956C168.295 143.501 168.78 143.871 169.477 144.066C170.175 144.261 171.26 144.358 172.732 144.358ZM208.452 144.358C208.53 144.358 208.568 144.475 208.568 144.709C208.568 144.942 208.53 145.059 208.452 145.059C207.212 145.059 206.243 145.04 205.546 145.001L201.536 144.942L197.467 145.001C196.77 145.04 195.82 145.059 194.619 145.059C194.541 145.059 194.503 144.942 194.503 144.709C194.503 144.475 194.541 144.358 194.619 144.358C196.091 144.358 197.176 144.261 197.874 144.066C198.571 143.871 199.036 143.501 199.269 142.956C199.501 142.372 199.618 141.496 199.618 140.328V126.135C198.339 126.213 197.234 126.505 196.304 127.011C195.374 127.478 194.386 128.354 193.34 129.639C192.294 130.885 191.054 132.754 189.62 135.246C187.722 138.517 186.268 140.853 185.261 142.255C184.292 143.657 183.595 144.475 183.168 144.709C182.781 144.942 182.258 145.059 181.599 145.059H175.612C175.496 145.059 175.438 144.942 175.438 144.709C175.438 144.475 175.496 144.358 175.612 144.358C177.628 144.319 179.371 143.54 180.844 142.022C182.316 140.464 184.099 137.816 186.191 134.078C187.663 131.508 189.02 129.639 190.26 128.471C191.5 127.303 192.933 126.524 194.561 126.135C191.189 125.823 188.613 124.908 186.83 123.39C185.087 121.832 184.215 119.827 184.215 117.374C184.215 115.621 184.66 114.064 185.552 112.701C186.482 111.338 187.741 110.287 189.33 109.547C190.957 108.768 192.778 108.379 194.793 108.379C195.684 108.379 196.711 108.437 197.874 108.554C198.339 108.593 198.881 108.632 199.501 108.671C200.121 108.71 200.799 108.729 201.536 108.729C202.543 108.729 203.86 108.69 205.488 108.612L208.452 108.554C208.53 108.554 208.568 108.671 208.568 108.905C208.568 109.138 208.53 109.255 208.452 109.255C206.941 109.255 205.837 109.372 205.139 109.605C204.442 109.8 203.977 110.17 203.744 110.715C203.512 111.26 203.395 112.117 203.395 113.285V140.328C203.395 141.496 203.512 142.372 203.744 142.956C204.016 143.501 204.48 143.871 205.139 144.066C205.837 144.261 206.941 144.358 208.452 144.358ZM188.167 115.913C188.167 118.756 188.962 121.034 190.55 122.747C192.139 124.46 194.445 125.317 197.467 125.317C197.971 125.317 198.687 125.278 199.618 125.2V113.402C199.618 111.844 199.153 110.754 198.222 110.131C197.293 109.469 196.13 109.138 194.735 109.138C190.356 109.138 188.167 111.397 188.167 115.913Z" fill="#FBF6ED"/>
<path d="M33.3691 171.432C32.3601 171.432 31.556 171.086 30.9568 170.395C30.3576 169.705 30.058 168.836 30.058 167.791C30.058 166.745 30.3576 165.877 30.9568 165.186C31.559 164.495 32.3632 164.15 33.3691 164.15C34.3751 164.15 35.1792 164.495 35.7815 165.186C36.3839 165.874 36.6851 166.742 36.6851 167.791C36.6851 168.836 36.3839 169.705 35.7815 170.395C35.1792 171.086 34.3751 171.432 33.3691 171.432ZM33.3691 170.652C34.1196 170.652 34.7062 170.381 35.1287 169.839C35.5514 169.297 35.7627 168.615 35.7627 167.791C35.7627 166.96 35.5498 166.276 35.1241 165.737C34.7016 165.199 34.1165 164.929 33.3691 164.929C32.6186 164.929 32.032 165.202 31.6096 165.747C31.1871 166.292 30.9758 166.973 30.9758 167.791C30.9758 168.602 31.1853 169.282 31.6049 169.83C32.0274 170.378 32.6155 170.652 33.3691 170.652ZM45.4793 171.265V165.096H43.1711V164.316H48.7052V165.096H46.397V171.265H45.4793ZM55.5745 171.265V164.316H60.3471V165.096H56.4922V167.301H60.087V168.081H56.4922V170.486H60.3802V171.265H55.5745ZM72.6655 171.265H71.7432V165.115H69.2362L69.08 169.326C69.0549 170.02 68.8877 170.544 68.5786 170.899C68.2697 171.254 67.8817 171.432 67.4151 171.432C67.2069 171.432 67.0035 171.389 66.8049 171.303V170.514C66.9847 170.581 67.1486 170.614 67.2969 170.614C67.6154 170.614 67.8376 170.503 67.9638 170.281C68.093 170.057 68.1687 169.673 68.1908 169.131L68.3328 164.316H72.6655V171.265ZM80.3153 171.265V164.316H81.2328V167.168H83.2999C84.0032 167.168 84.5392 167.344 84.9081 167.696C85.2803 168.044 85.4662 168.553 85.4662 169.221C85.4662 169.865 85.2787 170.367 84.9035 170.728C84.5313 171.086 83.9921 171.265 83.2858 171.265H80.3153ZM81.2328 170.486H83.0349C84.044 170.486 84.5487 170.064 84.5487 169.221C84.5487 168.372 84.044 167.948 83.0349 167.948H81.2328V170.486ZM91.9428 171.997H96.7864V172.482H91.9428V171.997ZM107.18 168.394L106.021 165.143L104.838 168.394H107.18ZM108.225 171.265L107.459 169.174H104.559L103.769 171.265H102.823L105.524 164.316H106.541L109.242 171.265H108.225ZM116.031 171.265V164.316H120.766V165.096H116.949V167.168H119.205C119.911 167.168 120.449 167.344 120.818 167.696C121.19 168.044 121.376 168.553 121.376 169.221C121.376 169.865 121.188 170.367 120.813 170.728C120.441 171.086 119.902 171.265 119.195 171.265H116.031ZM116.949 170.486H118.945C119.954 170.486 120.458 170.064 120.458 169.221C120.458 168.372 119.954 167.948 118.945 167.948H116.949V170.486ZM130.288 167.691L128.013 164.316H129.115L130.842 167.03L132.644 164.316H133.671L131.381 167.691L133.812 171.265H132.691L130.832 168.394L128.912 171.265H127.876L130.288 167.691ZM144.201 168.394L143.042 165.143L141.859 168.394H144.201ZM145.246 171.265L144.48 169.174H141.58L140.79 171.265H139.844L142.545 164.316H143.562L146.263 171.265H145.246ZM152.693 168.979H153.572C153.578 169.502 153.749 169.917 154.083 170.224C154.421 170.529 154.906 170.681 155.54 170.681C156.073 170.681 156.5 170.551 156.822 170.291C157.143 170.028 157.304 169.687 157.304 169.269C157.304 168.86 157.172 168.55 156.907 168.337C156.642 168.122 156.193 168.014 155.559 168.014H154.939V167.273H155.289C155.942 167.292 156.401 167.2 156.666 166.997C156.931 166.794 157.063 166.501 157.063 166.118C157.063 165.715 156.939 165.414 156.689 165.214C156.444 165.012 156.073 164.91 155.578 164.91C155.042 164.91 154.629 165.029 154.338 165.267C154.051 165.504 153.888 165.859 153.847 166.332H152.962C152.987 165.631 153.236 165.093 153.71 164.715C154.183 164.338 154.815 164.15 155.606 164.15C156.35 164.15 156.931 164.326 157.347 164.677C157.763 165.026 157.971 165.492 157.971 166.075C157.971 166.398 157.867 166.696 157.659 166.968C157.451 167.238 157.173 167.441 156.826 167.577C157.287 167.666 157.632 167.873 157.862 168.199C158.096 168.523 158.213 168.886 158.213 169.288C158.213 169.903 157.963 170.415 157.465 170.823C156.97 171.229 156.316 171.432 155.502 171.432C154.61 171.432 153.918 171.216 153.426 170.785C152.937 170.354 152.693 169.752 152.693 168.979ZM165.493 164.316H166.411V170.125H166.43L169.812 164.316H170.976V171.265H170.053V165.433H170.034L166.643 171.265H165.493V164.316ZM178.904 171.265H177.783L180.096 168.256C179.522 168.18 179.092 167.981 178.805 167.658C178.518 167.331 178.374 166.883 178.374 166.312C178.374 165.669 178.567 165.176 178.952 164.834C179.339 164.489 179.872 164.316 180.55 164.316H183.526V171.265H182.608V168.295H181.184L178.904 171.265ZM182.608 165.096H180.669C180.205 165.096 179.86 165.205 179.633 165.424C179.406 165.639 179.292 165.935 179.292 166.312C179.292 166.715 179.414 167.017 179.656 167.22C179.902 167.42 180.271 167.52 180.763 167.52H182.608V165.096Z" fill="#FBF6ED"/>
<path fill-rule="evenodd" clip-rule="evenodd" d="M110.768 31.887C112.288 28.3425 112.83 23.3085 111.194 17.8021C110.875 16.7267 110.579 15.7219 110.302 14.783L110.301 14.781L110.301 14.7786C108.947 10.185 108.058 7.16734 107.158 5.16397C106.631 3.99247 106.246 3.5225 106.034 3.33901C105.935 3.25364 105.851 3.18631 105.499 3.18631C105.337 3.18631 105.293 3.19325 105.135 3.35072C104.856 3.62889 104.441 4.24043 103.898 5.52683C103.193 7.19716 102.523 9.34141 101.643 12.1578L101.643 12.1583C101.124 13.8208 100.531 15.7175 99.8149 17.8892C98.2186 22.7299 98.7041 27.7457 100.255 31.4964C101.029 33.3694 102.022 34.8113 103.024 35.7424C103.496 36.1811 103.936 36.4775 104.332 36.6683V30.7099C103.387 30.2138 102.734 29.1514 102.734 27.9211C102.734 26.2159 103.988 24.8337 105.536 24.8337C107.084 24.8337 108.339 26.2159 108.339 27.9211C108.339 29.1395 107.698 30.1929 106.768 30.6952V36.6637C108.056 36.0875 109.589 34.6366 110.768 31.887ZM95.5248 39.4423C98.4059 39.1029 100.394 39.6711 101.549 40.4694L96.1089 43.6257C95.2488 43.0454 94.1005 42.9684 93.1429 43.524C91.8022 44.3016 91.3429 46.0241 92.1171 47.3713C92.8909 48.7183 94.6051 49.1798 95.9455 48.4022C96.9128 47.8411 97.4211 46.7881 97.3386 45.7391L102.853 42.5399C102.902 43.0017 102.874 43.569 102.719 44.2542C102.418 45.5919 101.672 47.1765 100.445 48.787C97.9876 52.0119 93.9077 54.9423 88.9379 55.9736C86.708 56.4363 84.777 56.869 83.0845 57.2481L83.0843 57.2483C80.2173 57.8907 78.0344 58.3798 76.2424 58.6015C74.8623 58.7722 74.1277 58.717 73.7485 58.6132C73.5338 58.5545 73.5058 58.5194 73.4246 58.3782C73.2486 58.0716 73.2649 57.9655 73.289 57.8367C73.3408 57.56 73.5532 56.99 74.2998 55.9459C75.576 54.1607 77.7322 51.878 81.0141 48.4033C81.6859 47.6921 82.4049 46.9311 83.173 46.1141C87.1005 41.9371 91.71 39.8919 95.5248 39.4423ZM110.71 48.6066C108.833 46.076 108.397 43.9243 108.622 42.5149L114.028 45.6513C113.958 46.6899 114.466 47.7278 115.423 48.2833C116.764 49.061 118.478 48.5995 119.252 47.2525C120.026 45.9053 119.566 44.1828 118.226 43.4051C117.259 42.8441 116.097 42.9281 115.234 43.5244L110.003 40.4889C110.336 40.2869 110.749 40.0985 111.259 39.9395C112.563 39.533 114.301 39.3902 116.303 39.6527C120.311 40.1785 124.876 42.2639 128.25 46.0734C129.763 47.7823 131.102 49.2463 132.274 50.5297L132.275 50.5299L132.275 50.5301C134.262 52.704 135.775 54.3591 136.862 55.8078C137.699 56.9233 138.019 57.5904 138.119 57.9721C138.176 58.1885 138.16 58.2304 138.079 58.3716C137.903 58.6782 137.803 58.717 137.68 58.7604C137.416 58.8535 136.818 58.9537 135.545 58.826C133.368 58.6081 130.323 57.873 125.688 56.7542C124.739 56.5252 123.723 56.28 122.635 56.0199C117.072 54.6905 113.004 51.7017 110.71 48.6066ZM99.6133 36.5023C96.2629 32.1398 94.4692 24.3717 96.9241 16.9266C97.5835 14.9271 98.1533 13.1056 98.6673 11.4623L98.6675 11.4616V11.4612C101.029 3.913 102.213 0.126175 105.499 0.126175C109.164 0.126175 110.269 3.87946 113.241 13.9788L113.242 13.9812C113.515 14.9088 113.804 15.89 114.112 16.9266C116.548 25.1247 114.748 32.6366 111.397 36.7479C116.866 35.602 125.038 37.8437 130.525 44.0389C131.918 45.6125 133.203 47.0191 134.362 48.288L134.363 48.2889C139.688 54.1179 142.359 57.0419 140.716 59.9016C138.884 63.0908 135.096 62.1757 124.906 59.7132C123.97 59.4869 122.979 59.2475 121.931 58.997C112.637 56.7763 106.755 50.347 105.69 44.9264C104.438 50.4944 98.1681 57.1831 89.5536 58.9706C87.5004 59.3964 85.6456 59.8114 83.9723 60.1859H83.9718C76.2861 61.9052 72.4304 62.7678 70.7873 59.9081C68.9549 56.7189 71.6373 53.8809 78.8544 46.2441L78.8549 46.2436C79.5182 45.5418 80.2197 44.7993 80.9597 44.0123C86.8874 37.7083 94.3836 35.5453 99.6133 36.5023ZM92.9907 23.3736C93.3893 23.5499 93.7853 23.7325 94.1773 23.9216C94.2852 25.1321 94.4711 26.3116 94.7253 27.4464C93.8027 26.9352 92.8342 26.4542 91.8353 26.0126C87.6796 24.175 83.6177 22.7656 80.4227 22.273C78.818 22.0254 77.6276 22.0417 76.8284 22.2229C76.0845 22.3916 75.8941 22.6416 75.8164 22.7766C75.7544 22.8846 75.6406 23.1121 75.8687 23.7718C76.1229 24.5065 76.7236 25.4978 77.782 26.7342C79.8908 29.1973 83.2081 31.9453 86.8743 34.7344C87.8022 35.44 88.7513 36.096 89.7032 36.6903C88.5962 37.0089 87.4728 37.4159 86.3473 37.9156C85.941 37.6289 85.539 37.3345 85.1428 37.033C77.7992 31.4472 70.9949 25.4025 73.3317 21.335C75.6686 17.2676 84.5114 19.6244 92.9907 23.3736ZM97.7816 59.2209C97.7172 58.6294 97.6657 58.0362 97.6282 57.444C98.6391 56.6653 99.5727 55.832 100.421 54.9632C100.417 56.2443 100.488 57.5697 100.634 58.9063C101.122 63.3757 101.927 67.5505 103.083 70.529C103.663 72.025 104.263 73.033 104.807 73.6242C105.312 74.1733 105.61 74.2077 105.752 74.2077C105.863 74.2077 106.104 74.1993 106.547 73.685C107.042 73.1103 107.587 72.1121 108.115 70.5969C109.168 67.5786 109.869 63.3826 110.432 58.8626C110.591 57.5819 110.684 56.3095 110.71 55.0756C111.541 55.8967 112.459 56.6874 113.462 57.433C113.414 58.0293 113.353 58.6263 113.279 59.2209C112.151 68.2741 110.367 77.0909 105.752 77.0909C101.137 77.0909 98.7774 68.3432 97.7816 59.2209ZM126.202 37.102C125.781 37.4123 125.353 37.7147 124.921 38.0075C123.76 37.5167 122.591 37.1179 121.433 36.8087C122.466 36.2006 123.498 35.5191 124.505 34.7767C128.167 32.079 131.412 29.2488 133.434 26.7147C134.45 25.442 135.031 24.3978 135.275 23.6117C135.501 22.8799 135.381 22.5893 135.303 22.4543C135.241 22.3464 135.102 22.1335 134.42 22.0022C133.659 21.856 132.505 21.883 130.91 22.1861C127.733 22.7897 123.706 24.3025 119.469 26.0986C118.395 26.5542 117.353 27.0532 116.363 27.5857C116.594 26.4772 116.76 25.3174 116.851 24.1152C117.347 23.8811 117.848 23.6565 118.354 23.4424C126.84 19.8445 135.451 16.9452 137.788 21.0126C140.125 25.08 133.673 31.5971 126.202 37.102Z" fill="#FBF6ED"/>
</svg>
