<svg width="322" height="448" viewBox="0 0 322 448" fill="none" xmlns="http://www.w3.org/2000/svg">
<path fill-rule="evenodd" clip-rule="evenodd" d="M239.475 184.992C248.336 164.429 251.497 135.223 241.959 103.278C240.094 97.0314 238.366 91.1956 236.752 85.7421L236.75 85.7379C228.86 59.0882 223.677 41.5811 218.427 29.9587C215.357 23.1623 213.112 20.4358 211.874 19.3713C211.297 18.8761 210.811 18.4854 208.758 18.4854C207.812 18.4854 207.554 18.5257 206.633 19.4392C205.007 21.053 202.587 24.6008 199.422 32.0637C195.313 41.7543 191.407 54.1944 186.277 70.5337L186.276 70.5397C183.248 80.1836 179.794 91.1863 175.619 103.784C166.314 131.866 169.145 160.965 178.185 182.725C182.7 193.591 188.485 201.956 194.328 207.358C197.082 209.904 199.643 211.622 201.955 212.73V178.163C196.444 175.284 192.636 169.121 192.636 161.983C192.636 152.091 199.951 144.071 208.975 144.071C217.999 144.071 225.314 152.091 225.314 161.983C225.314 169.051 221.581 175.163 216.157 178.077V212.703C223.662 209.361 232.601 200.943 239.475 184.992ZM150.609 228.824C167.405 226.855 178.995 230.151 185.729 234.782L154.014 253.093C149.001 249.725 142.306 249.279 136.723 252.503C128.908 257.015 126.23 267.008 130.742 274.823C135.254 282.638 145.247 285.315 153.062 280.803C158.701 277.547 161.665 271.439 161.184 265.353L193.331 246.793C193.619 249.473 193.452 252.764 192.552 256.738C190.795 264.5 186.444 273.692 179.291 283.035C164.967 301.745 141.182 318.746 112.208 324.728C99.2092 327.413 87.9516 329.923 78.0844 332.123C61.369 335.85 48.6432 338.688 38.1961 339.974C30.1504 340.965 25.8681 340.644 23.6573 340.042C22.4058 339.701 22.242 339.498 21.7688 338.678C20.7423 336.901 20.8377 336.284 20.9784 335.538C21.2808 333.932 22.5195 330.625 26.8705 324.568C34.3111 314.211 46.881 300.968 66.015 280.81C69.931 276.684 74.1222 272.269 78.601 267.529C101.497 243.297 128.37 231.431 150.609 228.824ZM239.134 281.989C228.196 267.308 225.654 254.825 226.965 246.649L258.48 264.844C258.07 270.869 261.031 276.891 266.614 280.114C274.429 284.626 284.422 281.948 288.934 274.133C293.446 266.318 290.769 256.325 282.954 251.813C277.315 248.558 270.543 249.045 265.513 252.505L235.012 234.895C236.955 233.723 239.367 232.63 242.338 231.708C249.938 229.349 260.074 228.52 271.742 230.044C295.107 233.094 321.723 245.192 341.391 267.292C350.215 277.208 358.018 285.702 364.857 293.147C376.443 305.759 385.262 315.362 391.6 323.766C396.482 330.239 398.343 334.108 398.929 336.324C399.259 337.578 399.163 337.821 398.691 338.641C397.665 340.419 397.082 340.644 396.365 340.896C394.824 341.436 391.341 342.017 383.92 341.277C371.23 340.012 353.478 335.748 326.453 329.256C320.922 327.928 315.002 326.506 308.658 324.997C276.224 317.285 252.512 299.945 239.134 281.989ZM174.444 211.766C154.912 186.458 144.455 141.392 158.767 98.1992C162.612 86.5964 165.934 76.0269 168.931 66.492C182.696 22.7013 189.601 0.732178 208.758 0.732178C230.122 0.732178 236.564 22.5067 253.895 81.0976C255.488 86.4832 257.173 92.1798 258.971 98.1992C273.171 145.761 262.675 189.339 243.139 213.191C275.022 206.544 322.668 219.549 354.653 255.49C362.78 264.621 370.271 272.783 377.028 280.146C408.072 313.962 423.645 330.927 414.065 347.517C403.385 366.018 381.307 360.71 321.9 346.424L321.861 346.415C316.411 345.105 310.648 343.719 304.551 342.269C250.372 329.385 216.079 292.087 209.872 260.639C202.571 292.941 166.019 331.745 115.799 342.115C103.828 344.587 93.013 346.994 83.2569 349.166C38.451 359.14 15.9724 364.147 6.39402 347.555C-4.28815 329.053 11.3486 312.588 53.4241 268.282L53.4269 268.279C57.2936 264.208 61.3836 259.901 65.6969 255.336C100.254 218.763 143.956 206.214 174.444 211.766ZM135.836 135.601C138.16 136.623 140.468 137.684 142.754 138.781C143.383 145.803 144.467 152.645 145.949 159.23C140.57 156.264 134.924 153.473 129.1 150.911C104.873 140.251 81.1929 132.074 62.5663 129.215C53.2118 127.78 46.2713 127.874 41.6118 128.925C37.2754 129.904 36.1655 131.354 35.7131 132.138C35.3517 132.764 34.6877 134.083 36.0181 137.911C37.4995 142.174 41.0011 147.924 47.1725 155.098C59.4666 169.387 78.8048 185.33 100.179 201.51C105.588 205.604 111.121 209.409 116.67 212.858C110.216 214.705 103.668 217.067 97.1066 219.966C94.7369 218.303 92.3938 216.595 90.0841 214.846C47.2726 182.44 7.60401 147.371 21.2277 123.774C34.8513 100.178 86.4028 113.85 135.836 135.601ZM163.767 343.567C163.39 340.136 163.091 336.695 162.872 333.26C168.765 328.741 174.208 323.907 179.153 318.867C179.13 326.299 179.543 333.988 180.393 341.743C183.238 367.673 187.933 391.891 194.672 409.172C198.056 417.85 201.549 423.698 204.72 427.128C207.666 430.313 209.404 430.512 210.232 430.512C210.879 430.512 212.282 430.466 214.866 427.48C217.751 424.145 220.928 418.354 224.009 409.567C230.149 392.055 234.231 367.712 237.514 341.489C238.444 334.059 238.987 326.677 239.136 319.518C243.981 324.282 249.336 328.87 255.178 333.195C254.899 336.655 254.543 340.117 254.111 343.567C247.536 396.088 237.134 447.239 210.232 447.239C183.33 447.239 169.572 396.49 163.767 343.567ZM329.452 215.245C326.995 217.046 324.502 218.8 321.982 220.499C315.218 217.652 308.404 215.338 301.651 213.545C307.674 210.017 313.688 206.063 319.561 201.756C340.906 186.105 359.829 169.686 371.617 154.984C377.536 147.6 380.927 141.543 382.344 136.982C383.664 132.737 382.965 131.05 382.511 130.268C382.152 129.641 381.339 128.407 377.359 127.645C372.927 126.797 366.195 126.953 356.9 128.711C338.376 132.214 314.901 140.99 290.201 151.411C283.938 154.053 277.864 156.948 272.092 160.037C273.441 153.606 274.406 146.877 274.936 139.904C277.828 138.546 280.753 137.243 283.699 136C333.17 115.127 383.373 98.3072 396.997 121.904C410.621 145.501 373.005 183.31 329.452 215.245Z" fill="#458099" fill-opacity="0.55"/>
</svg>
