<svg width="25" height="25" viewBox="0 0 25 25" fill="none" xmlns="http://www.w3.org/2000/svg">
<g clip-path="url(#clip0_133_4846)">
<path d="M21.8008 10.5548C21.8008 17.743 12.5587 23.9044 12.5587 23.9044C12.5587 23.9044 3.31665 17.743 3.31665 10.5548C3.31665 8.10362 4.29036 5.75287 6.02359 4.01965C7.75681 2.28643 10.1076 1.31271 12.5587 1.31271C15.0098 1.31271 17.3606 2.28643 19.0938 4.01965C20.827 5.75287 21.8008 8.10362 21.8008 10.5548Z" stroke="#FBF6ED" stroke-width="1.40831" stroke-linecap="round" stroke-linejoin="round"/>
<path d="M12.5587 13.6086C14.2236 13.6086 15.5734 12.2654 15.5734 10.6086C15.5734 8.9517 14.2236 7.60855 12.5587 7.60855C10.8937 7.60855 9.54402 8.9517 9.54402 10.6086C9.54402 12.2654 10.8937 13.6086 12.5587 13.6086Z" stroke="#FBF6ED" stroke-width="1.40831" stroke-linecap="round" stroke-linejoin="round"/>
</g>
<defs>
<clipPath id="clip0_133_4846">
<rect width="24.1174" height="24" fill="white" transform="translate(0.500008 0.608551)"/>
</clipPath>
</defs>
</svg>
