<svg width="66" height="66" viewBox="0 0 66 66" fill="none" xmlns="http://www.w3.org/2000/svg">
<path d="M42.1371 22.1094C41.7465 22.4999 41.7465 23.133 42.1371 23.5234C42.5276 23.9139 43.1609 23.9139 43.5514 23.5234L42.1371 22.1094ZM52.1749 14.4876C52.1749 13.9354 51.7271 13.4877 51.1748 13.4877L42.1738 13.4877C41.6215 13.4877 41.1737 13.9354 41.1737 14.4876C41.1737 15.0399 41.6215 15.4875 42.1738 15.4875L50.1747 15.4875L50.1747 23.4867C50.1747 24.0389 50.6224 24.4866 51.1748 24.4866C51.7271 24.4866 52.1749 24.0389 52.1749 23.4867L52.1749 14.4876ZM43.5514 23.5234L51.882 15.1947L50.4676 13.7806L42.1371 22.1094L43.5514 23.5234Z" fill="white"/>
<path d="M23.2126 22.1094C23.6031 22.4999 23.6031 23.133 23.2126 23.5234C22.822 23.9139 22.1888 23.9139 21.7982 23.5234L23.2126 22.1094ZM13.1747 14.4876C13.1747 13.9354 13.6225 13.4877 14.1748 13.4877L23.1758 13.4877C23.7281 13.4877 24.1759 13.9354 24.1759 14.4876C24.1759 15.0399 23.7281 15.4875 23.1758 15.4875L15.1749 15.4875L15.1749 23.4867C15.1749 24.0389 14.7272 24.4866 14.1748 24.4866C13.6225 24.4866 13.1747 24.0389 13.1747 23.4867L13.1747 14.4876ZM21.7982 23.5234L13.4677 15.1947L14.882 13.7806L23.2126 22.1094L21.7982 23.5234Z" fill="white"/>
<path d="M42.1371 43.8657C41.7465 43.4752 41.7465 42.8421 42.1371 42.4517C42.5276 42.0612 43.1609 42.0612 43.5514 42.4517L42.1371 43.8657ZM52.1749 51.4875C52.1749 52.0397 51.7271 52.4874 51.1748 52.4874L42.1738 52.4874C41.6215 52.4874 41.1737 52.0397 41.1737 51.4875C41.1737 50.9352 41.6215 50.4876 42.1738 50.4876L50.1747 50.4876L50.1747 42.4884C50.1747 41.9362 50.6224 41.4885 51.1748 41.4885C51.7271 41.4885 52.1749 41.9362 52.1749 42.4884L52.1749 51.4875ZM43.5514 42.4517L51.882 50.7804L50.4676 52.1945L42.1371 43.8657L43.5514 42.4517Z" fill="white"/>
<path d="M23.2174 43.8657C23.608 43.4752 23.608 42.8421 23.2174 42.4517C22.8269 42.0612 22.1936 42.0612 21.8031 42.4517L23.2174 43.8657ZM13.1796 51.4875C13.1796 52.0397 13.6274 52.4874 14.1797 52.4874L23.1807 52.4874C23.733 52.4874 24.1808 52.0397 24.1808 51.4875C24.1808 50.9352 23.733 50.4876 23.1807 50.4876L15.1798 50.4876L15.1798 42.4884C15.1798 41.9362 14.7321 41.4885 14.1797 41.4885C13.6274 41.4885 13.1796 41.9362 13.1796 42.4884L13.1796 51.4875ZM21.8031 42.4517L13.4725 50.7804L14.8869 52.1945L23.2174 43.8657L21.8031 42.4517Z" fill="white"/>
</svg>
