<?xml version="1.0" standalone="no"?>
<!DOCTYPE svg PUBLIC "-//W3C//DTD SVG 1.1//EN" "http://www.w3.org/Graphics/SVG/1.1/DTD/svg11.dtd" >
<svg>
<metadata>
Created by FontForge 20090622 at Wed Jul 17 16:48:07 2013
 By ffonts
Typeface &#194;&#169; (your company). 2011. All Rights Reserved
</metadata>
<defs>
<font id="SouliyoUnicode" horiz-adv-x="0" >
  <font-face 
    font-family="Souliyo Unicode"
    font-weight="400"
    font-stretch="normal"
    units-per-em="2048"
    panose-1="2 0 5 0 0 0 0 0 0 0"
    ascent="1638"
    descent="-410"
    bbox="-1265 -627 1906 2281"
    underline-thickness="150"
    underline-position="-142"
    unicode-range="U+0020-U+0EDD"
  />
<missing-glyph horiz-adv-x="1024" 
d="M102 0v1536h819v-1536h-819zM819 102v1332h-615v-1332h615z" />
    <glyph glyph-name=".notdef" horiz-adv-x="1024" 
d="M102 0v1536h819v-1536h-819zM819 102v1332h-615v-1332h615z" />
    <glyph glyph-name=".null" 
 />
    <glyph glyph-name="nonmarkingreturn" horiz-adv-x="508" 
 />
    <glyph glyph-name="space" unicode=" " horiz-adv-x="508" 
 />
    <glyph glyph-name="exclam" unicode="!" horiz-adv-x="573" 
d="M389 1034q0 -172 -12.5 -312t-30.5 -280h-119q-19 140 -31 280t-12 312v385h205v-385zM423 111q0 -56 -36.5 -97t-100.5 -41q-63 0 -100 41t-37 97q0 55 37 96t100 41q64 0 100.5 -41t36.5 -96z" />
    <glyph glyph-name="quotedbl" unicode="&#x22;" horiz-adv-x="864" 
d="M350 1556v-102q0 -100 -12.5 -209.5t-30.5 -218.5h-113q-18 109 -30.5 218.5t-12.5 211.5v100h199zM712 1556v-102q0 -100 -12 -209.5t-31 -218.5h-112q-19 109 -31.5 218.5t-12.5 211.5v100h199z" />
    <glyph glyph-name="numbersign" unicode="#" horiz-adv-x="1374" 
d="M585 1044h332l72 375h172l-72 -375h180v-151h-211l-69 -367h280v-151h-309l-72 -375h-172l72 375h-332l-71 -375h-172l71 375h-180v151h209l70 367h-279v151h309l72 375h172zM485 526h332l71 367h-331z" />
    <glyph glyph-name="dollar" unicode="$" horiz-adv-x="1163" 
d="M541 195q157 0 220.5 50t63.5 128q0 57 -27.5 98t-73.5 71.5t-106.5 55.5t-123.5 47q-62 23 -122.5 50.5t-107.5 67.5t-76.5 96t-29.5 138q0 146 87 239t253 118v235h170v-229q90 -4 167.5 -22.5t122.5 -34.5l-38 -160q-50 18 -123.5 37.5t-184.5 19.5q-123 0 -189.5 -47
t-66.5 -133q0 -47 19.5 -80t56.5 -58.5t87 -46t112 -42.5q80 -31 151.5 -64t126 -79t87 -109.5t32.5 -153.5q0 -145 -88 -234.5t-272 -111.5v-264h-170v258q-144 4 -234 31.5t-135 52.5l51 153q62 -28 148 -52.5t213 -24.5z" />
    <glyph glyph-name="percent" unicode="%" horiz-adv-x="1765" 
d="M106 1073q0 92 24.5 162t68.5 118t103.5 72.5t129.5 24.5q69 0 128.5 -24.5t103.5 -72.5t68.5 -118t24.5 -162t-24.5 -161.5t-68.5 -118t-103.5 -73t-128.5 -24.5q-70 0 -129.5 24.5t-103.5 73t-68.5 118t-24.5 161.5zM598 1073q0 111 -43 173.5t-123 62.5t-123 -62.5
t-43 -173.5q0 -110 43 -172.5t123 -62.5t123 62.5t43 172.5zM1007 346q0 92 24.5 162t68.5 118t103.5 72.5t129.5 24.5q69 0 128.5 -24.5t103.5 -72.5t68.5 -118t24.5 -162t-24.5 -161.5t-68.5 -118t-103.5 -73t-128.5 -24.5q-70 0 -129.5 24.5t-103.5 73t-68.5 118
t-24.5 161.5zM1499 346q0 111 -43 173.5t-123 62.5t-123 -62.5t-43 -173.5q0 -110 43 -172.5t123 -62.5t123 62.5t43 172.5zM1376 1419l-801 -1419h-186l800 1419h187z" />
    <glyph glyph-name="ampersand" unicode="&#x26;" horiz-adv-x="1372" 
d="M98 377q0 80 24.5 142.5t66.5 112.5t97.5 88t114.5 66q-151 152 -151 314q0 82 27.5 147.5t75.5 110.5t114.5 69.5t146.5 24.5q82 0 146.5 -24.5t108.5 -65.5t66.5 -98.5t22.5 -120.5q0 -72 -23.5 -129.5t-63.5 -104.5t-91 -86t-109 -69l332 -338q70 129 90 286l158 -20
q-8 -84 -42 -183.5t-95 -197.5q71 -78 131.5 -153.5t99.5 -147.5h-200q-25 41 -61 84l-75 86q-84 -84 -194.5 -136t-253.5 -52q-133 0 -221 37.5t-142.5 96t-77 128t-22.5 133.5zM288 381q0 -37 14.5 -80t47.5 -79t85 -59.5t130 -23.5q100 0 185 37t151 105l-400 403
q-36 -18 -74 -43t-69 -60.5t-50.5 -85t-19.5 -114.5zM786 1137q0 69 -46 117.5t-126 48.5q-90 0 -138 -54.5t-48 -134.5q0 -133 139 -260q45 23 85 49.5t69.5 61t47 76.5t17.5 96z" />
    <glyph glyph-name="quotesingle" unicode="'" horiz-adv-x="501" 
d="M350 1556v-102q0 -100 -12.5 -209.5t-30.5 -218.5h-113q-18 109 -30.5 218.5t-12.5 211.5v100h199z" />
    <glyph glyph-name="parenleft" unicode="(" horiz-adv-x="671" 
d="M353 612q0 -262 76 -485t223 -414l-135 -92q-159 195 -256.5 448t-97.5 543q0 291 97.5 544t256.5 448l135 -93q-147 -190 -223 -413.5t-76 -485.5z" />
    <glyph glyph-name="parenright" unicode=")" horiz-adv-x="671" 
d="M317 612q0 262 -76 485.5t-223 413.5l135 93q160 -195 257 -448t97 -544q0 -290 -97 -543t-257 -448l-135 92q147 191 223 414t76 485z" />
    <glyph glyph-name="asterisk" unicode="*" horiz-adv-x="991" 
d="M587 1403q0 -86 -15.5 -165l-31.5 -163l145.5 80t155.5 68l12 4l57 -172l-16 -6q-82 -31 -164 -40.5t-168 -15.5l127.5 -111.5t110.5 -125.5l10 -15l-149 -104l-9 12q-49 74 -84.5 146.5l-72.5 150.5l-73 -150.5t-85 -146.5l-8 -12l-150 104l11 15q51 71 110.5 125.5
l126.5 111.5q-86 6 -168 15.5t-164 40.5l-16 6l57 172l13 -4q84 -29 155.5 -68l145.5 -80l-32 163t-15 165v16h184v-16z" />
    <glyph glyph-name="plus" unicode="+" horiz-adv-x="1163" 
d="M112 684h387v422h164v-422h387v-162h-387v-424h-164v424h-387v162z" />
    <glyph glyph-name="comma" unicode="," horiz-adv-x="512" 
d="M368 233q2 -16 2 -31v-32q0 -129 -38 -255t-104 -241l-147 47q51 105 67.5 212.5t16.5 201.5q0 27 -1 51.5t-3 46.5h207z" />
    <glyph glyph-name="hyphen" unicode="-" horiz-adv-x="620" 
d="M57 672h506v-178h-506v178z" />
    <glyph glyph-name="period" unicode="." horiz-adv-x="512" 
d="M392 111q0 -56 -36.5 -97t-100.5 -41q-63 0 -100 41t-37 97q0 55 37 96t100 41q64 0 100.5 -41t36.5 -96z" />
    <glyph glyph-name="slash" unicode="/" horiz-adv-x="794" 
d="M150 -379h-195l694 1983h191z" />
    <glyph glyph-name="zero" unicode="0" horiz-adv-x="1163" 
d="M106 711q0 356 126 548.5t349 192.5t349 -192.5t126 -548.5q0 -357 -126 -549.5t-349 -192.5t-349 192.5t-126 549.5zM856 711q0 116 -13.5 220.5t-45.5 182.5t-85 124t-131 46t-131 -46t-85 -124t-45 -182.5t-13 -220.5q0 -117 13 -221.5t45 -182.5t85 -124t131 -46
t131 46t85 124t45.5 182.5t13.5 221.5z" />
    <glyph glyph-name="one" unicode="1" horiz-adv-x="1163" 
d="M194 1126q117 45 227.5 116t202.5 177h135v-1419h-190v1155q-25 -22 -60.5 -47t-77.5 -47.5t-88.5 -43t-89.5 -34.5z" />
    <glyph glyph-name="two" unicode="2" horiz-adv-x="1163" 
d="M960 1057q0 -74 -30 -142.5t-79 -135t-110.5 -131l-122.5 -126.5l-81 -82t-87 -98t-68.5 -98t-27.5 -82h653v-162h-860q-2 12 -2 25v22q0 96 31.5 179t83 157t114.5 139.5l125 126.5l97 97.5t82 96.5t57.5 99t21.5 109q0 61 -19.5 104t-52 71.5t-77 42t-93.5 13.5
q-59 0 -108 -16.5t-88 -38t-65.5 -45t-41.5 -35.5l-94 135q18 21 55 50.5t88.5 56t115 45t136.5 18.5q223 0 335 -103.5t112 -291.5z" />
    <glyph glyph-name="three" unicode="3" horiz-adv-x="1163" 
d="M466 139q182 0 261 72t79 192q0 78 -32.5 131.5t-86 85t-124 45t-144.5 13.5h-49v156h68q51 0 105 10t99 36.5t74 72.5t29 116q0 57 -20.5 98t-54.5 68t-78 38t-93 11q-98 0 -167 -28.5t-116 -59.5l-73 145q24 17 62 36.5t85 36t101.5 27.5t113.5 11q113 0 195 -27.5
t135 -78t79.5 -119t26.5 -148.5q0 -110 -63.5 -189t-153.5 -120q56 -16 107 -47t89 -78t61.5 -108.5t23.5 -137.5q0 -92 -32 -170.5t-98.5 -136t-166.5 -90.5t-238 -33q-53 0 -109.5 8.5t-105.5 20.5t-86 24.5t-53 20.5l37 166q35 -16 115.5 -43t197.5 -27z" />
    <glyph glyph-name="four" unicode="4" horiz-adv-x="1163" 
d="M86 492q39 90 106.5 209.5t152.5 246.5t182.5 250t195.5 221h182v-901h168v-156h-168v-362h-184v362h-635v130zM721 1194q-62 -66 -124 -146.5t-121.5 -168.5t-112 -180.5t-93.5 -180.5h451v676z" />
    <glyph glyph-name="five" unicode="5" horiz-adv-x="1163" 
d="M411 872q310 -12 454 -135t144 -334q0 -94 -31.5 -173.5t-96 -137t-163 -90.5t-233.5 -33q-53 0 -108.5 8.5t-102.5 20.5t-84 24.5t-53 20.5l37 166q35 -16 113.5 -43t193.5 -27q92 0 154.5 20.5t101.5 55.5t56.5 81t17.5 97q0 78 -26.5 138.5t-94.5 101.5t-180.5 62.5
t-284.5 21.5q12 100 19.5 188t13.5 172t10 167t8 175h684v-162h-518q-2 -30 -6 -82.5l-8 -108.5l-8 -109.5t-9 -84.5z" />
    <glyph glyph-name="six" unicode="6" horiz-adv-x="1163" 
d="M133 569q0 207 57.5 366t163 267.5t256 164.5t338.5 58l14 -159q-120 -2 -219.5 -27t-177.5 -78t-131 -138t-80 -210q53 25 120 41t138 16q121 0 205 -36.5t137 -97t77 -139.5t24 -165q0 -78 -27 -160t-81 -149.5t-138 -110.5t-199 -43q-233 0 -355 160t-122 440z
M592 715q-72 0 -133.5 -13.5t-122.5 -39.5q-2 -23 -3 -46.5t-1 -46.5q0 -90 12 -170t44 -140t85 -96t135 -36q68 0 115 28.5t77.5 73.5t44 97.5t13.5 101.5q0 139 -66.5 213t-199.5 74z" />
    <glyph glyph-name="seven" unicode="7" horiz-adv-x="1163" 
d="M337 0q12 164 58 345t114 352t148.5 317.5t158.5 238.5h-690v166h903v-157q-67 -78 -149 -214.5t-155 -305.5t-125 -360.5t-64 -381.5h-199z" />
    <glyph glyph-name="eight" unicode="8" horiz-adv-x="1163" 
d="M1046 369q0 -86 -30 -159t-88 -127t-146 -84t-203 -30q-133 0 -222 38t-142.5 95.5t-76 126t-22.5 129.5q0 60 19.5 114t51 101.5t73.5 85t89 66.5q-200 115 -200 338q0 78 30.5 148.5t87 124t136.5 85t178 31.5q115 0 196.5 -35t134 -89t76 -119.5t23.5 -127.5
q0 -59 -17.5 -111t-47 -97.5t-67.5 -80t-79 -61.5q242 -115 246 -362zM309 356q0 -37 13 -76.5t46 -73.5t84 -56.5t129 -22.5q70 0 122 20.5t85 52t49 72.5t16 84q0 66 -24.5 115t-70.5 86t-110.5 62.5t-146.5 44.5q-92 -52 -142 -127.5t-50 -180.5zM821 1083q0 31 -13.5 68
t-42 68.5t-74 53t-110.5 21.5q-66 0 -112 -20.5t-74.5 -52t-42 -69.5t-13.5 -75q0 -45 16.5 -90t51.5 -84t91 -69.5t134 -49.5q86 52 137.5 120.5t51.5 178.5z" />
    <glyph glyph-name="nine" unicode="9" horiz-adv-x="1163" 
d="M1030 852q0 -422 -210 -638t-624 -218l-6 160q129 0 232.5 24.5t181 78.5t130 140t76.5 211q-53 -24 -120.5 -39.5t-139.5 -15.5q-120 0 -204 36t-137.5 96.5t-77 139t-23.5 164.5q0 76 26.5 158t81 149.5t138.5 110.5t198 43q117 0 206 -41t149.5 -119t91.5 -189.5
t31 -250.5zM571 711q72 0 135.5 13t122.5 40q2 22 2 44v44q0 88 -12.5 169t-44 141.5t-85 96t-135.5 35.5q-67 0 -114 -28.5t-78 -72.5t-44 -96.5t-13 -101.5q0 -139 66.5 -211.5t199.5 -72.5z" />
    <glyph glyph-name="colon" unicode=":" horiz-adv-x="512" 
d="M392 111q0 -56 -36.5 -97t-100.5 -41q-63 0 -100 41t-37 97q0 55 37 96t100 41q64 0 100.5 -41t36.5 -96zM392 928q0 -56 -36.5 -96.5t-100.5 -40.5q-63 0 -100 40.5t-37 96.5q0 55 37 96t100 41q64 0 100.5 -41t36.5 -96z" />
    <glyph glyph-name="semicolon" unicode=";" horiz-adv-x="512" 
d="M368 233q2 -16 2 -31v-32q0 -129 -38 -255t-104 -241l-147 47q51 105 67.5 212.5t16.5 201.5q0 27 -1 51.5t-3 46.5h207zM392 928q0 -56 -36.5 -96.5t-100.5 -40.5q-63 0 -100 40.5t-37 96.5q0 55 37 96t100 41q64 0 100.5 -41t36.5 -96z" />
    <glyph glyph-name="less" unicode="&#x3c;" horiz-adv-x="1163" 
d="M323 602l727 -299l-53 -158l-885 375v164l885 375l53 -158z" />
    <glyph glyph-name="equal" unicode="=" horiz-adv-x="1163" 
d="M112 465h938v-162h-938v162zM112 901h938v-162h-938v162z" />
    <glyph glyph-name="greater" unicode="&#x3e;" horiz-adv-x="1163" 
d="M112 901l53 158l885 -375v-164l-885 -375l-53 158l727 299z" />
    <glyph glyph-name="question" unicode="?" horiz-adv-x="835" 
d="M360 1292q-135 0 -264 -69l-53 147q70 37 157 59.5t185 22.5q117 0 191.5 -31.5t119.5 -81t62.5 -110t17.5 -115.5q0 -70 -26.5 -124t-65.5 -101t-86 -90t-86 -89t-65.5 -100.5t-26.5 -122.5v-22q0 -12 2 -23h-160q-8 41 -8 86q0 66 23.5 119t60.5 99.5t78 86t77.5 80.5
t60.5 86t24 99q0 86 -55.5 140t-162.5 54zM489 111q0 -56 -36.5 -97t-100.5 -41q-63 0 -100 41t-37 97q0 55 37 96t100 41q64 0 100.5 -41t36.5 -96z" />
    <glyph glyph-name="at" unicode="@" horiz-adv-x="1953" 
d="M1417 88q-66 0 -109 18.5t-71 49.5q-45 -25 -108.5 -42.5t-127.5 -17.5q-98 0 -179 31t-140.5 91.5t-92 148.5t-32.5 204q0 99 30.5 186t91 151.5t147.5 101.5t198 37q104 0 191 -16.5t134 -33.5v-626q0 -66 22.5 -92.5t59.5 -26.5q54 0 93.5 37t65.5 96t38 134t12 153
q0 129 -45 242.5t-129 199.5t-203.5 135t-269.5 49q-149 0 -274 -50t-215.5 -143t-140.5 -228.5t-50 -307.5q0 -180 53.5 -316t148.5 -227.5t225 -137.5t286 -46q121 0 199.5 14.5t101.5 22.5l20 -151q-34 -13 -125.5 -27t-195.5 -14q-182 0 -344 52t-283 159.5
t-191.5 274.5t-70.5 396q0 222 69.5 387.5t187.5 275t272.5 165t326.5 55.5q168 0 317.5 -54.5t262 -157.5t178 -249.5t65.5 -331.5q0 -139 -31.5 -245.5t-85 -179t-127 -109.5t-155.5 -37zM1007 254q43 0 87 9t79 28q-6 26 -8 53t-2 51v482q-12 4 -47 8t-78 4
q-145 0 -217 -90t-72 -228q0 -145 70 -231t188 -86z" />
    <glyph glyph-name="uni0E81" unicode="&#xe81;" horiz-adv-x="1333" 
d="M280 854q8 0 17 2l18 4v137q0 23 -8.5 34t-26.5 11q-45 0 -72 -25.5t-27 -70.5q0 -41 27 -66.5t72 -25.5zM1169 0h-168v774q0 60 -11.5 104t-43 75.5t-69.5 45t-104 13.5q-67 0 -132.5 -44t-157.5 -132v-666q0 -90 -53.5 -140t-151.5 -50q-99 0 -151 50t-52 140t50 140
t145 50q12 0 25 -1t20 -3v404q-9 -2 -18 -2h-17q-94 0 -149.5 49t-55.5 139t52 140.5t151 50.5q94 0 142 -42t58 -116q91 90 161.5 129t154.5 39q94 0 159.5 -22.5t119 -74t75 -124t21.5 -152.5v-774zM280 76q41 0 67.5 25.5t26.5 68.5t-26.5 67.5t-67.5 24.5
q-45 0 -72 -24.5t-27 -67.5t27 -68.5t72 -25.5z" />
    <glyph glyph-name="uni0E82" unicode="&#xe82;" horiz-adv-x="1318" 
d="M319 727q43 0 69.5 25.5t26.5 68.5t-26.5 67.5t-69.5 24.5q-41 0 -68.5 -24.5t-27.5 -67.5t27.5 -68.5t68.5 -25.5zM1097 -6q-31 57 -78 106.5t-102 49.5q-43 0 -100.5 -24t-126 -59.5t-142.5 -61t-172 -25.5q-127 0 -195.5 57t-68.5 151q0 113 68.5 181.5t177 110.5
t218 73t200 71t147.5 88t57 109q0 39 -18.5 71t-59 60.5t-103 44t-138.5 15.5q-64 0 -119 -8.5t-100 -26.5q41 -31 61.5 -69t20.5 -87q0 -90 -53.5 -139t-149.5 -49q-100 0 -153 50q-52 48 -52 132v6q0 84 46 148.5t130 104.5t176.5 56.5t198.5 16.5q104 0 193.5 -20.5
t162 -63.5t102 -103.5t29.5 -132.5q0 -129 -77.5 -202.5t-161.5 -116.5t-184.5 -74l-209 -66.5t-172 -71.5t-63.5 -95q0 -41 25.5 -62.5t64.5 -21.5h10q55 0 103 20q53 21 141 62t153.5 63.5t141.5 22.5q100 0 171 -57.5t126 -155.5z" />
    <glyph glyph-name="uni0E84" unicode="&#xe84;" horiz-adv-x="1333" 
d="M434 78q43 0 69.5 24.5t26.5 69.5q0 41 -26.5 66.5t-69.5 25.5q-41 0 -67.5 -25.5t-26.5 -66.5q0 -45 26.5 -69.5t67.5 -24.5zM1169 0h-168v678q0 149 -88 241.5t-262 92.5q-176 0 -263 -72t-87 -180v-8q61 39 135 39q102 0 152.5 -51.5t50.5 -114.5q0 -76 -54.5 -120
t-144.5 -44q-37 0 -70.5 5t-64.5 17q-2 -22 -3 -60t-1 -73q0 -18 4 -35q29 25 63.5 36t75.5 11q92 0 143.5 -50t51.5 -140t-52.5 -140t-150.5 -50q-152 0 -225.5 101t-73.5 265q0 78 10 138.5t27 107.5q-19 35 -28 76t-9 84q0 184 147.5 288.5t368.5 104.5q248 0 382 -126
t134 -343v-678zM440 557q45 2 67.5 19.5t22.5 48.5q0 37 -25.5 52t-68.5 15q-35 0 -61.5 -23.5t-40.5 -54.5q16 -24 46.5 -40.5t59.5 -16.5z" />
    <glyph glyph-name="uni0E87" unicode="&#xe87;" horiz-adv-x="1036" 
d="M395 821q0 43 -26.5 67.5t-69.5 24.5q-41 0 -67.5 -24.5t-26.5 -67.5t26.5 -68.5t67.5 -25.5q43 0 69.5 25.5t26.5 68.5zM469 -487q-119 0 -212 46t-163 140l113 106q57 -84 123.5 -120.5t138.5 -36.5q108 0 171.5 69.5t63.5 206.5v787q0 153 -61.5 227t-167.5 74
q-27 0 -54.5 -3t-45.5 -14q57 -18 93 -59t36 -115q0 -90 -53.5 -139t-149.5 -49q-98 0 -152 50q-53 48 -53 132v6q0 164 110.5 245t264.5 81q184 0 292.5 -109.5t108.5 -326.5v-746q0 -233 -109.5 -342.5t-293.5 -109.5z" />
    <glyph glyph-name="uni0E88" unicode="&#xe88;" horiz-adv-x="1298" 
d="M575 446q41 0 67.5 26t26.5 67q0 45 -26.5 70.5t-67.5 25.5q-45 0 -71.5 -25.5t-26.5 -70.5q0 -41 26.5 -67t71.5 -26zM872 -20q-141 0 -201.5 66.5t-60.5 199.5v106q-6 -2 -19.5 -3t-25.5 -1q-94 0 -144.5 50.5t-50.5 140.5t52.5 140t150.5 50t151.5 -50t53.5 -140v-299
q0 -70 26.5 -96.5t69.5 -26.5q39 0 65.5 26.5t26.5 96.5v479q0 143 -76.5 218t-248.5 75t-292 -56.5t-145 -201.5l-143 28q35 205 194.5 285t385.5 80q256 0 374.5 -112.5t118.5 -303.5v-485q0 -131 -61.5 -197.5t-200.5 -68.5z" />
    <glyph glyph-name="uni0E8A" unicode="&#xe8a;" horiz-adv-x="1318" 
d="M319 727q43 0 69.5 25.5t26.5 68.5t-26.5 67.5t-69.5 24.5q-41 0 -68.5 -24.5t-27.5 -67.5t27.5 -68.5t68.5 -25.5zM1154 -410q-55 23 -78.5 67t-32.5 222t-39 224.5t-87 46.5q-51 0 -139 -41t-122 -59.5t-108 -44t-172 -25.5q-127 0 -195.5 57t-68.5 151
q0 113 68.5 181.5t177 110.5t218 73t200 71t147.5 88t57 109q0 39 -18.5 71t-59 60.5t-103 44t-138.5 15.5q-64 0 -119 -8.5t-100 -26.5q41 -31 61.5 -69t20.5 -87q0 -90 -53.5 -139t-149.5 -49q-100 0 -153 50q-52 48 -52 132v6q0 84 46 148.5t130 104.5t176.5 56.5
t198.5 16.5q104 0 193.5 -20.5t162 -63.5t102 -103.5t29.5 -132.5q0 -129 -77.5 -202.5t-161.5 -116.5t-184.5 -74l-209 -66.5t-172 -71.5t-63.5 -95q0 -41 25.5 -62.5t64.5 -21.5h10q55 0 103 20q53 21 143 63t155.5 63.5t137.5 21.5q111 0 178.5 -66.5t72.5 -245
t23.5 -225.5t59.5 -59z" />
    <glyph glyph-name="uni0E8D" unicode="&#xe8d;" horiz-adv-x="1343" 
d="M433 854q45 0 72 25.5t27 66.5q0 45 -27 70.5t-72 25.5q-41 0 -67.5 -25.5t-26.5 -70.5q0 -41 26.5 -66.5t67.5 -25.5zM634 -20q-115 0 -212 17t-160.5 54t-99.5 94.5t-36 135.5q0 51 15.5 89t43 68.5t66.5 53t90 38.5q-51 19 -90 44.5t-66.5 60.5t-43 78t-15.5 98
q0 82 22.5 142.5t66.5 101.5t99.5 61.5t120.5 20.5q99 0 151 -50.5t52 -140.5t-50 -139t-145 -49q-81 0 -137 47q-6 -17 -6 -37q0 -39 17.5 -70.5t50 -54t91.5 -34.5q50 -11 124 -11h24v-133q-94 0 -144 -12.5t-88 -37t-57.5 -56t-19.5 -74.5q0 -39 19.5 -70t59.5 -55.5
t106.5 -33.5t150.5 -9q92 0 167 14t120 47t67.5 79t22.5 114v755h168v-755q0 -97 -33 -165.5t-99.5 -125.5t-181 -78.5t-231.5 -21.5z" />
    <glyph glyph-name="uni0E94" unicode="&#xe94;" horiz-adv-x="1333" 
d="M366 78q45 0 71.5 24.5t26.5 69.5q0 41 -26.5 66.5t-71.5 25.5q-41 0 -67.5 -25.5t-26.5 -66.5q0 -45 26.5 -69.5t67.5 -24.5zM1169 0h-168v678q0 160 -71 247t-263 87q-189 0 -262.5 -86t-73.5 -248v-320q6 2 19.5 3t25.5 1q92 0 143.5 -50t51.5 -140t-52.5 -140
t-150.5 -50q-99 0 -152 50t-53 140v506q0 250 133 361q131 108 361 108h8q274 0 389 -128t115 -341v-678z" />
    <glyph glyph-name="uni0E95" unicode="&#xe95;" horiz-adv-x="1333" 
d="M1169 0h-168v768q0 59 -5.5 104.5t-14.5 76t-26.5 47t-41.5 16.5q-35 0 -56.5 -22.5t-34 -52.5t-21.5 -61.5t-25.5 -61.5t-42 -51.5t-66.5 -21.5q-43 0 -68.5 21.5t-42 51.5t-26 61.5t-21.5 61.5t-33.5 52.5t-56.5 22.5q-23 0 -40 -16.5t-27.5 -47t-15.5 -76t-5 -104.5
v-410q6 2 19.5 3t25.5 1q92 0 143.5 -50t51.5 -140t-52.5 -140t-150.5 -50q-99 0 -152 50t-53 140v596q0 121 23.5 195.5t59.5 113.5t80 54.5t95 15.5q102 0 160.5 -71.5t85.5 -196.5q24 125 82.5 196.5t161.5 71.5q51 0 95 -15.5t79.5 -54.5t59.5 -113.5t24 -195.5v-768z
M464 172q0 41 -26.5 66.5t-71.5 25.5q-41 0 -67.5 -25.5t-26.5 -66.5q0 -45 26.5 -69.5t67.5 -24.5q45 0 71.5 24.5t26.5 69.5z" />
    <glyph glyph-name="uni0E96" unicode="&#xe96;" horiz-adv-x="1374" 
d="M250 854q8 0 17 2t18 6v135q0 25 -9.5 35t-25.5 10q-43 0 -69.5 -25.5t-26.5 -70.5q0 -41 26.5 -66.5t69.5 -25.5zM1210 -410h-168v1184q0 60 -12 104t-44 75.5t-69.5 45t-101.5 13.5q-82 0 -165 -42t-197 -141v-471q6 2 19 3t26 1q94 0 144 -50t50 -140t-52 -140
t-151 -50q-98 0 -151 50t-53 140v588q-11 -2 -19 -2h-16q-92 0 -148.5 49t-56.5 139t53 140.5t150 50.5q94 0 142 -42t61 -122q106 102 197 139q86 35 178 35h10q94 0 158.5 -22.5t118.5 -74t75.5 -124t21.5 -152.5v-1184zM487 78q45 0 72 24.5t27 69.5q0 41 -27 66.5
t-72 25.5q-41 0 -67.5 -25.5t-26.5 -66.5q0 -45 26.5 -69.5t67.5 -24.5z" />
    <glyph glyph-name="uni0E97" unicode="&#xe97;" horiz-adv-x="1404" 
d="M280 854q41 0 67.5 25.5t26.5 66.5q0 45 -26.5 70.5t-67.5 25.5q-45 0 -72 -25.5t-27 -70.5q0 -41 27 -66.5t72 -25.5zM1238 0h-168v844q0 41 -9 73.5t-28.5 53t-45 30t-56.5 9.5q-33 0 -58.5 -9.5t-43 -30t-27.5 -51t-10 -75.5v-543q0 -82 -24.5 -142.5t-69.5 -99.5
t-105.5 -59t-140.5 -20q-62 0 -116 15t-108.5 63t-83 119t-28.5 177q0 111 43 189t89 118.5t67.5 64.5t27.5 46q-28 -14 -73 -14q-95 0 -145 49t-50 139t52 140.5t151 50.5q121 0 177 -66.5t56 -161.5q0 -63 -29.5 -129.5t-82 -135.5t-81 -140.5t-28.5 -145.5
q0 -67 15.5 -121.5t43 -78t52.5 -33.5q20 -8 43 -8h10q37 0 69.5 10t56 34.5t34 60.5t10.5 77v545q0 88 25.5 144t67.5 91t96.5 50.5t117.5 15.5q59 0 117.5 -15.5t98.5 -52.5t65.5 -91t25.5 -142v-844z" />
    <glyph glyph-name="uni0E99" unicode="&#xe99;" horiz-adv-x="1333" 
d="M280 854q41 0 67.5 24.5t26.5 67.5t-26.5 68.5t-67.5 25.5q-45 0 -72 -25.5t-27 -68.5t27 -67.5t72 -24.5zM788 -20q-107 0 -195 52t-145 140q-37 -90 -111 -141t-190 -51h-54v135h54q98 0 133 58t35 161v426q-7 -2 -20 -3t-25 -1q-95 0 -145 49t-50 141q0 90 52 140.5
t151 50.5q98 0 151.5 -50.5t53.5 -140.5v-622q36 -93 113 -151q74 -56 184 -56h8q112 0 162.5 57t50.5 160v792h168v-792q0 -166 -101.5 -259t-279.5 -95z" />
    <glyph glyph-name="uni0E9A" unicode="&#xe9a;" horiz-adv-x="1333" 
d="M280 854q41 0 67.5 25.5t26.5 66.5q0 45 -26.5 70.5t-67.5 25.5q-45 0 -72 -25.5t-27 -70.5q0 -41 27 -66.5t72 -25.5zM638 -20q-137 0 -237.5 28.5t-165 79.5t-92 119.5t-27.5 146.5q0 111 43 189t89 118.5t67.5 64.5t27.5 46q-28 -14 -73 -14q-95 0 -145 49t-50 139
t52 140.5t151 50.5q121 0 177 -66.5t56 -161.5q0 -63 -29.5 -129.5t-82 -135.5t-81 -140.5t-28.5 -145.5q0 -59 23.5 -103t64.5 -76t107.5 -47t152.5 -15q105 0 169.5 22.5t107.5 59.5t64.5 95t21.5 134v698h168v-698q0 -109 -34 -188.5t-97.5 -137t-163 -90t-236.5 -32.5z
" />
    <glyph glyph-name="uni0E9B" unicode="&#xe9b;" horiz-adv-x="1333" 
d="M280 854q41 0 67.5 25.5t26.5 66.5q0 45 -26.5 70.5t-67.5 25.5q-45 0 -72 -25.5t-27 -70.5q0 -41 27 -66.5t72 -25.5zM638 -20q-137 0 -237.5 28.5t-165 79.5t-92 119.5t-27.5 146.5q0 111 43 189t89 118.5t67.5 64.5t27.5 46q-28 -14 -73 -14q-95 0 -145 49t-50 139
t52 140.5t151 50.5q121 0 177 -66.5t56 -161.5q0 -63 -29.5 -129.5t-82 -135.5t-81 -140.5t-28.5 -145.5q0 -59 23.5 -103t64.5 -76t107.5 -47t152.5 -15q103 0 168.5 22.5t108.5 59.5t64.5 95t21.5 134v1128h168v-1128q0 -109 -34 -188.5t-97.5 -137t-163 -90t-236.5 -32.5
z" />
    <glyph glyph-name="uni0E9C" unicode="&#xe9c;" horiz-adv-x="1509" 
d="M951 -20q-75 0 -133.5 29.5t-99.5 86.5q-39 -51 -96.5 -83.5t-139.5 -32.5q-149 0 -234 78.5t-85 240.5l2 647q0 90 52 140.5t153 50.5q96 0 149.5 -50.5t53.5 -140.5q0 -92 -51.5 -141t-143.5 -49q-12 0 -26.5 1t-18.5 3l-2 -461q0 -94 39 -138t112 -44q76 0 114 46
t38 136v160h168l-2 -160q0 -96 41 -139t110 -43q74 0 113 44t39 138v459h-35q-92 0 -148.5 49t-56.5 139t53.5 140.5t149.5 50.5q90 0 139.5 -46.5t61.5 -132.5q29 39 47 91.5t29 109.5l127 -51q-29 -102 -78 -178t-121 -119v-512q0 -158 -85 -238.5t-235 -80.5zM1068 854
q8 0 17.5 1t17.5 1v141q0 23 -8 34t-27 11q-45 0 -70.5 -25.5t-25.5 -70.5q0 -41 25.5 -66.5t70.5 -25.5zM464 946q0 43 -26.5 68.5t-69.5 25.5q-41 0 -68.5 -25.5t-27.5 -68.5t27.5 -67.5t68.5 -24.5q43 0 69.5 24.5t26.5 67.5z" />
    <glyph glyph-name="uni0E9D" unicode="&#xe9d;" horiz-adv-x="1435" 
d="M951 -20q-75 0 -133.5 29.5t-99.5 86.5q-39 -53 -96.5 -84.5t-139.5 -31.5q-149 0 -234 78.5t-85 240.5l2 647q0 90 52 140.5t153 50.5q96 0 149.5 -50.5t53.5 -140.5q0 -92 -51.5 -141t-143.5 -49q-12 0 -26.5 1t-18.5 3l-2 -461q0 -94 39 -139q37 -43 106 -43h6
q74 0 113 46t39 136v160h168l-2 -160q0 -96 41 -139t110 -43q74 0 113 44t39 138v1257h168v-1257q0 -162 -85 -240.5t-235 -78.5zM464 946q0 43 -26.5 68.5t-69.5 25.5q-41 0 -68.5 -25.5t-27.5 -68.5t27.5 -67.5t68.5 -24.5q43 0 69.5 24.5t26.5 67.5z" />
    <glyph glyph-name="uni0E9E" unicode="&#xe9e;" horiz-adv-x="1435" 
d="M952 -20q-76 0 -134.5 29.5t-99.5 86.5q-39 -53 -96.5 -84.5t-138.5 -31.5q-86 0 -150.5 20t-120 73.5t-76 128t-20.5 152.5q0 111 43 189t89 118.5t67.5 64.5t27.5 46q-28 -14 -73 -14q-95 0 -145 49t-50 139t52 140.5t151 50.5q121 0 177 -66.5t56 -161.5
q0 -63 -29.5 -129.5t-82 -135.5t-81 -140.5t-28.5 -145.5q0 -59 14.5 -107t39 -79t59 -43t80.5 -12q73 0 112 46t39 136v608h168l-2 -608q0 -96 41 -139t111 -43q73 0 112 44t39 138v827h168v-827q0 -162 -85 -240.5t-234 -78.5zM181 946q0 -41 27 -66.5t72 -25.5
q41 0 67.5 25.5t26.5 66.5q0 45 -26.5 70.5t-67.5 25.5q-45 0 -72 -25.5t-27 -70.5z" />
    <glyph glyph-name="uni0E9F" unicode="&#xe9f;" horiz-adv-x="1435" 
d="M952 -20q-76 0 -134.5 29.5t-99.5 86.5q-39 -53 -96.5 -84.5t-138.5 -31.5q-86 0 -150.5 20t-120 73.5t-76 128t-20.5 152.5q0 111 43 189t89 118.5t67.5 64.5t27.5 46q-28 -14 -73 -14q-95 0 -145 49t-50 139t52 140.5t151 50.5q121 0 177 -66.5t56 -161.5
q0 -63 -29.5 -129.5t-82 -135.5t-80.5 -138q-29 -72 -29 -148q0 -59 14.5 -107t39 -79t59 -43t80.5 -12q73 0 112 46t39 136v608h168l-2 -608q0 -96 41 -139t111 -43q73 0 112 44t39 138v1257h168v-1257q0 -162 -85 -240.5t-234 -78.5zM181 946q0 -41 27 -66.5t72 -25.5
q41 0 67.5 25.5t26.5 66.5q0 45 -26.5 70.5t-67.5 25.5q-45 0 -72 -25.5t-27 -70.5z" />
    <glyph glyph-name="uni0EA1" unicode="&#xea1;" horiz-adv-x="1333" 
d="M788 -20q-99 0 -176.5 41.5t-133.5 107.5q-10 -68 -61 -107.5t-139 -39.5q-99 0 -151 50t-52 140t50 140t145 50q12 0 25 -1t20 -3v768h168v-802q36 -93 113 -151q74 -56 184 -56h8q112 0 162.5 57t50.5 160v792h168v-792q0 -166 -101.5 -259t-279.5 -95zM280 78
q41 0 67.5 24.5t26.5 69.5q0 41 -26.5 66.5t-67.5 25.5q-45 0 -72 -25.5t-27 -66.5q0 -45 27 -69.5t72 -24.5z" />
    <glyph glyph-name="uni0EA2" unicode="&#xea2;" horiz-adv-x="1343" 
d="M126 281q0 49 15.5 88t43 69.5t66.5 53t90 38.5q-51 19 -90 44.5t-66.5 60.5t-43 78t-15.5 98q0 158 85 242t214 84q98 0 151.5 -50.5t53.5 -140.5t-51.5 -139t-145.5 -49q-47 0 -79.5 13t-57.5 34q-4 -17 -4 -37q0 -39 21.5 -70.5t54 -54t91.5 -34.5q50 -11 124 -11h24
v-133q-94 0 -144 -12.5t-88 -37t-57.5 -56t-19.5 -74.5q0 -39 19.5 -70t59.5 -55.5t106.5 -33.5t150.5 -9q92 0 167 14t120 47t67.5 79t22.5 114v1185h168v-1185q0 -97 -33 -165.5t-99.5 -125.5t-181 -78.5t-231.5 -21.5q-115 0 -212 17t-160.5 54t-99.5 94.5t-36 135.5z
M521 946q0 45 -26.5 70.5t-69.5 25.5t-69.5 -25.5t-26.5 -70.5q0 -41 26.5 -66.5t69.5 -25.5t69.5 25.5t26.5 66.5z" />
    <glyph glyph-name="uni0EA3" unicode="&#xea3;" horiz-adv-x="1298" 
d="M411 305q0 43 -26.5 68.5t-69.5 25.5q-41 0 -68.5 -25.5t-27.5 -68.5t27.5 -67.5t68.5 -24.5q43 0 69.5 24.5t26.5 67.5zM643 -20q-99 2 -188 19t-170 55t-127 102.5t-46 148.5v6q0 84 52 134q53 51 153 51q96 0 149.5 -50.5t53.5 -140.5q0 -49 -20.5 -87t-61.5 -68
q41 -17 92 -25t108 -8q93 0 158.5 19.5t105.5 52t59 77.5t19 101q0 69 -47 105t-141 64.5t-247.5 51t-251 62.5t-141.5 97.5t-44 139.5q0 80 37 128t97.5 76.5t138 42t182.5 13.5q77 0 155 -10.5t147.5 -33t132 -54t120.5 -72.5l-90 -121q-52 39 -107 67.5t-115.5 48
t-121 30t-121.5 10.5q-62 0 -113 -8.5t-87 -21.5t-58.5 -36.5t-22.5 -58.5q0 -49 40 -79t128 -51.5t245.5 -46t259 -68.5t151 -107.5t49.5 -176.5q0 -77 -29 -148t-94.5 -122t-158.5 -79.5t-230 -28.5z" />
    <glyph glyph-name="uni0EA5" unicode="&#xea5;" horiz-adv-x="1343" 
d="M399 76q43 0 69.5 25.5t26.5 68.5t-26.5 67.5t-69.5 24.5q-41 0 -68.5 -24.5t-27.5 -67.5t27.5 -68.5t68.5 -25.5zM934 -20q-64 0 -112 32.5t-76.5 86t-51 139.5t-57.5 140t-85 77q-46 20 -126 20h-15q-71 0 -108 -32.5t-37 -94.5q0 -24 4 -37q25 23 58.5 36t80.5 13
q93 0 144 -50t51 -140t-52 -140t-151 -50q-139 0 -219 90t-80 237q0 144 82 224.5t232 80.5q100 0 187 -27.5t136 -84t76 -141.5t41 -143t34 -79q17 -20 40 -20h4q43 0 60.5 27.5t17.5 93.5v440q0 160 -94.5 247t-272.5 87q-170 -2 -274.5 -59.5t-135.5 -198.5l-143 28
q37 205 184.5 285t366.5 80q254 0 395 -126t141 -343v-447q0 -127 -65.5 -189t-179.5 -62z" />
    <glyph glyph-name="uni0EA7" unicode="&#xea7;" horiz-adv-x="1298" 
d="M1134 358q0 -184 -126 -282q-122 -96 -351 -96h-14q-99 2 -188 19t-170 55t-127 102.5t-46 148.5v6q0 84 52 134q53 51 153 51q96 0 149.5 -50.5t53.5 -140.5q0 -49 -20.5 -87t-61.5 -68q41 -17 92 -25t109 -8q159 0 243 61.5t84 188.5v352q0 137 -74.5 215t-250.5 78
q-207 0 -307.5 -69t-129.5 -189l-143 28q31 181 179.5 273t400.5 92q241 0 367 -107.5t126 -308.5v-373zM411 305q0 43 -26.5 68.5t-69.5 25.5q-41 0 -68.5 -25.5t-27.5 -68.5t27.5 -67.5t68.5 -24.5q43 0 69.5 24.5t26.5 67.5z" />
    <glyph glyph-name="uni0EAA" unicode="&#xeaa;" horiz-adv-x="1343" 
d="M399 76q43 0 69.5 25.5t26.5 68.5t-26.5 67.5t-69.5 24.5q-41 0 -68.5 -24.5t-27.5 -67.5t27.5 -68.5t68.5 -25.5zM555 844q116 0 195 25.5t130 64.5q-55 39 -115 60q-56 18 -144 18h-17q-133 -2 -213 -23.5t-80 -64.5q2 -41 63.5 -60.5t180.5 -19.5zM933 -20
q-63 0 -111 32.5t-77 86t-51.5 139.5t-57 140t-84.5 77q-47 20 -127 20h-14q-71 0 -108 -32.5t-37 -94.5q0 -24 4 -37q25 23 58.5 36t80.5 13q92 0 143.5 -50t51.5 -140t-52.5 -140t-150.5 -50q-139 0 -219 90t-80 237q0 144 82 224.5t231 80.5q101 0 188 -27.5t136 -84
t75.5 -141.5t41 -143t34.5 -79q17 -20 39 -20h4q43 0 60.5 27.5t17.5 93.5v440q0 45 -6 81t-29 66q-79 -59 -193 -88.5t-228 -29.5q-224 0 -322 60q-96 59 -96 155v4q0 108 119 166q114 55 333 55h15q125 0 216 -27.5t156 -70.5q17 32 28 67t18 72h167q-14 -68 -37.5 -129.5
t-58.5 -112.5q45 -57 65.5 -124.5t20.5 -143.5v-447q0 -127 -65.5 -189t-180.5 -62z" />
    <glyph glyph-name="uni0EAB" unicode="&#xeab;" horiz-adv-x="1583" 
d="M280 854q41 0 67.5 25.5t26.5 66.5q0 45 -26.5 70.5t-67.5 25.5q-45 0 -72 -25.5t-27 -70.5q0 -41 27 -66.5t72 -25.5zM769 854q8 0 17.5 3t17.5 7v133q0 45 -35 45q-45 0 -70.5 -25.5t-25.5 -70.5q0 -41 25.5 -66.5t70.5 -25.5zM1418 0h-167v774q0 105 -19.5 166
t-66.5 61q-52 0 -104 -40.5t-89 -90.5v-520q0 -178 -107.5 -274t-322.5 -96q-197 2 -311.5 98t-114.5 276q0 111 43 189t89 118.5t67.5 64.5t27.5 46q-28 -14 -73 -14q-95 0 -145 49t-50 139t52 140.5t151 50.5q121 0 177 -66.5t56 -161.5q0 -63 -29.5 -129.5t-82 -135.5
t-81 -140.5t-28.5 -145.5q0 -114 67.5 -177.5t186.5 -63.5h9q142 0 196 63q55 64 55 170v410q-8 -2 -17 -2h-18q-92 0 -148.5 49t-56.5 139t53.5 140.5t149.5 50.5q84 0 130 -34t63 -89q39 43 94 83t131 40q119 0 176 -91.5t57 -271.5v-774z" />
    <glyph glyph-name="uni0EAD" unicode="&#xead;" horiz-adv-x="1298" 
d="M591 711q137 0 226 29.5t136 84.5q-24 78 -92.5 132.5t-230.5 54.5q-156 0 -270.5 -43t-114.5 -113q0 -59 102.5 -102t243.5 -43zM968 674q-68 -47 -160 -73t-217 -26q-229 0 -369.5 79t-140.5 200q0 139 144.5 216t404.5 77q254 0 379 -111.5t125 -304.5v-373
q0 -184 -126 -282q-122 -96 -352 -96h-14q-98 2 -187 19t-170 55t-127 102.5t-46 148.5v6q0 84 51 134q53 51 154 51q96 0 149 -50.5t53 -140.5q0 -49 -20.5 -87t-61.5 -68q41 -17 92.5 -25t108.5 -8q160 0 244 59q84 64 84 191zM411 305q0 43 -27 68.5t-70 25.5
q-40 0 -68 -25.5t-28 -68.5t28 -67.5t68 -24.5q43 0 70 24.5t27 67.5z" />
    <glyph glyph-name="uni0EAE" unicode="&#xeae;" horiz-adv-x="1298" 
d="M643 -20q-99 2 -188 19t-170 55t-127 102.5t-46 148.5v6q0 84 52 134q53 51 153 51q96 0 149.5 -50.5t53.5 -140.5q0 -49 -20.5 -87t-61.5 -68q84 -33 200 -33q93 0 158.5 19.5t105.5 52t59 77.5t19 101q0 67 -49 104t-138 66.5t-251 52t-249 66.5t-136 101.5t-49 151.5
q0 92 68.5 165t195.5 73q98 0 172 -25.5t142.5 -61.5t126 -58.5t100.5 -22.5q55 0 102 48t78 106l125 -78q-55 -99 -125 -155t-172 -58q-76 0 -141.5 23.5t-153.5 64.5t-141 61.5t-113 20.5q-39 0 -64.5 -31t-25.5 -72q0 -47 44 -80.5t135 -62.5t241.5 -51.5t250 -65.5
t151 -107.5t51.5 -183.5q0 -77 -29 -148t-94.5 -122t-158.5 -79.5t-230 -28.5zM315 213q43 0 69.5 24.5t26.5 67.5t-26.5 68.5t-69.5 25.5q-41 0 -68.5 -25.5t-27.5 -68.5t27.5 -67.5t68.5 -24.5z" />
    <glyph glyph-name="uni0EAF" unicode="&#xeaf;" horiz-adv-x="1343" 
d="M521 946q0 45 -26.5 70.5t-69.5 25.5t-69.5 -25.5t-26.5 -70.5q0 -41 26.5 -66.5t69.5 -25.5t69.5 25.5t26.5 66.5zM560 -338l-135 98l580 791q36 47 61 105.5t25 125.5q0 29 -11.5 44.5t-27.5 15.5q-43 0 -100.5 -46t-140.5 -132t-169 -135.5t-170 -49.5
q-147 0 -246.5 90t-99.5 256q0 131 86 221.5t213 90.5q98 0 151.5 -50.5t53.5 -140.5t-51.5 -139t-145.5 -49q-47 0 -79.5 11t-57.5 32v-33q0 -51 42 -102.5t134 -51.5q70 0 140.5 60.5t137 133.5t145.5 121t165 48q94 0 146.5 -56.5t52.5 -146.5q0 -74 -32 -161t-85 -158z
" />
    <glyph glyph-name="uni0EB0" unicode="&#xeb0;" horiz-adv-x="1304" 
d="M1171 461q0 -232 -155.5 -354.5t-425.5 -122.5q-93 0 -170.5 16t-137 52t-100.5 95.5t-43 141.5q0 90 53 140t152 50q96 0 149.5 -50t53.5 -140q0 -47 -20.5 -86t-61.5 -68q30 -8 61 -11t59 -3q205 0 311.5 83t106.5 257h168zM440 289q0 45 -26.5 70.5t-71.5 25.5
q-41 0 -67.5 -25.5t-26.5 -70.5q0 -41 26.5 -66.5t67.5 -25.5q45 0 71.5 25.5t26.5 66.5zM1171 1075q0 -231 -155.5 -354t-425.5 -123q-93 0 -170.5 16.5t-137 52t-100.5 95t-43 141.5q0 90 53 140.5t152 50.5q96 0 149.5 -50.5t53.5 -140.5q0 -47 -20.5 -86t-61.5 -67
q30 -9 61 -12t59 -3q205 0 311.5 83t106.5 257h168zM440 903q0 45 -26.5 70.5t-71.5 25.5q-41 0 -67.5 -25.5t-26.5 -70.5q0 -41 26.5 -66.5t67.5 -25.5q45 0 71.5 25.5t26.5 66.5z" />
    <glyph glyph-name="uni0EB1" unicode="&#xeb1;" 
d="M-123 1724q0 -231 -155.5 -354t-425.5 -123q-93 0 -170.5 16.5t-137 52.5t-100.5 95t-43 141q0 90 53 140.5t152 50.5q96 0 149.5 -50.5t53.5 -140.5q0 -47 -20.5 -86t-61.5 -67q30 -8 61 -11.5t59 -3.5q205 0 311.5 83t106.5 257h168zM-854 1552q0 45 -26.5 71t-71.5 26
q-41 0 -67.5 -26t-26.5 -71q0 -41 26.5 -66.5t67.5 -25.5q45 0 71.5 25.5t26.5 66.5z" />
    <glyph glyph-name="uni0EB2" unicode="&#xeb2;" horiz-adv-x="1036" 
d="M395 821q0 43 -26.5 67.5t-69.5 24.5q-41 0 -67.5 -24.5t-26.5 -67.5t26.5 -68.5t67.5 -25.5q43 0 69.5 25.5t26.5 68.5zM872 0h-168v711q0 153 -61.5 227t-167.5 74q-70 0 -100 -17q57 -18 93 -59t36 -115q0 -90 -53.5 -139t-149.5 -49q-98 0 -152 50q-53 48 -53 132v6
q0 164 110.5 245t264.5 81q184 0 292.5 -109.5t108.5 -326.5v-711z" />
    <glyph glyph-name="uni0EB3" unicode="&#xeb3;" horiz-adv-x="1036" 
d="M395 821q0 43 -26.5 67.5t-69.5 24.5q-41 0 -67.5 -24.5t-26.5 -67.5t26.5 -68.5t67.5 -25.5q43 0 69.5 25.5t26.5 68.5zM873 0h-168v711q0 153 -61.5 227t-168.5 74q-69 0 -100 -17q57 -18 93 -59t36 -115q0 -90 -53.5 -139t-149.5 -49q-98 0 -152 50q-53 48 -53 132v6
q0 164 111 245t264 81q185 0 293.5 -109.5t108.5 -326.5v-711zM-561 1442q0 82 48 127t136 45t136.5 -45t48.5 -127q0 -80 -48.5 -126t-136.5 -46t-136 46t-48 126zM-463 1442q0 -37 24.5 -60.5t63.5 -23.5q35 0 59.5 23.5t24.5 60.5q0 39 -24.5 62.5t-59.5 23.5
q-39 0 -63.5 -23.5t-24.5 -62.5z" />
    <glyph glyph-name="uni0EB4" unicode="&#xeb4;" 
d="M-528 1231v115q120 0 167.5 35.5t47.5 101.5q0 69 -69 123.5t-300 54.5q-190 0 -280.5 -43t-90.5 -135q0 -64 47.5 -100.5t167.5 -36.5v-115q-176 0 -267 61.5t-91 190.5q0 147 130 220t384 73q266 0 389 -77t123 -216q0 -117 -86 -184.5t-272 -67.5z" />
    <glyph glyph-name="uni0EB5" unicode="&#xeb5;" 
d="M-63 1231h-465v115q114 0 164.5 33.5t50.5 103.5q0 80 -83 129t-286 49q-197 0 -284 -45t-87 -133q0 -70 51.5 -103.5t163.5 -33.5v-115q-165 0 -261.5 57.5t-96.5 194.5q0 141 124 217t390 76q264 0 388 -76t124 -217q0 -41 -14.5 -73t-42.5 -64h164v-115z" />
    <glyph glyph-name="uni0EB6" unicode="&#xeb6;" 
d="M-682 1376q-22 0 -41.5 8.5t-34 22.5t-22.5 33.5t-8 42.5q0 20 8 39.5t22.5 34t34 22.5t41.5 8q21 0 40 -8t32.5 -22.5t22.5 -34t9 -39.5q0 -23 -9 -42.5t-22.5 -33.5t-32.5 -22.5t-40 -8.5zM-528 1231v115q114 0 164.5 33.5t50.5 103.5q0 80 -81 129t-288 49
q-192 0 -281.5 -44t-89.5 -134q0 -70 51.5 -103.5t163.5 -33.5v-115q-172 0 -265 60.5t-93 191.5q0 139 123 216t391 77t390 -77t122 -216q0 -125 -93 -188.5t-265 -63.5z" />
    <glyph glyph-name="uni0EB7" unicode="&#xeb7;" 
d="M-63 1231h-465v115q108 0 161.5 31.5t53.5 105.5q0 84 -83 131t-286 47q-201 0 -286 -46t-85 -132q0 -74 53.5 -105.5t161.5 -31.5v-115q-165 0 -261.5 57.5t-96.5 194.5q0 151 133 222t381 71q254 0 383 -73t129 -220q0 -41 -14.5 -73t-42.5 -64h164v-115zM-682 1376
q-22 0 -41.5 8.5t-34 22.5t-22.5 33.5t-8 42.5q0 20 8 39.5t22.5 34t34 22.5t41.5 8q21 0 40 -8t32.5 -22.5t22.5 -34t9 -39.5q0 -23 -9 -42.5t-22.5 -33.5t-32.5 -22.5t-40 -8.5z" />
    <glyph glyph-name="uni0EB8" unicode="&#xeb8;" 
d="M-598 -317q37 0 59.5 20.5t22.5 56.5q0 37 -22.5 58.5t-59.5 21.5t-59.5 -21.5t-22.5 -58.5q0 -36 22.5 -56.5t59.5 -20.5zM-584 -627l-38 115q67 16 101 49t34 80q0 4 -2 18q-21 -16 -48.5 -26t-68.5 -10q-78 0 -122 42t-44 119q0 76 45 119t129 43q111 0 182.5 -64.5
t71.5 -193.5q0 -100 -54.5 -177t-185.5 -114z" />
    <glyph glyph-name="uni0EB9" unicode="&#xeb9;" 
d="M-581 -607q-129 0 -200.5 35t-71.5 115q0 18 16.5 38.5t42.5 39.5q-8 -2 -12 -2q-45 8 -85 46t-40 115q0 76 45 119t127 43q96 0 140 -49t44 -137q0 -37 -20.5 -66.5t-50 -53.5t-48 -45.5t-18.5 -39.5t30 -29.5t101 -11.5q66 0 96.5 12.5t30.5 34.5v359h144v-359
q0 -96 -80 -130t-191 -34zM-757 -297q35 0 57.5 20.5t22.5 56.5q0 37 -22.5 58.5t-57.5 21.5q-37 0 -59.5 -21.5t-22.5 -58.5q0 -36 22.5 -56.5t59.5 -20.5z" />
    <glyph glyph-name="uni0EBB" unicode="&#xebb;" 
d="M-123 1276h-168q0 174 -106.5 257t-311.5 83q-28 0 -59 -3t-61 -11q41 -29 61.5 -68t20.5 -86q0 -90 -53.5 -140.5t-149.5 -50.5q-99 0 -152 50.5t-53 140.5q2 82 43 141.5t100.5 95t137 51t170.5 15.5q270 0 425.5 -122t155.5 -353zM-952 1352q45 0 71.5 25.5t26.5 70.5
q0 41 -26.5 65.5t-71.5 24.5q-41 0 -67.5 -24.5t-26.5 -65.5q0 -45 26.5 -70.5t67.5 -25.5z" />
    <glyph glyph-name="uni0EBC" unicode="&#xebc;" 
d="M-333 -500q-101 0 -173.5 37t-136 98.5t-122 101.5t-123.5 40q-21 0 -41 -6q41 -29 57.5 -63t16.5 -81q0 -90 -53.5 -140t-151.5 -50q-99 0 -152 50t-53 140q0 72 25.5 126t75 90t112.5 52.5t139 16.5q92 0 179 -33t154 -104.5t126 -104t121 -32.5q59 0 106 38.5
t80 106.5l129 -70q-57 -102 -140 -157.5t-175 -55.5zM-1062 -469q45 0 71.5 25.5t26.5 70.5q0 41 -26.5 66.5t-71.5 25.5q-41 0 -67.5 -25.5t-26.5 -66.5q0 -45 26.5 -70.5t67.5 -25.5z" />
    <glyph glyph-name="uni0EBD" unicode="&#xebd;" horiz-adv-x="1208" 
d="M563 -479q-99 0 -172.5 17.5t-155.5 55t-127 103t-47 147.5q0 90 53 140.5t152 50.5q98 0 150.5 -50.5t52.5 -140.5q0 -47 -20.5 -86t-61.5 -67q84 -35 170 -35q153 0 231 85t78 267v318q0 73 -74 150t-256 150.5t-265 150.5t-83 161q0 94 54.5 151.5t170.5 57.5
q64 0 116 -27.5t102.5 -81t87 -77t75.5 -23.5q53 0 100.5 48t79.5 108l123 -78q-53 -101 -123.5 -157t-171.5 -56q-49 0 -102 20.5t-113.5 76.5t-98.5 84t-56 28q-39 0 -54.5 -15.5t-15.5 -58.5q0 -37 61.5 -87t256 -131t274.5 -181.5t80 -219.5v-321q0 -240 -124 -359
q-122 -118 -340 -118h-7zM264 -248q45 0 71.5 25.5t26.5 66.5q0 45 -26.5 71t-71.5 26q-41 0 -67.5 -26t-26.5 -71q0 -41 26.5 -66.5t67.5 -25.5z" />
    <glyph glyph-name="uni0EC0" unicode="&#xec0;" horiz-adv-x="653" 
d="M387 78q43 0 69.5 24.5t26.5 69.5q0 41 -26.5 66.5t-69.5 25.5q-41 0 -67.5 -25.5t-26.5 -66.5q0 -45 26.5 -69.5t67.5 -24.5zM389 -18q-99 0 -152 50t-53 140v748q0 116 67.5 171.5t178.5 55.5q30 0 61 -7t62 -24l-58 -125q-14 10 -30.5 15.5t-34.5 5.5
q-39 0 -58.5 -22.5t-19.5 -67.5v-564q4 2 18.5 3t26.5 1q92 0 143.5 -50t51.5 -140t-53.5 -140t-149.5 -50z" />
    <glyph glyph-name="uni0EC1" unicode="&#xec1;" horiz-adv-x="1204" 
d="M938 78q43 0 69.5 24.5t26.5 69.5q0 41 -26.5 66.5t-69.5 25.5q-41 0 -68 -25.5t-27 -66.5q0 -45 27 -69.5t68 -24.5zM940 -18q-99 0 -152 50t-53 140v748q0 116 67.5 171.5t178.5 55.5q30 0 61 -7t62 -24l-58 -125q-14 10 -30.5 15.5t-34.5 5.5q-39 0 -58.5 -22.5
t-19.5 -67.5v-564q4 2 18.5 3t26.5 1q92 0 143 -50t51 -140t-53 -140t-149 -50zM387 78q43 0 69.5 24.5t26.5 69.5q0 41 -26.5 66.5t-69.5 25.5q-41 0 -67.5 -25.5t-26.5 -66.5q0 -45 26.5 -69.5t67.5 -24.5zM389 -18q-99 0 -152 50t-53 140v748q0 116 67.5 171.5
t178.5 55.5q30 0 61 -7t62 -24l-58 -125q-14 10 -30.5 15.5t-34.5 5.5q-39 0 -58.5 -22.5t-19.5 -67.5v-564q4 2 18.5 3t26.5 1q92 0 143.5 -50t51.5 -140t-53.5 -140t-149.5 -50z" />
    <glyph glyph-name="uni0EC2" unicode="&#xec2;" horiz-adv-x="851" 
d="M555 78q43 0 69.5 24.5t26.5 69.5q0 41 -26.5 66.5t-69.5 25.5t-69.5 -25.5t-26.5 -66.5q0 -45 26.5 -69.5t69.5 -24.5zM555 -18q-98 0 -151.5 50t-53.5 140v627q0 67 18.5 115.5t51.5 78.5q-64 60 -151 153t-163.5 210t-113.5 194.5t-37 128.5q0 90 51 123t127 33
q82 0 161 -67.5t170 -195.5t175 -222.5t156 -137.5l-113 -118q-78 61 -162 152t-182 229.5t-141 182.5t-58 44q-6 0 -11 -5t-5 -11q0 -33 34 -100.5t111.5 -176.5t159.5 -202t170 -175q-37 -51 -58.5 -109.5t-21.5 -121.5v-443q6 2 20.5 3t24.5 1q94 0 145.5 -50t51.5 -140
t-53.5 -140t-151.5 -50z" />
    <glyph glyph-name="uni0EC3" unicode="&#xec3;" horiz-adv-x="970" 
d="M673 78q45 0 71 24.5t26 69.5q0 41 -26 66.5t-71 25.5q-41 0 -67.5 -25.5t-26.5 -66.5q0 -45 26.5 -69.5t67.5 -24.5zM675 -18q-98 0 -151 50t-53 140v748q0 104 39.5 186t107.5 142.5t104.5 117.5t36.5 125q0 100 -78.5 150.5t-216.5 50.5q-112 0 -193 -44t-81 -143
q0 -94 59.5 -138t173.5 -44v-135q-194 0 -297.5 89t-103.5 224q0 164 133 245t313 81q234 0 349.5 -99.5t115.5 -236.5q0 -70 -37.5 -138.5t-111.5 -142t-110 -132t-36 -156.5v-564q5 2 19 3t27 1q92 0 143 -50t51 -140t-53 -140t-150 -50z" />
    <glyph glyph-name="uni0EC4" unicode="&#xec4;" horiz-adv-x="970" 
d="M675 -18q-98 0 -151.5 50t-53.5 140v670q0 61 19.5 108t46.5 77t59.5 51.5t84 51t81 51t29.5 31.5q0 7 -4 15t-17 8h-2q-25 0 -100 -41q-78 -43 -139 -43q-37 0 -69 23.5t-50 85.5q-45 133 -128 253.5t-214 223.5l117 104q131 -110 222 -237t148 -271q17 -45 54 -45
q20 0 43.5 12.5t42 19.5t44 15t52.5 8q37 0 61.5 -8t41 -24.5t25.5 -36t9 -41.5q0 -35 -17.5 -66.5t-51 -61.5t-73.5 -53.5t-73 -52t-53.5 -69.5t-20.5 -88v-484q4 2 18.5 3t26.5 1q93 0 144 -50t51 -140t-53 -140t-150 -50zM673 78q45 0 70.5 24.5t25.5 69.5
q0 41 -25.5 66.5t-70.5 25.5q-41 0 -67.5 -25.5t-26.5 -66.5q0 -45 26.5 -69.5t67.5 -24.5z" />
    <glyph glyph-name="uni0EC6" unicode="&#xec6;" horiz-adv-x="1333" 
d="M1169 -61q0 -201 -126 -308.5t-368 -107.5q-178 0 -313.5 64.5t-165.5 240.5l143 29q25 -111 114 -155t222 -44q178 0 252 78t74 215v817q0 59 -5.5 104.5t-14.5 76t-26.5 47t-41.5 16.5q-35 0 -56.5 -22.5t-34 -52.5t-21.5 -61.5t-25.5 -61.5t-42 -51.5t-66.5 -21.5
q-43 0 -68.5 21.5t-42 51.5t-26 61.5t-21.5 61.5t-33.5 52.5t-56.5 22.5q-23 0 -40 -16.5t-27.5 -47t-15.5 -76t-5 -104.5v-49q6 2 19.5 3t25.5 1q92 0 143.5 -50t51.5 -141q0 -90 -52.5 -140t-150.5 -50q-99 0 -152 50t-53 140v236q0 121 23.5 195.5t59.5 113.5t80 54.5
t95 15.5q102 0 160.5 -71.5t85.5 -196.5q24 125 82.5 196.5t161.5 71.5q51 0 95 -15.5t79.5 -54.5t59.5 -113.5t24 -195.5v-829zM464 532q0 41 -26.5 67t-71.5 26q-41 0 -67.5 -26t-26.5 -67q0 -45 26.5 -70.5t67.5 -25.5q45 0 71.5 25.5t26.5 70.5z" />
    <glyph glyph-name="uni0EC8" unicode="&#xec8;" 
d="M-733 2122h143v-357h-143v357z" />
    <glyph glyph-name="uni0EC9" unicode="&#xec9;" 
d="M-966 2091q0 -29 18.5 -47.5t50.5 -18.5q31 0 49.5 18.5t18.5 47.5q0 33 -18.5 51.5t-49.5 18.5q-32 0 -50.5 -18.5t-18.5 -51.5zM-872 1958q-4 0 -14.5 -1t-18.5 -1q-65 0 -102 36t-37 99q0 66 38 101.5t107 35.5q72 0 110 -35.5t38 -101.5v-72q0 -108 -80 -155
q262 0 369.5 86t107.5 248h141q0 -183 -135 -316t-479 -133h-188v115q143 47 143 94z" />
    <glyph glyph-name="uni0ECA" unicode="&#xeca;" 
d="M-913 1765q-90 0 -159.5 66.5t-69.5 169.5q0 108 64.5 171.5t177.5 63.5q41 0 111.5 -59t107.5 -59q33 2 92 60t121 58q90 0 137 -52t47 -130q0 -45 -36 -82t-99 -71q125 0 175 35.5t54 103.5h142q-2 -107 -83 -180.5t-284 -73.5h-168v115q82 22 130 62t48 89
q0 37 -16 53.5t-47 16.5q-21 0 -78 -59.5t-135 -59.5q-88 0 -144.5 59.5t-74.5 59.5q-52 0 -76.5 -31t-24.5 -90q0 -62 26 -92.5t73 -38.5q-7 18 -7 28q3 78 85 78h4q88 0 88 -82q0 -51 -45.5 -90t-135.5 -39z" />
    <glyph glyph-name="uni0ECB" unicode="&#xecb;" 
d="M-925 1944v143h197v194h141v-194h197v-143h-197v-195h-141v195h-197z" />
    <glyph glyph-name="uni0ECC" unicode="&#xecc;" 
d="M-378 1901q-86 0 -147.5 30.5t-116 81.5t-103.5 86t-107 35q-16 0 -32 -4q35 -27 48 -54.5t13 -70.5q0 -76 -45 -118t-127 -42q-84 0 -130 43q-44 41 -44 111v6q0 61 21.5 107.5t62.5 78t95.5 45t117.5 13.5q80 0 153.5 -28t130 -89t107.5 -89t103 -28q51 0 90 34t69 89
l109 -57q-47 -88 -119 -134t-149 -46zM-997 1925q37 0 59.5 21.5t22.5 58.5t-22.5 58.5t-59.5 21.5q-35 0 -57.5 -21.5t-22.5 -58.5t22.5 -58.5t57.5 -21.5z" />
    <glyph glyph-name="uni0ECD" unicode="&#xecd;" 
d="M-841 1442q0 82 48 127t136 45t136.5 -45t48.5 -127q0 -80 -48.5 -126t-136.5 -46t-136 46t-48 126zM-743 1442q0 -37 24.5 -60.5t63.5 -23.5q35 0 59.5 23.5t24.5 60.5q0 39 -24.5 62.5t-59.5 23.5q-39 0 -63.5 -23.5t-24.5 -62.5z" />
    <glyph glyph-name="uni0ED0" unicode="&#xed0;" horiz-adv-x="1359" 
d="M680 133h6q145 0 259 100q116 101 116 312t-116 312q-114 99 -259 99h-6q-152 0 -266.5 -100t-114.5 -311t114.5 -311.5t266.5 -100.5zM680 0q-230 0 -387.5 140.5t-157.5 404.5q0 266 157.5 405.5t387.5 139.5q229 0 387 -139.5t158 -405.5q0 -264 -158 -404.5
t-387 -140.5z" />
    <glyph glyph-name="uni0ED1" unicode="&#xed1;" horiz-adv-x="1359" 
d="M655 496q41 0 68.5 24.5t27.5 67.5t-27.5 68.5t-68.5 25.5q-43 0 -70 -25.5t-27 -68.5t27 -67.5t70 -24.5zM468 305q-141 0 -245.5 96.5t-104.5 262.5q0 243 150.5 363t365.5 120q272 -2 437 -140q163 -137 163 -401v-6q0 -258 -149.5 -436t-415.5 -287l-74 123
q240 88 356.5 238.5t116.5 361.5q0 207 -116.5 309.5t-317.5 102.5q-166 -2 -258 -87t-94 -257q0 -136 58.5 -184t127.5 -48q41 0 58 10q-41 29 -58.5 61t-17.5 81q0 90 53 139t150 49q100 0 153 -50q51 -48 51 -132v-6q0 -137 -103.5 -210t-285.5 -73z" />
    <glyph glyph-name="uni0ED2" unicode="&#xed2;" horiz-adv-x="1298" 
d="M958 213q41 0 68.5 24.5t27.5 67.5t-27.5 68.5t-68.5 25.5q-43 0 -70 -25.5t-27 -68.5t27 -67.5t70 -24.5zM661 -20q-238 0 -390.5 119.5t-152.5 338.5q0 195 128 327t341 229.5t317.5 216t104.5 245.5h168q0 -170 -107.5 -308t-335 -240.5t-338 -219.5t-110.5 -246
q0 -151 100.5 -239t278.5 -90h20q45 0 81 7q44 9 91 27q-45 21 -74.5 63t-29.5 95q0 90 53 140.5t150 50.5q100 0 153 -51q51 -50 51 -134v-6q0 -82 -34.5 -139t-93 -102.5t-161 -64.5t-210.5 -19z" />
    <glyph glyph-name="uni0ED3" unicode="&#xed3;" horiz-adv-x="1359" 
d="M280 78q41 0 67.5 24.5t26.5 69.5q0 41 -26.5 66.5t-67.5 25.5q-45 0 -72 -25.5t-27 -66.5q0 -45 27 -69.5t72 -24.5zM808 -20q-98 0 -186 41.5t-144 107.5q-10 -70 -61 -108.5t-139 -38.5q-99 0 -151 50t-52 140t50 140t145 50q12 0 29.5 -1t21.5 -3v603h162v-637
q36 -93 123 -153q84 -58 195 -58h7q113 0 169 59t56 162v497q0 74 -51 137.5t-282.5 145.5t-301 161t-69.5 171t53 149.5t172 57.5q53 0 114.5 -23.5t156 -104.5t147.5 -108.5t84 -27.5l8 -138q-41 0 -106.5 24.5t-126 74t-145.5 111t-113 61.5q-39 0 -57.5 -17.5
t-18.5 -58.5t49 -92t275.5 -132t300 -177.5t73.5 -219.5v-491q0 -166 -104.5 -259t-282.5 -95z" />
    <glyph glyph-name="uni0ED4" unicode="&#xed4;" horiz-adv-x="1359" 
d="M1049 -20q-56 0 -99 31.5t-71 101.5q-84 -60 -174.5 -96.5t-184.5 -36.5q-196 0 -293.5 122.5t-97.5 366.5q0 182 116.5 311t360.5 229.5t324 211t80 235.5h168v-6q0 -176 -112 -307q-114 -133 -354.5 -234.5t-327.5 -205t-87 -232.5q0 -195 58.5 -274.5t164.5 -79.5
q84 0 166 31.5t156 78.5q-17 72 -23 157t-6 181q0 84 55.5 137.5t149.5 53.5q96 0 149.5 -50.5t53.5 -140.5q0 -92 -51.5 -141t-143.5 -49q-12 0 -29.5 1t-21.5 3q0 -25 1 -51.5t3 -55.5q16 4 33.5 6.5t34.5 2.5q81 0 122 -39t41 -107q0 -72 -42 -112.5t-119 -42.5zM1047 76
q30 0 43.5 14t13.5 39t-13.5 39t-43.5 14q-13 0 -27 -4t-31 -10q8 -43 22.5 -67.5t35.5 -24.5zM1016 473q45 0 70.5 24.5t25.5 67.5t-25.5 68.5t-70.5 25.5q-41 0 -67.5 -25.5t-26.5 -68.5t26.5 -67.5t67.5 -24.5z" />
    <glyph glyph-name="uni0ED5" unicode="&#xed5;" horiz-adv-x="1359" 
d="M1049 -20q-56 0 -99 31.5t-71 101.5q-84 -60 -174.5 -96.5t-184.5 -36.5q-196 0 -293.5 122.5t-97.5 366.5q0 84 24.5 154.5t78 137t137.5 124t194 106.5q-49 17 -80.5 56.5t-31.5 107.5q0 82 47 127t135 45q90 0 137 -45t47 -127v-20q31 18 61.5 39.5t60.5 57.5t49.5 95
t21.5 129h168q0 -92 -27 -171t-87.5 -144.5t-139 -107.5t-181.5 -52q-49 -55 -157.5 -117.5t-172 -128t-90 -127t-26.5 -137.5q2 -203 59.5 -278.5t163.5 -75.5q84 0 166 31.5t156 78.5q-17 72 -23 157t-6 181q0 84 55.5 137.5t149.5 53.5q96 0 149.5 -50.5t53.5 -140.5
q0 -92 -51.5 -141t-143.5 -49q-12 0 -29.5 1t-21.5 3q0 -25 1 -51.5t3 -55.5q16 4 33.5 6.5t34.5 2.5q81 0 122 -39t41 -107q0 -72 -42 -112.5t-119 -42.5zM1047 76q30 0 43.5 14t13.5 39t-13.5 39t-43.5 14q-13 0 -27 -4t-31 -10q8 -43 22.5 -67.5t35.5 -24.5zM1016 473
q45 0 70.5 24.5t25.5 67.5t-25.5 68.5t-70.5 25.5q-41 0 -67.5 -25.5t-26.5 -68.5t26.5 -67.5t67.5 -24.5zM635 1071q37 0 61.5 23.5t24.5 60.5q0 39 -24.5 62.5t-61.5 23.5q-39 0 -62.5 -23.5t-23.5 -62.5q0 -37 23.5 -60.5t62.5 -23.5z" />
    <glyph glyph-name="uni0ED6" unicode="&#xed6;" horiz-adv-x="1359" 
d="M1195 825v-526q0 -162 -73.5 -240.5t-217.5 -78.5q-65 0 -122.5 27.5t-102.5 88.5q-39 -53 -93 -84.5t-132 -31.5q-135 0 -213 74.5t-78 244.5l2 578q0 90 52 140t153 50q96 0 149.5 -50t53.5 -140q0 -93 -51.5 -142t-143.5 -49q-12 0 -29.5 1t-23.5 3v-391
q0 -111 35 -149q32 -37 88 -37h6q61 0 102 35.5t41 150.5v160h164l-2 -160q0 -104 37 -146q35 -40 102 -40h6q62 0 95.5 41t33.5 145v532q0 74 -51 137.5t-282.5 145.5t-301 161t-69.5 171t53 149.5t172 57.5q53 0 114.5 -23.5t156 -104.5t147.5 -108.5t84 -27.5l8 -138
q-41 0 -106.5 24.5t-126 74t-145.5 111t-113 61.5q-39 0 -57.5 -17.5t-18.5 -58.5t49 -92t275.5 -132t300 -177.5t73.5 -219.5zM464 877q0 43 -26.5 68.5t-69.5 25.5q-41 0 -68.5 -25.5t-27.5 -68.5t27.5 -68t68.5 -25q43 0 69.5 25t26.5 68z" />
    <glyph glyph-name="uni0ED7" unicode="&#xed7;" horiz-adv-x="1359" 
d="M315 862v135q0 21 -8.5 33t-26.5 12q-45 0 -72 -25.5t-27 -70.5q0 -41 27 -66.5t72 -25.5q8 0 17 3t18 5zM1195 -410h-168v1184q0 62 -13 105t-40 74.5t-69 45t-105 13.5q-80 0 -144.5 -35t-172.5 -129v-676q0 -90 -53.5 -140t-151.5 -50q-99 0 -151 50t-52 140t50 140
t145 50q12 0 25 -1t20 -3v402q-9 0 -18 -1t-17 -1q-94 0 -149.5 49t-55.5 139t52 140.5t151 50.5q94 0 141 -42t57 -112q91 84 170 125q74 39 165 39h9q93 0 159.5 -21.5t118.5 -69.5t74.5 -121t22.5 -161v-1184zM181 172q0 -45 27 -69.5t72 -24.5q41 0 67.5 24.5t26.5 69.5
q0 41 -26.5 66.5t-67.5 25.5q-45 0 -72 -25.5t-27 -66.5z" />
    <glyph glyph-name="uni0ED8" unicode="&#xed8;" horiz-adv-x="1359" 
d="M1078 -307q46 0 72.5 25.5t26.5 68.5t-26.5 67.5t-72.5 24.5q-43 0 -69.5 -24.5t-26.5 -67.5t26.5 -68.5t69.5 -25.5zM528 -492q-70 0 -110 45.5t-40 96.5q0 84 80 143l516 402v573q0 68 -7 116t-21.5 75.5t-34 42t-43.5 14.5q-25 0 -42.5 -14.5t-29.5 -35t-23.5 -46
t-28 -47t-42 -35t-58.5 -13.5q-35 0 -61.5 15.5t-42 37t-24.5 42t-22.5 41t-30.5 38t-40 17.5q-31 -2 -48 -18.5t-27.5 -48t-16.5 -78t-6 -103.5v-299q4 0 21.5 1t29.5 1q92 0 143.5 -49t51.5 -139t-52.5 -140.5t-150.5 -50.5q-99 0 -152 50.5t-53 140.5v485
q0 113 19.5 185.5t57.5 114.5t80 60.5t105 18.5q80 0 134.5 -48t84.5 -141q37 91 91.5 140t129.5 49q70 0 112 -20.5t83 -62.5t58.5 -121t17.5 -175v-449l53 39l61 -82l-114 -88v-77q0 -27 -12.5 -61t-38.5 -73q88 -2 143 -51t55 -139t-53 -145.5t-152 -55.5
q-79 0 -131.5 39t-66.5 105l-240 -187q-43 -35 -112 -35zM546 -385q16 0 35 14l287 224q53 41 79.5 78.5t26.5 74.5v57l-459 -356q-20 -16 -20 -43q0 -24 14 -36.5t37 -12.5zM366 186q45 0 71.5 26t26.5 71q0 41 -26.5 66.5t-71.5 25.5q-41 0 -67.5 -25.5t-26.5 -66.5
q0 -45 26.5 -71t67.5 -26z" />
    <glyph glyph-name="uni0ED9" unicode="&#xed9;" horiz-adv-x="1359" 
d="M350 76q43 0 69.5 25.5t26.5 68.5t-26.5 67.5t-69.5 24.5q-41 0 -67.5 -24.5t-26.5 -67.5t26.5 -68.5t67.5 -25.5zM935 -20q-133 0 -206.5 69.5t-73.5 212.5v561q0 97 -43 146t-131 49q-90 0 -132 -52.5t-42 -148.5v-461q6 2 23.5 3t29.5 1q92 0 143.5 -50t51.5 -140
t-53.5 -140t-149.5 -50q-99 0 -152 50t-53 140v647q0 146 87 233t247 87q176 0 256 -93.5t80 -220.5v-561q0 -76 28.5 -111.5t89.5 -37.5h6q56 0 83 34q28 35 28 115v864h160v-864q0 -119 -66.5 -199.5t-210.5 -82.5z" />
    <glyph glyph-name="uni0EDC" unicode="&#xedc;" horiz-adv-x="2070" 
d="M280 854q41 0 67.5 25.5t26.5 66.5q0 45 -26.5 70.5t-67.5 25.5q-45 0 -72 -25.5t-27 -70.5q0 -41 27 -66.5t72 -25.5zM769 854q8 0 17.5 3t17.5 7v133q0 45 -35 45q-45 0 -70.5 -25.5t-25.5 -70.5q0 -41 25.5 -66.5t70.5 -25.5zM1623 -20q-71 0 -130.5 56t-108.5 136
q-37 -90 -110 -141t-191 -51h-52v135h52q100 0 134 58t34 161v440q0 105 -19.5 166t-66.5 61q-52 0 -104 -40.5t-89 -90.5v-520q0 -178 -107.5 -274t-322.5 -96q-197 2 -311.5 98t-114.5 276q0 111 43 189t89 118.5t67.5 64.5t27.5 46q-28 -14 -73 -14q-95 0 -145 49
t-50 139t52 140.5t151 50.5q121 0 177 -66.5t56 -161.5q0 -63 -29.5 -129.5t-82 -135.5t-81 -140.5t-28.5 -145.5q0 -114 67.5 -177.5t186.5 -63.5h9q142 0 196 63q55 64 55 170v410q-8 -2 -17 -2h-18q-92 0 -148.5 49t-56.5 139t53.5 140.5t149.5 50.5q84 0 130 -34t63 -89
q39 43 94 83t131 40q119 0 176 -91.5t57 -271.5v-450q46 -107 97 -157t108 -50q60 0 87.5 54t27.5 163v792h168v-792q0 -148 -58.5 -251t-224.5 -103z" />
    <glyph glyph-name="uni0EDD" unicode="&#xedd;" horiz-adv-x="2070" 
d="M280 854q41 0 67.5 25.5t26.5 66.5q0 45 -26.5 70.5t-67.5 25.5q-45 0 -72 -25.5t-27 -70.5q0 -41 27 -66.5t72 -25.5zM769 854q8 0 17.5 3t17.5 7v133q0 45 -35 45q-45 0 -70.5 -25.5t-25.5 -70.5q0 -41 25.5 -66.5t70.5 -25.5zM1623 -20q-53 0 -105 39.5t-102 109.5
q-12 -70 -63 -108.5t-139 -38.5q-97 0 -150 50t-53 140t51 140t143 50q13 0 27 -1t19 -3v416q0 105 -19.5 166t-66.5 61q-52 0 -104 -40.5t-89 -90.5v-520q0 -178 -107.5 -274t-322.5 -96q-197 2 -311.5 98t-114.5 276q0 111 43 189t89 118.5t67.5 64.5t27.5 46
q-28 -14 -73 -14q-95 0 -145 49t-50 139t52 140.5t151 50.5q121 0 177 -66.5t56 -161.5q0 -63 -29.5 -129.5t-82 -135.5t-81 -140.5t-28.5 -145.5q0 -114 67.5 -177.5t186.5 -63.5h9q142 0 196 63q55 64 55 170v410q-8 -2 -17 -2h-18q-92 0 -148.5 49t-56.5 139t53.5 140.5
t149.5 50.5q84 0 130 -34t63 -89q39 43 94 83t131 40q119 0 176 -91.5t57 -271.5v-450q46 -107 97 -157t108 -50q60 0 87.5 54t27.5 163v792h168v-792q0 -148 -58.5 -251t-224.5 -103zM1216 78q41 0 68.5 24.5t27.5 69.5q0 41 -27.5 66.5t-68.5 25.5q-43 0 -70 -25.5
t-27 -66.5q0 -45 27 -69.5t70 -24.5z" />
    <glyph glyph-name="glyph101" 
d="M-733 1672h143v-357h-143v357z" />
    <glyph glyph-name="glyph102" 
d="M-966 1611q0 -29 18.5 -47.5t50.5 -18.5q31 0 49.5 18.5t18.5 47.5q0 33 -18.5 51.5t-49.5 18.5q-32 0 -50.5 -18.5t-18.5 -51.5zM-872 1478q-4 0 -14.5 -1t-18.5 -1q-65 0 -102 36t-37 99q0 66 38 101.5t107 35.5q72 0 110 -35.5t38 -101.5v-72q0 -108 -80 -155
q262 0 369.5 86t107.5 248h141q0 -183 -135 -316t-479 -133h-188v115q143 47 143 94z" />
    <glyph glyph-name="glyph103" 
d="M-913 1265q-90 0 -159.5 66.5t-69.5 169.5q0 108 64.5 171.5t177.5 63.5q41 0 111.5 -59t107.5 -59q33 2 92 60t121 58q90 0 137 -52t47 -130q0 -45 -36 -82t-99 -71q125 0 175 35.5t54 103.5h142q-2 -107 -83 -180.5t-284 -73.5h-168v115q82 22 130 62t48 89
q0 37 -16 53.5t-47 16.5q-21 0 -78 -59.5t-135 -59.5q-88 0 -144.5 59.5t-74.5 59.5q-52 0 -76.5 -31t-24.5 -90q0 -62 26 -92.5t73 -38.5q-7 18 -7 28q3 78 85 78h4q88 0 88 -82q0 -51 -45.5 -90t-135.5 -39z" />
    <glyph glyph-name="glyph104" 
d="M-925 1444v143h197v194h141v-194h197v-143h-197v-195h-141v195h-197z" />
    <glyph glyph-name="glyph105" 
d="M-378 1341q-86 0 -147.5 30.5t-116 81.5t-103.5 86t-107 35q-16 0 -32 -4q35 -27 48 -54.5t13 -70.5q0 -76 -45 -118t-127 -42q-84 0 -130 43q-44 41 -44 111v6q0 61 21.5 107.5t62.5 78t95.5 45t117.5 13.5q80 0 153.5 -28t130 -89t107.5 -89t103 -28q51 0 90 34t69 89
l109 -57q-47 -88 -119 -134t-149 -46zM-997 1365q37 0 59.5 21.5t22.5 58.5t-22.5 58.5t-59.5 21.5q-35 0 -57.5 -21.5t-22.5 -58.5t22.5 -58.5t57.5 -21.5z" />
  </font>
</defs>
</svg>
