<svg width="60" height="60" viewBox="0 0 60 60" fill="none" xmlns="http://www.w3.org/2000/svg">
<path d="M51.3069 17.993C50.8585 7.38644 35.7519 7.39458 35.3075 17.993C30.8603 18.0067 29.6986 21.536 30.0113 24.3099C30.2068 25.1019 30.6464 25.1115 31.5407 25.1224C33.0619 25.2264 35.8864 24.427 36.588 22.3262C37.0525 23.0451 37.6262 23.686 38.29 24.2222C37.542 24.1879 36.772 24.2382 36.1605 24.7162C33.8604 26.3651 31.0289 27.4391 28.223 27.6902C25.421 27.4408 22.573 26.3659 20.2777 24.717C19.6667 24.2486 18.8906 24.1926 18.1465 24.2222C23.961 19.5738 20.6666 10.0075 13.1291 10C5.59171 10.0077 2.29749 19.5752 8.112 24.2222H6.90703C4.97306 24.2146 3.33298 25.8374 3.35147 27.7778V34.8889C3.35147 35.8689 4.14922 36.6667 5.12925 36.6667H6.90703V38.4444C6.90703 39.0993 7.26722 39.6664 7.79592 39.9748V47.3333C7.79592 48.8038 8.9921 50 10.4626 50H15.7959C17.2664 50 18.4626 48.8038 18.4626 47.3333V39.9748C18.9913 39.6664 19.3515 39.0993 19.3515 38.4444V30.4054C22.6823 32.2585 26.4451 33.1683 30.2378 33.1111C30.9019 33.1 31.5327 32.8429 32.0232 32.4127C33.7939 31.9787 35.4678 31.2945 37.085 30.4054V38.4444C37.085 39.0993 37.4452 39.6664 37.9739 39.9748V47.3333C37.9739 48.8038 39.17 50 40.6405 50H45.9739C47.4444 50 48.6405 48.8038 48.6405 47.3333V39.9748C49.1692 39.6664 49.5294 39.0993 49.5294 38.4444V36.6667H51.3072C52.2872 36.6667 53.085 35.8689 53.085 34.8889V27.7778C53.103 25.8108 51.4527 24.2094 49.5294 24.2222H48.3245C48.9883 23.6859 49.5619 23.0451 50.0264 22.3262C50.7296 24.4278 53.5517 25.2263 55.0737 25.1222C55.9676 25.1131 56.4087 25.1012 56.6033 24.3099C56.9043 21.5063 55.769 18.0236 51.3069 17.993ZM34.4253 22.4392C33.7438 23.1215 32.5815 23.3164 31.7534 23.3437C31.7617 21.0376 33.0261 19.7754 35.3289 19.7674C35.302 20.5963 35.1076 21.7578 34.4253 22.4392ZM6.90704 18C6.90704 14.569 9.6987 11.7778 13.1293 11.7778C21.3725 12.0908 21.3703 23.9104 13.1292 24.2222C9.69871 24.2222 6.90704 21.431 6.90704 18ZM16.6848 47.3333C16.6848 47.8238 16.2864 48.2222 15.7959 48.2222H14.907V43.7778C14.907 43.2865 14.5095 42.8889 14.0181 42.8889C13.5268 42.8889 13.1293 43.2865 13.1293 43.7778V48.2222H10.4626C9.97214 48.2222 9.5737 47.8238 9.5737 47.3333V40.2222H16.6848V47.3333ZM31.0069 30.9392C30.7275 31.3015 30.2657 31.3674 29.8402 31.3333C25.9719 31.3329 22.2128 30.2197 18.947 28.0903C18.3864 27.6991 17.551 28.1527 17.5737 28.8359V38.4444H8.68482V30.4444C8.68482 29.9531 8.28724 29.5555 7.79593 29.5555C7.30461 29.5555 6.90704 29.9531 6.90704 30.4444V34.8889H5.12926V27.7778C5.11179 26.8281 5.9409 25.9999 6.90704 26H18.2456C18.3919 26.0415 18.5761 26.0243 18.7291 26C18.914 26 19.0963 26.0581 19.2447 26.1641C20.7933 27.2674 22.5025 28.1215 24.3307 28.7057C26.3179 29.3333 28.2587 29.5782 30.2846 29.5555C30.9667 29.5286 31.4474 30.3881 31.0069 30.9392ZM46.8628 47.3333C46.8628 47.8238 46.4643 48.2222 45.9739 48.2222H43.3072V43.7778C43.3072 43.2865 42.9096 42.8889 42.4183 42.8889C41.927 42.8889 41.5294 43.2865 41.5294 43.7778V48.2222H40.6405C40.1501 48.2222 39.7516 47.8238 39.7516 47.3333V40.2222H46.8628V47.3333ZM49.5294 26C50.4821 25.9958 51.3238 26.8027 51.3072 27.7778V34.8889H49.5294V30.4444C49.5103 29.2767 47.7709 29.2755 47.7516 30.4444V38.4444H38.8628V28.8359C38.8628 28.5104 38.6848 28.2101 38.3984 28.0547C38.1119 27.8993 37.7629 27.9132 37.4895 28.0903C36.0498 29.0256 34.5208 29.7592 32.9413 30.2896C32.9044 29.6887 32.6792 29.0906 32.2544 28.6521C34.0228 28.0711 35.6844 27.2379 37.1935 26.1632C37.3402 26.0582 37.5207 26.0017 37.7733 26.0087C37.9046 26.0294 38.0435 26.0375 38.1718 26L49.5294 26ZM43.3072 24.2222C39.8766 24.2222 37.085 21.431 37.085 18C37.398 9.75677 49.2177 9.759 49.5294 18C49.5294 21.431 46.7378 24.2222 43.3072 24.2222ZM52.1892 22.4397C51.5077 21.7587 51.3124 20.5981 51.2855 19.7704C53.5653 19.7698 54.8452 21.0024 54.861 23.3407C54.0902 23.3181 52.9053 23.1562 52.1892 22.4397Z" fill="#2A657E"/>
</svg>
