<svg width="60" height="60" viewBox="0 0 60 60" fill="none" xmlns="http://www.w3.org/2000/svg">
<g clip-path="url(#clip0_707_1673)">
<path d="M31.4573 20.4517C29.8981 20.4517 28.3856 20.7604 26.9618 21.369C26.5898 21.528 26.4172 21.9585 26.5763 22.3305C26.7353 22.7024 27.1657 22.8749 27.5377 22.716C28.7784 22.1856 30.0971 21.9165 31.4573 21.9165C36.9598 21.9165 41.4363 26.3931 41.4363 31.8955C41.4363 37.398 36.9598 41.8745 31.4573 41.8745C25.9548 41.8745 21.4783 37.3979 21.4783 31.8955C21.4783 28.8939 22.8115 26.0795 25.136 24.1741C25.4489 23.9177 25.4946 23.4563 25.2381 23.1434C24.9818 22.8306 24.5203 22.7848 24.2074 23.0412C21.542 25.226 20.0134 28.4532 20.0134 31.8955C20.0134 38.2057 25.1471 43.3393 31.4573 43.3393C37.7675 43.3393 42.9012 38.2056 42.9012 31.8955C42.9012 25.5855 37.7675 20.4517 31.4573 20.4517Z" fill="#2A657E"/>
<path d="M31.4574 16.5151C22.9763 16.5151 16.0764 23.4151 16.0764 31.8961C16.0764 40.3772 22.9763 47.2771 31.4574 47.2771C39.9385 47.2771 46.8384 40.3773 46.8384 31.8961C46.8384 23.415 39.9385 16.5151 31.4574 16.5151ZM31.4574 45.8123C23.784 45.8123 17.5413 39.5696 17.5413 31.8961C17.5413 24.2227 23.784 17.98 31.4574 17.98C39.1308 17.98 45.3735 24.2228 45.3735 31.8961C45.3735 39.5695 39.1308 45.8123 31.4574 45.8123Z" fill="#2A657E"/>
<path d="M15.6436 7.50531C14.7107 7.56567 13.9799 8.36186 13.9799 9.31801V14.8651C13.9799 15.1211 13.7716 15.3294 13.5156 15.3294C13.2596 15.3294 13.0513 15.1211 13.0513 14.8651V9.31811C13.0513 8.36196 12.3205 7.56567 11.3877 7.50531C10.3525 7.43803 9.48985 8.26166 9.48995 9.28217V14.8651C9.48995 15.1211 9.28165 15.3294 9.02569 15.3294C8.76964 15.3294 8.56133 15.1211 8.56133 14.8651V9.31811C8.56133 8.36196 7.83057 7.56567 6.89776 7.50531C5.86426 7.43822 5 8.26157 5 9.28217C5 9.28217 5 18.815 5 18.818C5 20.5039 5.80811 22.0811 6.9626 23.2782C7.09063 23.411 7.22305 23.5391 7.35899 23.6622C8.20655 24.4293 8.4921 24.6878 8.4921 25.6923V49.9476C8.4921 51.4796 9.73858 52.7261 11.2706 52.7261C12.8027 52.7261 14.0491 51.4796 14.0491 49.9476V25.6924C14.0491 24.6878 14.3347 24.4294 15.1823 23.6621C16.5983 22.3805 17.5413 20.7761 17.5413 18.8177V9.28217C17.5413 8.26157 16.6786 7.43822 15.6436 7.50531ZM12.5843 49.9476C12.5843 50.6719 11.9949 51.2613 11.2706 51.2613C10.5463 51.2613 9.95694 50.6719 9.95694 49.9476V36.5727H12.5843V49.9476ZM16.0765 18.8178C16.0765 20.3571 15.3049 21.5755 14.1994 22.5761C13.2971 23.3928 12.5843 24.038 12.5843 25.6925V35.1079H9.95694V25.6925C9.95694 24.0381 9.24434 23.393 8.3421 22.5763C7.23223 21.5716 6.46485 20.3642 6.46485 18.8181V9.28217C6.46485 9.10063 6.61856 8.95454 6.80313 8.96704C6.96485 8.97749 7.09649 9.135 7.09649 9.31801V14.8651C7.09649 15.9289 7.96192 16.7942 9.02569 16.7942C10.0895 16.7942 10.9548 15.9288 10.9548 14.8651V9.28217C10.9548 9.10063 11.1081 8.95483 11.2931 8.96704C11.4548 8.97749 11.5864 9.135 11.5864 9.31801V14.8651C11.5864 15.9289 12.4519 16.7942 13.5156 16.7942C14.5794 16.7942 15.4447 15.9288 15.4447 14.8651V9.31811C15.4447 9.135 15.5764 8.97768 15.7382 8.96713C15.9223 8.95463 16.0765 9.10063 16.0765 9.28227C16.0765 9.28227 16.0765 18.8157 16.0765 18.8178Z" fill="#2A657E"/>
<path d="M51.2267 7.59956C49.285 8.7186 48.0789 10.806 48.0789 13.047V25.0578C48.0789 27.869 48.5384 30.6422 49.4429 33.3028V49.9478C49.443 51.4799 50.6895 52.7264 52.2215 52.7264C53.7536 52.7264 55.0001 51.4799 55.0001 49.9479C55.0001 49.9479 55.0001 9.8521 55.0001 9.78013C55.0001 7.88472 52.8691 6.65298 51.2267 7.59956ZM53.5353 49.9478C53.5353 50.6721 52.946 51.2615 52.2216 51.2615C51.4973 51.2615 50.908 50.6721 50.908 49.9478V33.9165H53.5353V49.9478ZM53.5353 32.4517H50.7033C49.9336 30.0595 49.5438 27.5749 49.5438 25.0579V13.047C49.5438 11.3281 50.469 9.727 51.9584 8.8687C52.648 8.47134 53.5353 8.98335 53.5353 9.78003V32.4517Z" fill="#2A657E"/>
</g>
<defs>
<clipPath id="clip0_707_1673">
<rect width="50" height="50" fill="white" transform="translate(5 5)"/>
</clipPath>
</defs>
</svg>
