<svg width="60" height="61" viewBox="0 0 60 61" fill="none" xmlns="http://www.w3.org/2000/svg">
<path d="M53.1562 20.2725H48.7031V17.9568C48.7074 16.0432 48.2786 14.1534 47.4488 12.429C46.619 10.7046 45.4097 9.19031 43.9116 7.99965C43.7543 7.8754 43.5598 7.80781 43.3594 7.80781C43.159 7.80781 42.9644 7.8754 42.8072 7.99965C41.309 9.19031 40.0998 10.7046 39.27 12.429C38.4401 14.1534 38.0113 16.0432 38.0156 17.9568V20.2725H30.7303C30.9005 19.3927 30.9544 18.4944 30.8906 17.6006C30.8867 16.9415 30.6393 16.3071 30.1959 15.8193C30.6341 15.3295 30.8763 14.6953 30.8763 14.0381C30.8763 13.3809 30.6341 12.7467 30.1959 12.2568C30.6341 11.767 30.8763 11.1328 30.8763 10.4756C30.8763 9.81836 30.6341 9.1842 30.1959 8.69434C30.539 8.3108 30.764 7.83636 30.8439 7.32803C30.9238 6.8197 30.8553 6.2991 30.6465 5.8288C30.4377 5.3585 30.0975 4.9585 29.6668 4.67687C29.2361 4.39524 28.7333 4.24396 28.2188 4.24121H13.9688C13.4542 4.24396 12.9514 4.39524 12.5207 4.67687C12.09 4.9585 11.7498 5.3585 11.541 5.8288C11.3322 6.2991 11.2637 6.8197 11.3436 7.32803C11.4235 7.83636 11.6485 8.3108 11.9916 8.69434C11.5534 9.1842 11.3112 9.81836 11.3112 10.4756C11.3112 11.1328 11.5534 11.767 11.9916 12.2568C11.5534 12.7467 11.3112 13.3809 11.3112 14.0381C11.3112 14.6953 11.5534 15.3295 11.9916 15.8193C11.5482 16.3071 11.3008 16.9415 11.2969 17.6006C11.2331 18.4944 11.287 19.3927 11.4572 20.2725H6.84375C6.13512 20.2725 5.45552 20.554 4.95445 21.055C4.45338 21.5561 4.17188 22.2357 4.17188 22.9443C4.17188 23.653 4.45338 24.3326 4.95445 24.8336C5.45552 25.3347 6.13512 25.6162 6.84375 25.6162H11.858L26.8116 38.3165C26.5723 38.7981 26.4477 39.3285 26.4477 39.8662C26.4477 40.4039 26.5723 40.9344 26.8116 41.4159L11.6086 54.33C11.5197 54.406 11.4467 54.4988 11.3936 54.603C11.3406 54.7073 11.3086 54.8209 11.2995 54.9376C11.2904 55.0542 11.3044 55.1714 11.3406 55.2826C11.3768 55.3939 11.4346 55.4969 11.5106 55.5857C11.5866 55.6746 11.6794 55.7477 11.7837 55.8007C11.8879 55.8537 12.0016 55.8857 12.1182 55.8948C12.2348 55.9039 12.3521 55.8899 12.4633 55.8537C12.5745 55.8175 12.6775 55.7597 12.7664 55.6837L27.9605 42.7696C28.5586 43.1873 29.2705 43.4112 30 43.4112C30.7295 43.4112 31.4414 43.1873 32.0395 42.7696L47.2336 55.6837C47.4131 55.8372 47.6463 55.9132 47.8818 55.8948C48.1173 55.8764 48.3358 55.7653 48.4894 55.5857C48.6429 55.4062 48.7188 55.1731 48.7005 54.9376C48.6821 54.7021 48.5709 54.4835 48.3914 54.33L33.1884 41.4159C33.4277 40.9344 33.5523 40.4039 33.5523 39.8662C33.5523 39.3285 33.4277 38.7981 33.1884 38.3165L48.142 25.6162H53.1562C53.8649 25.6162 54.5445 25.3347 55.0456 24.8336C55.5466 24.3326 55.8281 23.653 55.8281 22.9443C55.8281 22.2357 55.5466 21.5561 55.0456 21.055C54.5445 20.554 53.8649 20.2725 53.1562 20.2725ZM39.7969 17.9568C39.7944 16.4351 40.11 14.9295 40.7235 13.5369C41.337 12.1443 42.2348 10.8952 43.3594 9.86996C44.4839 10.8952 45.3818 12.1443 45.9953 13.5369C46.6088 14.9295 46.9244 16.4351 46.9219 17.9568V20.2725H39.7969V17.9568ZM13.0781 14.0381C13.0781 13.8019 13.172 13.5753 13.339 13.4083C13.506 13.2413 13.7325 13.1475 13.9688 13.1475H28.2188C28.455 13.1475 28.6815 13.2413 28.8485 13.4083C29.0155 13.5753 29.1094 13.8019 29.1094 14.0381C29.1094 14.2743 29.0155 14.5008 28.8485 14.6679C28.6815 14.8349 28.455 14.9287 28.2188 14.9287H13.9688C13.7325 14.9287 13.506 14.8349 13.339 14.6679C13.172 14.5008 13.0781 14.2743 13.0781 14.0381ZM13.0781 10.4756C13.0781 10.2394 13.172 10.0128 13.339 9.84582C13.506 9.67879 13.7325 9.58496 13.9688 9.58496H28.2188C28.455 9.58496 28.6815 9.67879 28.8485 9.84582C29.0155 10.0128 29.1094 10.2394 29.1094 10.4756C29.1094 10.7118 29.0155 10.9383 28.8485 11.1054C28.6815 11.2724 28.455 11.3662 28.2188 11.3662H13.9688C13.7325 11.3662 13.506 11.2724 13.339 11.1054C13.172 10.9383 13.0781 10.7118 13.0781 10.4756ZM13.9688 6.02246H28.2188C28.455 6.02246 28.6815 6.11629 28.8485 6.28332C29.0155 6.45034 29.1094 6.67688 29.1094 6.91309C29.1094 7.14929 29.0155 7.37583 28.8485 7.54285C28.6815 7.70988 28.455 7.80371 28.2188 7.80371H13.9688C13.7325 7.80371 13.506 7.70988 13.339 7.54285C13.172 7.37583 13.0781 7.14929 13.0781 6.91309C13.0781 6.67688 13.172 6.45034 13.339 6.28332C13.506 6.11629 13.7325 6.02246 13.9688 6.02246ZM13.0781 19.3818V17.6006C13.0781 17.3644 13.172 17.1378 13.339 16.9708C13.506 16.8038 13.7325 16.71 13.9688 16.71H28.2188C28.455 16.71 28.6815 16.8038 28.8485 16.9708C29.0155 17.1378 29.1094 17.3644 29.1094 17.6006V19.3818C29.1094 19.618 29.0155 19.8446 28.8485 20.0116C28.6815 20.1786 28.455 20.2725 28.2188 20.2725H13.9688C13.7325 20.2725 13.506 20.1786 13.339 20.0116C13.172 19.8446 13.0781 19.618 13.0781 19.3818ZM28.6462 41.0151C28.4195 40.758 28.2718 40.441 28.2208 40.102C28.1698 39.763 28.2176 39.4165 28.3587 39.1041C28.4997 38.7916 28.7279 38.5265 29.0159 38.3406C29.3039 38.1546 29.6394 38.0557 29.9822 38.0557C30.325 38.0557 30.6605 38.1546 30.9485 38.3406C31.2364 38.5265 31.4646 38.7916 31.6057 39.1041C31.7467 39.4165 31.7946 39.763 31.7436 40.102C31.6926 40.441 31.5449 40.758 31.3181 41.0151C31.151 41.2047 30.9454 41.3565 30.7151 41.4604C30.4847 41.5644 30.2349 41.6182 29.9822 41.6182C29.7295 41.6182 29.4796 41.5644 29.2493 41.4604C29.019 41.3565 28.8134 41.2047 28.6462 41.0151ZM32.0395 36.9628C31.4414 36.5451 30.7295 36.3212 30 36.3212C29.2705 36.3212 28.5586 36.5451 27.9605 36.9628L14.61 25.6162H45.39L32.0395 36.9628ZM53.1562 23.835H6.84375C6.60754 23.835 6.38101 23.7411 6.21398 23.5741C6.04696 23.4071 5.95312 23.1805 5.95312 22.9443C5.95312 22.7081 6.04696 22.4816 6.21398 22.3146C6.38101 22.1475 6.60754 22.0537 6.84375 22.0537H53.1562C53.3925 22.0537 53.619 22.1475 53.786 22.3146C53.953 22.4816 54.0469 22.7081 54.0469 22.9443C54.0469 23.1805 53.953 23.4071 53.786 23.5741C53.619 23.7411 53.3925 23.835 53.1562 23.835Z" fill="#2A657E"/>
</svg>
