<svg width="238" height="172" viewBox="0 0 238 172" fill="none" xmlns="http://www.w3.org/2000/svg">
<path fill-rule="evenodd" clip-rule="evenodd" d="M137.277 107.285C142.412 95.3684 144.243 78.4429 138.716 59.93C137.635 56.3099 136.634 52.9279 135.698 49.7675L135.697 49.765C131.125 34.3208 128.121 24.175 125.079 17.4395C123.3 13.5008 121.999 11.9207 121.281 11.3039C120.947 11.0168 120.665 10.7904 119.475 10.7904C118.927 10.7904 118.777 10.8138 118.244 11.3432C117.301 12.2784 115.899 14.3345 114.065 18.6594C111.683 24.2754 109.42 31.4847 106.447 40.9538L106.446 40.9573C104.691 46.5462 102.689 52.9226 100.27 60.223C94.8774 76.4977 96.5182 93.3613 101.757 105.972C104.374 112.269 107.727 117.116 111.113 120.247C112.708 121.722 114.193 122.718 115.533 123.36V103.328C112.339 101.659 110.132 98.0881 110.132 93.9513C110.132 88.2183 114.371 83.5706 119.601 83.5706C124.83 83.5706 129.07 88.2183 129.07 93.9513C129.07 98.0473 126.906 101.589 123.763 103.278V123.345C128.113 121.408 133.293 116.529 137.277 107.285ZM85.7765 132.687C95.5099 131.546 102.227 133.456 106.129 136.14L87.7498 146.752C84.8443 144.8 80.9645 144.542 77.7288 146.41C73.1998 149.025 71.6481 154.816 74.2628 159.345C76.8778 163.874 82.6689 165.425 87.1979 162.81C90.4657 160.924 92.1835 157.384 91.9047 153.857L110.535 143.101C110.702 144.654 110.605 146.561 110.084 148.864C109.065 153.362 106.544 158.69 102.398 164.104C94.0969 174.947 80.3131 184.799 63.5221 188.266C55.9887 189.822 49.4646 191.277 43.7463 192.552C34.0593 194.712 26.6843 196.357 20.63 197.102C15.9672 197.676 13.4856 197.49 12.2043 197.141C11.4791 196.944 11.3841 196.826 11.1099 196.351C10.515 195.321 10.5703 194.963 10.6518 194.531C10.8271 193.6 11.5449 191.684 14.0665 188.174C18.3785 182.171 25.6631 174.497 36.7518 162.815C39.0212 160.424 41.4501 157.865 44.0457 155.118C57.3147 141.075 72.8881 134.198 85.7765 132.687ZM137.079 163.498C130.74 154.99 129.267 147.756 130.027 143.017L148.29 153.562C148.053 157.054 149.769 160.543 153.005 162.411C157.533 165.026 163.325 163.474 165.94 158.945C168.554 154.416 167.003 148.625 162.474 146.01C159.206 144.124 155.281 144.406 152.366 146.411L134.69 136.206C135.816 135.526 137.214 134.893 138.935 134.359C143.34 132.991 149.214 132.511 155.976 133.394C169.517 135.162 184.941 142.173 196.339 154.981C201.453 160.727 205.975 165.65 209.939 169.964C216.653 177.273 221.764 182.838 225.437 187.709C228.266 191.46 229.345 193.702 229.684 194.986C229.875 195.713 229.82 195.854 229.546 196.329C228.952 197.359 228.614 197.49 228.198 197.636C227.305 197.949 225.287 198.286 220.986 197.857C213.632 197.124 203.344 194.653 187.683 190.891C184.477 190.121 181.046 189.297 177.37 188.422C158.574 183.953 144.832 173.904 137.079 163.498ZM99.5893 122.802C88.27 108.135 82.2096 82.0179 90.5042 56.9867C92.7323 50.2626 94.6577 44.1372 96.3945 38.6115C104.371 13.2337 108.373 0.501953 119.475 0.501953C131.856 0.501953 135.589 13.1209 145.633 47.0758C146.557 50.1969 147.533 53.4983 148.575 56.9867C156.804 84.5499 150.721 109.805 139.4 123.627C157.877 119.775 185.489 127.312 204.025 148.141C208.735 153.433 213.077 158.163 216.992 162.43C234.983 182.027 244.008 191.859 238.456 201.473C232.267 212.195 219.472 209.119 185.044 200.84L185.021 200.835C181.863 200.075 178.523 199.272 174.99 198.432C143.592 190.965 123.718 169.35 120.121 151.125C115.889 169.845 94.7066 192.333 65.6026 198.342C58.6653 199.775 52.3978 201.17 46.7439 202.429C20.7777 208.209 7.75074 211.11 2.19979 201.495C-3.99081 190.773 5.07111 181.23 29.455 155.554L29.4566 155.553C31.6974 153.193 34.0677 150.697 36.5674 148.052C56.5943 126.856 81.9205 119.584 99.5893 122.802ZM77.215 78.6618C78.5618 79.2544 79.8993 79.8693 81.224 80.5049C81.5886 84.5744 82.2169 88.5397 83.0755 92.3555C79.9581 90.6367 76.6866 89.0196 73.3112 87.5346C59.2711 81.3568 45.5478 76.6179 34.7531 74.9613C29.3319 74.1293 25.3098 74.1841 22.6094 74.7933C20.0964 75.3602 19.4532 76.201 19.191 76.6549C18.9815 77.0179 18.5967 77.7826 19.3678 80.0005C20.2262 82.471 22.2555 85.8038 25.832 89.9608C32.9568 98.2422 44.1638 107.481 56.5509 116.858C59.6855 119.231 62.8916 121.436 66.1076 123.434C62.3675 124.505 58.5725 125.874 54.7701 127.554C53.3968 126.59 52.039 125.6 50.7004 124.587C25.89 105.806 2.90101 85.4833 10.7963 71.8083C18.6915 58.1333 48.567 66.0568 77.215 78.6618ZM93.4014 199.184C93.1833 197.195 93.0101 195.201 92.8829 193.211C96.298 190.592 99.4525 187.79 102.318 184.87C102.305 189.177 102.544 193.633 103.037 198.127C104.685 213.154 107.406 227.189 111.312 237.204C113.273 242.233 115.298 245.622 117.135 247.61C118.843 249.455 119.85 249.571 120.329 249.571C120.704 249.571 121.518 249.544 123.015 247.813C124.687 245.881 126.528 242.525 128.314 237.432C131.872 227.284 134.238 213.176 136.14 197.98C136.679 193.674 136.993 189.396 137.08 185.247C139.888 188.008 142.991 190.666 146.377 193.173C146.215 195.178 146.009 197.185 145.758 199.184C141.948 229.621 135.92 259.264 120.329 259.264C104.739 259.264 96.766 229.854 93.4014 199.184ZM189.42 124.818C187.997 125.862 186.552 126.878 185.091 127.863C181.172 126.213 177.223 124.872 173.309 123.832C176.799 121.788 180.285 119.496 183.688 117.001C196.058 107.93 207.025 98.4152 213.856 89.895C217.287 85.616 219.252 82.1056 220.073 79.4624C220.838 77.0025 220.433 76.0249 220.169 75.5712C219.962 75.2082 219.49 74.4927 217.184 74.0513C214.616 73.5598 210.714 73.6505 205.327 74.6693C194.592 76.699 180.988 81.785 166.674 87.8241C163.044 89.3556 159.524 91.0335 156.179 92.8234C156.96 89.0966 157.52 85.197 157.827 81.1557C159.503 80.3685 161.198 79.6135 162.905 78.8931C191.575 66.797 220.669 57.0493 228.565 70.7243C236.46 84.3993 214.661 106.311 189.42 124.818Z" fill="#F2C452" fill-opacity="0.2"/>
</svg>
