<svg width="60" height="60" viewBox="0 0 60 60" fill="none" xmlns="http://www.w3.org/2000/svg">
<g clip-path="url(#clip0_661_850)">
<path d="M49.4083 12.2043C49.2099 11.9665 48.9992 11.7356 48.7772 11.5135C48.5542 11.2906 48.3234 11.0799 48.0855 10.8816C45.719 8.90658 42.6284 8.2939 39.6098 9.20063C36.4507 10.1495 34.0026 12.5888 33.0599 15.7277C32.6904 16.9566 32.2831 18.0617 31.8503 19.0588C26.0676 14.2311 18.7646 9.91162 15.9672 12.7099C14.4855 14.1916 14.8796 17.1233 17.1091 21.1874C17.3417 21.6114 17.5954 22.0441 17.8614 22.4821C15.9847 23.2282 14.2994 24.3087 12.8634 25.7439C7.04554 31.5617 7.04554 41.0284 12.8634 46.8471C15.7723 49.7561 19.5932 51.2105 23.415 51.2105C27.2368 51.2105 31.0577 49.7561 33.9666 46.8471C35.4026 45.4111 36.4823 43.7258 37.2284 41.8491C37.6655 42.1151 38.0991 42.3688 38.5231 42.6014C40.9756 43.9461 43.0155 44.6238 44.5735 44.6238C45.5979 44.6238 46.4133 44.3315 47.0014 43.7434C49.6971 41.0477 45.8744 34.2521 41.1617 28.472C42.1755 28.0278 43.3043 27.61 44.5639 27.2308C47.7019 26.2881 50.1421 23.8391 51.091 20.6809C51.9959 17.6597 51.3841 14.5708 49.4083 12.2043ZM27.889 34.5242C27.9443 34.5768 27.9987 34.6313 28.054 34.6831C28.1198 34.7445 28.1857 34.8024 28.2506 34.8639C28.269 34.8814 28.2875 34.8972 28.3059 34.9148C28.6395 35.2264 28.973 35.5327 29.3083 35.8338C29.4101 35.926 29.512 36.0217 29.6138 36.1121C29.6217 36.1191 29.6305 36.1261 29.6384 36.1331C29.6743 36.1647 29.7103 36.1946 29.7463 36.2262C30.144 36.5782 30.5416 36.9214 30.9401 37.2567C31.0086 37.3146 31.0779 37.376 31.1464 37.4331C31.5852 37.8 32.0233 38.1529 32.4604 38.4978C32.5587 38.5759 32.657 38.6541 32.7553 38.7313C32.3243 40.392 31.4615 41.9009 30.2414 43.1219C26.4766 46.8858 20.3516 46.8866 16.586 43.1219C12.8212 39.3572 12.8212 33.2312 16.586 29.4665C17.8061 28.2464 19.315 27.3844 20.9766 26.9526C21.0529 27.0509 21.1319 27.1492 21.2101 27.2475C21.555 27.6846 21.9088 28.1226 22.2748 28.5615C22.3327 28.63 22.3933 28.6993 22.4512 28.7678C22.7865 29.1654 23.1306 29.5639 23.4817 29.9616C23.5133 29.9975 23.5432 30.0335 23.5748 30.0695C23.5818 30.0774 23.5888 30.0862 23.5958 30.0941C23.6862 30.1959 23.7828 30.2977 23.8741 30.3996C24.1751 30.734 24.4815 31.0684 24.7931 31.402C24.8106 31.4204 24.8264 31.4388 24.844 31.4573C24.9054 31.5231 24.9634 31.5889 25.0248 31.6539C25.0766 31.7092 25.1319 31.7636 25.1837 31.8189C25.6199 32.278 26.0623 32.7353 26.5161 33.19C26.97 33.6447 27.4299 34.0879 27.889 34.5242ZM32.7255 45.6051C27.5923 50.7392 19.2395 50.74 14.1054 45.6051C8.97136 40.471 8.97136 32.1182 14.1054 26.985C15.4502 25.6412 17.031 24.6282 18.8129 23.9708C18.9279 24.142 19.0525 24.3166 19.1719 24.4896C19.3571 24.7582 19.5441 25.0276 19.7389 25.298C19.7784 25.3533 19.8144 25.4068 19.8539 25.4621C18.1607 26.0169 16.6193 26.9534 15.3466 28.2262C10.8981 32.6747 10.8981 39.9145 15.3466 44.3639C17.5717 46.5882 20.4938 47.7003 23.415 47.7003C26.3371 47.7003 29.2592 46.5882 31.4834 44.3639C32.7562 43.0912 33.6928 41.5498 34.2475 39.8566C34.3028 39.897 34.3572 39.9321 34.4117 39.9716C34.6829 40.1665 34.9515 40.3534 35.2201 40.5386C35.393 40.658 35.5677 40.7827 35.7388 40.8976C35.0814 42.6795 34.0693 44.2604 32.7255 45.6051ZM45.7594 42.5013C45.1143 43.1456 43.098 43.107 39.3666 41.0618C38.5968 40.6396 37.7963 40.1463 36.9818 39.61C36.75 39.4572 36.5174 39.3027 36.2839 39.1421C36.0917 39.0104 35.8977 38.8726 35.7037 38.7348C35.4623 38.5637 35.221 38.3934 34.9769 38.2143C34.7355 38.0361 34.4924 37.8483 34.2493 37.6622C34.2133 37.6341 34.1764 37.6069 34.1404 37.5788C33.7094 37.247 33.2776 36.9038 32.8466 36.5527C32.7404 36.4658 32.6342 36.3815 32.5271 36.2929C32.1163 35.9532 31.7064 35.6021 31.2965 35.2457C31.199 35.1606 31.1007 35.0781 31.0033 34.992C30.9278 34.9253 30.8514 34.8569 30.7759 34.7893C30.4222 34.475 30.0693 34.1529 29.7174 33.8264C29.6629 33.7754 29.6085 33.7272 29.5532 33.6763C29.4391 33.57 29.325 33.4647 29.2109 33.3568C28.7246 32.8968 28.2401 32.4298 27.7582 31.9488C27.2772 31.4678 26.8102 30.9824 26.3502 30.4961C26.2423 30.382 26.137 30.2679 26.0307 30.1538C25.9798 30.0994 25.9307 30.0449 25.8806 29.9896C25.5541 29.6377 25.232 29.2848 24.9177 28.9311C24.8501 28.8556 24.7817 28.7792 24.715 28.7037C24.6289 28.6054 24.5464 28.508 24.4613 28.4105C24.1049 28.0006 23.7529 27.5907 23.4141 27.1799C23.3255 27.0728 23.2421 26.9666 23.1543 26.8604C22.8032 26.4294 22.46 25.9984 22.1282 25.5666C22.1001 25.5306 22.0729 25.4937 22.0448 25.4577C21.8587 25.2146 21.6709 24.9715 21.4927 24.7301C21.3136 24.4869 21.1433 24.2455 20.9722 24.0033C20.8344 23.8093 20.6966 23.6153 20.5649 23.4231C20.4043 23.1896 20.2498 22.957 20.097 22.7252C19.5607 21.9107 19.0683 21.1102 18.6452 20.3404C16.6 16.6107 16.5605 14.5927 17.2057 13.9476C17.4655 13.6878 17.8781 13.557 18.424 13.557C20.7282 13.557 25.4128 15.8883 31.056 20.6783C30.9682 20.8389 30.8822 21.0127 30.7926 21.1646C30.7847 21.1777 30.7768 21.1918 30.7689 21.205C30.5635 21.5499 30.3537 21.8694 30.1404 22.1644C30.1334 22.174 30.1264 22.1837 30.1194 22.1933C29.9061 22.4856 29.6901 22.7507 29.4707 22.9903C29.4611 23.0009 29.4523 23.0105 29.4426 23.0202C29.2258 23.2545 29.0055 23.4626 28.7825 23.6443C28.7685 23.6557 28.7536 23.6662 28.7395 23.6776C28.5166 23.8558 28.291 24.0094 28.0636 24.1323L26.9612 24.7266L27.8951 25.5604C28.9002 26.4575 29.8833 27.3853 30.8154 28.3175C32.1417 29.6438 33.4321 31.0447 34.6495 32.4807L35.5053 33.4902L35.5062 33.4911L36.1031 32.3096C36.2207 32.0778 36.3708 31.8479 36.5455 31.6197C36.556 31.6065 36.5648 31.5924 36.5753 31.5784C36.7527 31.3519 36.9589 31.1281 37.1915 30.9069C37.2021 30.8973 37.2126 30.8867 37.2231 30.8762C37.4601 30.6532 37.7243 30.4338 38.0149 30.2179C38.0254 30.21 38.0368 30.2021 38.0482 30.1933C38.3414 29.9774 38.6609 29.7641 39.0068 29.556C39.0208 29.5472 39.0366 29.5393 39.0506 29.5306C39.2034 29.4393 39.3798 29.3515 39.5422 29.262C45.0651 35.9435 47.0524 41.2084 45.7594 42.5013ZM49.4083 20.1753C48.6297 22.7674 46.6293 24.7766 44.0574 25.5499C42.7706 25.937 41.3539 26.4443 39.9951 27.0737L39.9802 27.0561L39.3631 27.3651C39.3263 27.3836 39.2964 27.4029 39.2604 27.4213C39.0603 27.5231 38.8698 27.6355 38.6741 27.7434C37.6901 28.2877 36.8501 28.8643 36.1733 29.4753C36.1259 29.5174 36.0715 29.556 36.0259 29.599C35.7274 29.8799 35.4579 30.1661 35.2245 30.4592C34.8172 29.9949 34.3985 29.5385 33.978 29.0838C33.3478 28.4018 32.7097 27.7294 32.0592 27.0781C31.3623 26.3811 30.6381 25.6868 29.8982 25.0066C30.187 24.7713 30.4696 24.5001 30.7452 24.2017C30.7953 24.1472 30.8409 24.0823 30.8901 24.0261C31.4685 23.3704 32.0162 22.569 32.5341 21.6351C32.6579 21.4121 32.7843 21.1927 32.9001 20.9636C32.9177 20.9293 32.9361 20.9013 32.9528 20.867L33.2548 20.2587L33.239 20.2447C33.8587 18.8991 34.359 17.499 34.7399 16.2315C35.5132 13.6597 37.5216 11.6601 40.1145 10.8816C42.5608 10.1477 45.0546 10.6384 46.9602 12.228C47.1577 12.3931 47.349 12.5677 47.536 12.7547C47.7212 12.939 47.8968 13.1313 48.0609 13.3279C49.6505 15.2344 50.1421 17.7299 49.4083 20.1753Z" fill="#2A657E"/>
<path d="M41.8385 12.9116C40.3138 12.9116 38.833 13.641 37.6682 14.9647C37.3478 15.329 37.3838 15.8837 37.7472 16.2041C38.1132 16.5245 38.6662 16.4885 38.9866 16.1251C40.6631 14.2177 43.0138 14.2177 44.6903 16.1251C44.8641 16.3226 45.1064 16.4227 45.3495 16.4227C45.5549 16.4227 45.7621 16.3507 45.9288 16.2041C46.2931 15.8837 46.3282 15.329 46.0078 14.9647C44.8439 13.641 43.3631 12.9116 41.8385 12.9116Z" fill="#2A657E"/>
</g>
<defs>
<clipPath id="clip0_661_850">
<rect width="43" height="43" fill="white" transform="translate(8.5 8.5)"/>
</clipPath>
</defs>
</svg>
