<svg width="60" height="60" viewBox="0 0 60 60" fill="none" xmlns="http://www.w3.org/2000/svg">
<path d="M22.5562 17.5894C19.3665 17.5894 16.7585 20.1912 16.7585 23.3809C16.7585 26.5705 19.3665 29.1724 22.5562 29.1724C25.7458 29.1724 28.3477 26.5705 28.3477 23.3809C28.3477 20.1912 25.7458 17.5894 22.5562 17.5894ZM22.5562 19.2449C24.8513 19.2449 26.6921 21.0857 26.6921 23.3809C26.6921 25.676 24.8513 27.5229 22.5562 27.5229C20.261 27.5229 18.4141 25.676 18.4141 23.3809C18.4141 21.0857 20.261 19.2449 22.5562 19.2449Z" fill="#2A657E"/>
<path d="M37.4505 31.6582C34.2608 31.6582 31.6589 34.2601 31.6589 37.4497C31.6589 40.6394 34.2608 43.2412 37.4505 43.2413C40.6401 43.2413 43.242 40.6394 43.242 37.4497C43.242 34.2601 40.6401 31.6582 37.4505 31.6582ZM37.4505 33.3138C39.7456 33.3138 41.5864 35.1546 41.5864 37.4497C41.5864 39.7449 39.7456 41.5857 37.4505 41.5857C35.1553 41.5857 33.3145 39.7449 33.3145 37.4497C33.3145 35.1546 35.1553 33.3138 37.4505 33.3138Z" fill="#2A657E"/>
<path d="M30.0031 6C16.7579 6 6 16.7579 6 30.0031C6 43.2482 16.7579 54 30.0031 54C43.2482 54 54 43.2482 54 30.0031C54 16.7579 43.2482 6 30.0031 6ZM30.0031 7.65559C42.3537 7.6556 52.3505 17.6524 52.3505 30.0031C52.3505 42.3537 42.3537 52.3505 30.0031 52.3505C17.6524 52.3505 7.6556 42.3537 7.65559 30.0031C7.6556 17.6524 17.6524 7.6556 30.0031 7.65559Z" fill="#2A657E"/>
<path d="M41.3662 18.2983L19.1287 40.5358L20.2955 41.7088L42.533 19.4713L41.3662 18.2983Z" fill="#2A657E"/>
</svg>
