<svg width="60" height="60" viewBox="0 0 60 60" fill="none" xmlns="http://www.w3.org/2000/svg">
<g clip-path="url(#clip0_707_1687)">
<path d="M54.9934 34.1363C54.9901 34.0488 54.9726 33.9638 54.9417 33.8805C54.9351 33.8621 54.9309 33.8438 54.9226 33.8255C54.9184 33.8155 54.9167 33.8046 54.9117 33.7946L53.6818 31.3339C54.3517 30.7505 54.8192 29.9622 54.9576 29.0639C55.2276 27.3073 54.2018 25.6564 52.5001 24.9831V17.2958C52.5001 14.6516 50.3485 12.5 47.7044 12.5H12.2966C9.6525 12.5 7.50087 14.6516 7.50087 17.2958V24.9831C5.79923 25.6564 4.77341 27.3081 5.04341 29.0647C5.18174 29.9622 5.6484 30.7514 6.31922 31.3339L5.08924 33.7946C5.08424 33.8046 5.08258 33.8155 5.07841 33.8263C5.07008 33.8438 5.06591 33.863 5.05924 33.8813C5.02841 33.9646 5.01091 34.0505 5.00758 34.138C5.00758 34.1488 5.00174 34.158 5.00174 34.1688V40.8354C5.00174 41.2954 5.37424 41.6687 5.83506 41.6687V47.5019H7.98503L11.3191 41.6687H48.6827L52.0168 47.5019H54.1668V41.6687C54.6276 41.6687 55.0001 41.2954 55.0001 40.8354V34.1688C55.0001 34.1563 54.9942 34.1471 54.9934 34.1363ZM53.3101 28.8106C53.2109 29.4564 52.7993 30.0039 52.2218 30.3397C52.216 30.343 52.2093 30.3422 52.2043 30.3455C52.0518 30.4322 51.896 30.5005 51.7368 30.5547C51.7218 30.5597 51.7076 30.5655 51.6926 30.5697C51.531 30.6214 51.366 30.658 51.1985 30.6755C47.351 31.0747 43.5261 30.7272 39.8337 29.6405L38.9678 29.3856C38.8812 29.3597 38.8087 29.3272 38.7445 29.2906C38.7312 29.2831 38.7203 29.2747 38.7078 29.2672C38.6553 29.2339 38.6078 29.1989 38.5695 29.1614C38.5653 29.1572 38.5612 29.1539 38.557 29.1497C38.4687 29.0597 38.4154 28.9622 38.3845 28.8781C38.3154 28.6897 38.3254 28.4797 38.4087 28.3022C38.4095 28.2997 38.4104 28.2981 38.412 28.2956C38.4587 28.1997 38.5262 28.1147 38.612 28.0439C38.6128 28.0431 38.6145 28.0422 38.6162 28.0414C38.7028 27.9706 38.8087 27.9131 38.9303 27.8722L42.6461 26.6173C42.6853 26.6039 42.7253 26.5956 42.7636 26.5823C43.0894 26.4756 43.4194 26.3781 43.7519 26.2939C43.9294 26.2498 44.1094 26.2173 44.2886 26.1789C44.4836 26.1373 44.6786 26.0931 44.8752 26.0589C45.0961 26.0214 45.3186 25.9948 45.5411 25.9673C45.6961 25.9481 45.8511 25.9256 46.0069 25.9106C46.2527 25.8873 46.5002 25.8748 46.7477 25.8639C46.8794 25.8581 47.0119 25.8506 47.1435 25.8481C47.4385 25.8431 47.7344 25.8456 48.0294 25.8573C48.0835 25.8598 48.1385 25.8606 48.1935 25.8631C48.526 25.8798 48.8577 25.9081 49.1885 25.9464C49.2193 25.9498 49.2493 25.9523 49.2802 25.9564C49.6377 26.0006 49.9935 26.0564 50.3468 26.1256C50.3518 26.1264 50.3568 26.1273 50.361 26.1281C50.7251 26.1998 51.0868 26.2856 51.4451 26.3848C51.4468 26.3856 51.4485 26.3848 51.4501 26.3848C51.5226 26.4048 51.5976 26.4198 51.6693 26.4406C52.7809 26.7689 53.4709 27.7656 53.3101 28.8106ZM12.2966 14.1675H47.7044C49.4293 14.1675 50.8335 15.5716 50.8335 17.2966V24.5198C50.5876 24.469 50.3393 24.4323 50.091 24.3923C49.966 24.3723 49.8418 24.3456 49.7168 24.3281C49.5943 24.3115 49.4718 24.3023 49.3493 24.2881C49.0502 24.2531 48.751 24.2231 48.451 24.204C48.3752 24.1998 48.2994 24.1981 48.2235 24.1948C47.8752 24.1773 47.5269 24.1706 47.1785 24.1756C47.1227 24.1765 47.0669 24.1781 47.011 24.1798C46.6485 24.189 46.2869 24.209 45.9252 24.2415C45.8702 24.2465 45.8152 24.2515 45.7602 24.2565C45.4086 24.2915 45.0586 24.339 44.7094 24.3965C44.6411 24.4073 44.5736 24.4173 44.5052 24.429C44.1761 24.4881 43.8494 24.5581 43.5236 24.6373C43.4419 24.6565 43.3603 24.6723 43.2786 24.6931C42.9078 24.789 42.5394 24.8965 42.1736 25.0181C42.1536 25.0248 42.132 25.0298 42.112 25.0365L38.3962 26.2914C38.2412 26.3439 38.0979 26.4114 37.9604 26.4856C37.9204 26.5073 37.8837 26.5323 37.8454 26.5564C37.7479 26.6156 37.6562 26.6798 37.5695 26.7506C37.5329 26.7798 37.4979 26.8098 37.4637 26.8406C37.3704 26.9248 37.2854 27.0156 37.207 27.1114C37.1912 27.1314 37.1729 27.1489 37.1579 27.1689C36.902 27.5048 36.7395 27.9014 36.6895 28.3314H23.3123C23.2623 27.9006 23.0998 27.5039 22.8439 27.1689C22.8289 27.1489 22.8106 27.1306 22.7939 27.1106C22.7156 27.0148 22.6306 26.9239 22.5381 26.8398C22.5031 26.8081 22.4681 26.7789 22.4315 26.7489C22.3448 26.6789 22.2531 26.6156 22.1565 26.5556C22.1181 26.5314 22.0806 26.5064 22.0406 26.4848C21.9031 26.4098 21.759 26.3423 21.6048 26.2906L17.889 25.0356C17.8682 25.029 17.8465 25.024 17.8257 25.0173C17.4615 24.8956 17.094 24.7881 16.7249 24.6931C16.6399 24.6715 16.5532 24.6548 16.4674 24.634C16.1466 24.5565 15.8249 24.4873 15.5016 24.429C15.4282 24.4156 15.3549 24.4056 15.2816 24.394C14.9391 24.3373 14.5949 24.2915 14.2499 24.2565C14.1891 24.2506 14.1283 24.2448 14.0674 24.2398C13.7124 24.2081 13.3566 24.1873 12.9999 24.179C12.9391 24.1773 12.8783 24.1748 12.8174 24.174C12.4741 24.169 12.1316 24.1756 11.7883 24.1923C11.7083 24.1956 11.6275 24.1973 11.5475 24.2023C11.2516 24.2206 10.9558 24.2506 10.66 24.2856C10.535 24.2998 10.4092 24.309 10.2842 24.3265C10.1592 24.344 10.035 24.3698 9.91083 24.3906C9.6625 24.4298 9.41417 24.4673 9.16751 24.5181V17.2949C9.16751 15.5708 10.5708 14.1675 12.2966 14.1675ZM8.33252 26.4414C8.40502 26.4198 8.47919 26.4056 8.55168 26.3856C8.55335 26.3848 8.55502 26.3856 8.55668 26.3856C8.91584 26.2864 9.27834 26.2006 9.64333 26.1281C9.645 26.1281 9.64667 26.1273 9.64833 26.1273C10.005 26.0573 10.3642 26.0006 10.7241 25.9564C10.7525 25.9531 10.78 25.9506 10.8083 25.9473C11.1408 25.9081 11.4741 25.8806 11.8083 25.8639C11.8633 25.8614 11.9191 25.8606 11.9741 25.8581C12.2675 25.8464 12.5616 25.8439 12.8549 25.8489C12.9908 25.8514 13.1274 25.8589 13.2633 25.8656C13.5058 25.8764 13.7474 25.8889 13.9891 25.9114C14.1541 25.9273 14.3174 25.9498 14.4816 25.9706C14.6949 25.9973 14.9082 26.0223 15.1199 26.0581C15.3299 26.0939 15.5366 26.1406 15.7449 26.1856C15.9124 26.2214 16.0807 26.2514 16.2457 26.2931C16.5824 26.3781 16.9157 26.4764 17.2449 26.5848C17.2815 26.5964 17.319 26.6048 17.3557 26.6173L21.0723 27.8722C21.194 27.9131 21.299 27.9706 21.3856 28.0414C21.3865 28.0422 21.3881 28.0431 21.3898 28.0439C21.4756 28.1147 21.5431 28.1989 21.5898 28.2956C21.5906 28.2981 21.5915 28.3006 21.5931 28.3022C21.6765 28.4806 21.6865 28.6897 21.6173 28.8781C21.5865 28.9622 21.5331 29.0589 21.4448 29.1497C21.4406 29.1539 21.4365 29.1572 21.4323 29.1614C21.394 29.1989 21.3465 29.2339 21.294 29.2672C21.2815 29.2747 21.2706 29.2831 21.2573 29.2906C21.1931 29.3272 21.1206 29.3597 21.034 29.3856L20.1682 29.6405C17.399 30.4555 14.5549 30.8547 11.6833 30.8347C11.2733 30.8322 10.8616 30.8164 10.4508 30.7964C9.90249 30.7697 9.35334 30.7322 8.80418 30.6755C8.80251 30.6755 8.80085 30.6747 8.79918 30.6747C8.63335 30.6572 8.47085 30.6214 8.31002 30.5705C8.29502 30.5655 8.28002 30.5597 8.26502 30.5547C8.10586 30.5005 7.95003 30.433 7.79753 30.3455C7.7917 30.3422 7.78503 30.343 7.78003 30.3397C7.20254 30.0039 6.79088 29.4564 6.69172 28.8114C6.53005 27.7656 7.22004 26.7689 8.33252 26.4414ZM8.63002 32.333C9.16001 32.388 9.68917 32.4288 10.2175 32.4572C10.3608 32.4647 10.5033 32.4647 10.6466 32.4705C11.0308 32.4855 11.415 32.4997 11.7983 32.5005C11.8283 32.5005 11.8575 32.503 11.8875 32.503C11.9583 32.503 12.0275 32.4963 12.0983 32.4955C12.6808 32.4913 13.2624 32.4697 13.8424 32.433C13.9933 32.4238 14.1441 32.4147 14.2949 32.403C14.9566 32.3513 15.6166 32.2838 16.2732 32.1897C16.3191 32.183 16.3649 32.1738 16.4116 32.1672C17.019 32.0772 17.624 31.9647 18.2265 31.8388C18.389 31.8047 18.5507 31.7705 18.7123 31.7338C19.3573 31.588 19.9998 31.4289 20.6373 31.2414L21.5031 30.9864C21.6465 30.9439 21.7823 30.8905 21.9123 30.8289C21.9356 30.818 21.9565 30.803 21.9798 30.7914C22.0865 30.7364 22.1898 30.678 22.2865 30.6105C22.3031 30.5989 22.3181 30.5847 22.334 30.573C22.434 30.4997 22.5281 30.4214 22.6139 30.3364C22.6239 30.3264 22.6331 30.3147 22.6439 30.3047C22.7331 30.213 22.8148 30.1164 22.8881 30.0122C22.8906 30.008 22.8939 30.0055 22.8973 30.0014H37.1045C37.107 30.0055 37.1104 30.008 37.1137 30.0122C37.187 30.1155 37.2687 30.213 37.3579 30.3047C37.3679 30.3155 37.377 30.3264 37.3879 30.3364C37.4745 30.4214 37.5679 30.4997 37.6679 30.573C37.6845 30.5855 37.6995 30.5989 37.7162 30.6114C37.812 30.678 37.9154 30.7372 38.022 30.7914C38.0454 30.803 38.0662 30.818 38.0895 30.8289C38.2195 30.8905 38.3554 30.9439 38.4979 30.9864L39.3637 31.2414C39.9978 31.428 40.637 31.5863 41.2786 31.7313C41.4486 31.7697 41.6186 31.8063 41.7886 31.8422C42.3678 31.963 42.9494 32.0705 43.5328 32.158C43.6028 32.1688 43.6728 32.183 43.7428 32.193C44.3878 32.2855 45.0361 32.3513 45.6861 32.4022C45.8519 32.4155 46.0177 32.4247 46.1844 32.4355C46.746 32.4705 47.3094 32.4913 47.8744 32.4955C47.9544 32.4963 48.0335 32.5038 48.1135 32.5038C48.1469 32.5038 48.1802 32.5013 48.2135 32.5013C48.5718 32.5005 48.9302 32.4872 49.2893 32.473C49.456 32.4663 49.6227 32.4663 49.7902 32.4572C50.3043 32.4297 50.8201 32.3897 51.3351 32.3363C51.3468 32.3355 51.3593 32.3347 51.371 32.3338C51.6501 32.3047 51.9168 32.2413 52.1751 32.163C52.1926 32.158 52.2101 32.1572 52.2276 32.1522L52.8184 33.3347H7.18254L7.77336 32.1522C7.79086 32.158 7.80836 32.158 7.82586 32.163C8.08503 32.2405 8.35085 32.3038 8.63002 32.333ZM7.50087 44.987V41.667H9.3975L7.50087 44.987ZM12.27 40.0004H6.66755V35.0005H53.3334V40.0004H47.7302H12.27ZM52.5001 44.987L50.6035 41.667H52.5001V44.987Z" fill="#2A657E"/>
</g>
<defs>
<clipPath id="clip0_707_1687">
<rect width="50" height="50" fill="white" transform="translate(5 5)"/>
</clipPath>
</defs>
</svg>
