<svg width="512" height="165" viewBox="0 0 512 165" fill="none" xmlns="http://www.w3.org/2000/svg">
<path fill-rule="evenodd" clip-rule="evenodd" d="M76.4392 164.637C69.4585 164.637 62.807 161.668 58.1445 156.473L6.73136 99.1825C-1.6509 89.842 -1.65089 75.687 6.73137 66.3465L58.1464 9.05419C62.8088 3.85876 69.4603 0.890732 76.4411 0.890732H487.352C500.927 0.890732 511.934 11.8962 511.934 25.4722V140.055C511.934 153.63 500.927 164.637 487.352 164.637H76.4392ZM105.774 107.31C119.331 103.678 127.376 89.7431 123.744 76.1862C120.111 62.6293 106.176 54.5841 92.6193 58.2167C79.0626 61.8492 71.0173 75.7841 74.6498 89.3408C78.2823 102.898 92.2172 110.943 105.774 107.31Z" fill="#F2C452"/>
</svg>
