<svg width="49" height="49" viewBox="0 0 49 49" fill="none" xmlns="http://www.w3.org/2000/svg">
<path d="M21.9021 22.4244C25.6826 22.4244 28.7549 19.352 28.7549 15.5716C28.7549 11.7911 25.6826 8.71875 21.9021 8.71875C18.1217 8.71875 15.0493 11.7911 15.0493 15.5716C15.0493 19.352 18.1217 22.4244 21.9021 22.4244ZM21.9021 11.003C24.4262 11.003 26.4707 13.0474 26.4707 15.5716C26.4707 18.0957 24.4262 20.1401 21.9021 20.1401C19.378 20.1401 17.3336 18.0957 17.3336 15.5716C17.3336 13.0474 19.378 11.003 21.9021 11.003Z" fill="#FBF6ED"/>
<path d="M21.9021 23.5664C15.449 23.5664 9.33862 28.0093 9.33862 32.7035V38.4142C9.33862 39.0423 9.85258 39.5563 10.4808 39.5563H33.3235C33.9516 39.5563 34.4656 39.0423 34.4656 38.4142V32.7035C34.4656 28.0093 28.3552 23.5664 21.9021 23.5664ZM32.1813 37.272H11.6229V32.7035C11.6229 29.3113 16.8082 25.8507 21.9021 25.8507C26.996 25.8507 32.1813 29.3113 32.1813 32.7035V37.272Z" fill="#FBF6ED"/>
<path d="M39.034 16.7135H36.7497V14.4292C36.7497 13.8011 36.2358 13.2871 35.6076 13.2871C34.9794 13.2871 34.4655 13.8011 34.4655 14.4292V16.7135H32.1812C31.553 16.7135 31.0391 17.2275 31.0391 17.8556C31.0391 18.4838 31.553 18.9978 32.1812 18.9978H34.4655V21.2821C34.4655 21.9102 34.9794 22.4242 35.6076 22.4242C36.2358 22.4242 36.7497 21.9102 36.7497 21.2821V18.9978H39.034C39.6622 18.9978 40.1761 18.4838 40.1761 17.8556C40.1761 17.2275 39.6622 16.7135 39.034 16.7135Z" fill="#FBF6ED"/>
</svg>
