<svg width="60" height="60" viewBox="0 0 60 60" fill="none" xmlns="http://www.w3.org/2000/svg">
<path d="M56.9989 21.7745L36.1638 10.068V9.3299C36.1638 6.62229 33.9607 4.41919 31.2531 4.41919H28.7469C26.0393 4.41919 23.8362 6.62229 23.8362 9.3299V10.068L3.00114 21.7745C2.61174 21.9932 2.41895 22.4478 2.53212 22.8794C2.6453 23.312 3.03567 23.6132 3.48214 23.6132H6.49619V49.6208H6.24394C4.50697 49.6208 3.09369 51.0345 3.09369 52.7715V54.5986C3.09369 55.1415 3.53345 55.5808 4.07584 55.5808H55.9242C56.4666 55.5808 56.9063 55.1415 56.9063 54.5986V52.7715C56.9063 51.0345 55.493 49.6208 53.7561 49.6208H53.5038V23.6132H56.5179C56.9643 23.6132 57.3547 23.312 57.4679 22.8794C57.5811 22.4478 57.3883 21.9932 56.9989 21.7745ZM42.4528 21.6489L34.225 11.6251H34.9246L52.7648 21.6489H42.4528ZM38.4892 49.6208V40.9225H44.3686V49.6208H38.4892ZM36.5249 49.6208H30.9822V40.9225H36.5249V49.6208ZM23.4751 49.6208V40.9225H29.0179V49.6208H23.4751ZM15.6314 49.6208V40.9225H21.5108V49.6208H15.6314ZM23.4751 38.9582V23.6132H36.5249V38.9582H23.4751ZM20.089 21.6489L28.3167 11.6251H31.6833L39.9111 21.6489H20.089ZM25.8005 9.3299C25.8005 7.70514 27.1222 6.38348 28.7469 6.38348H31.2531C32.8779 6.38348 34.1995 7.70514 34.1995 9.3299V9.6608H25.8005V9.3299ZM25.0754 11.6251H25.775L17.5472 21.6489H7.2352L25.0754 11.6251ZM21.5108 23.6132V38.9582H8.46048V23.6132H21.5108ZM8.46049 40.9225H13.6671V49.6208H8.46049V40.9225ZM54.942 52.7715V53.6165H5.05798V52.7715C5.05798 52.1174 5.58981 51.585 6.24394 51.585H53.7561C54.4102 51.585 54.942 52.1174 54.942 52.7715ZM46.3329 49.6208V40.9225H51.5395V49.6208H46.3329ZM51.5395 38.9582H38.4892V23.6132H51.5395V38.9582Z" fill="#F2C452"/>
</svg>
