<svg width="48" height="49" viewBox="0 0 48 49" fill="none" xmlns="http://www.w3.org/2000/svg">
<path d="M23.2792 13.1318H13.2988L13.2986 23.187M24.9292 34.8524H35.0194V24.85" stroke="#FBF6ED" stroke-width="2.89222" stroke-linecap="round"/>
<path d="M26.4023 20.11C25.9356 20.5845 25.9419 21.3475 26.4164 21.8142C26.8909 22.2809 27.6539 22.2746 28.1206 21.8001L26.4023 20.11ZM40.4402 8.7713C40.4347 8.10577 39.8907 7.57072 39.2252 7.57624L28.3797 7.66611C27.7142 7.67163 27.1791 8.21562 27.1847 8.88115C27.1902 9.54668 27.7342 10.0817 28.3997 10.0762L38.0401 9.99632L38.12 19.6367C38.1255 20.3023 38.6695 20.8373 39.335 20.8318C40.0005 20.8263 40.5356 20.2823 40.5301 19.6167L40.4402 8.7713ZM28.1206 21.8001L40.0943 9.62632L38.376 7.93625L26.4023 20.11L28.1206 21.8001Z" fill="white"/>
<path d="M21.7056 28.3409C22.1789 27.8729 22.1833 27.1099 21.7154 26.6366C21.2475 26.1633 20.4845 26.159 20.0112 26.6269L21.7056 28.3409ZM7.51039 39.482C7.50659 40.1475 8.04304 40.6901 8.70858 40.6939L19.5542 40.7559C20.2198 40.7597 20.7624 40.2232 20.7662 39.5577C20.77 38.8922 20.2335 38.3496 19.568 38.3458L9.92742 38.2907L9.9825 28.6501C9.9863 27.9846 9.44985 27.442 8.78431 27.4381C8.11877 27.4343 7.57616 27.9708 7.57236 28.6363L7.51039 39.482ZM20.0112 26.6269L7.86822 38.6319L9.56271 40.3458L21.7056 28.3409L20.0112 26.6269Z" fill="white"/>
</svg>
