<svg width="32" height="16" viewBox="0 0 32 16" fill="none" xmlns="http://www.w3.org/2000/svg">
<path d="M1 9.33496C0.447715 9.33496 -4.82823e-08 8.88725 0 8.33496C4.82823e-08 7.78268 0.447715 7.33496 1 7.33496L1 9.33496ZM31.7071 7.62786C32.0976 8.01838 32.0976 8.65155 31.7071 9.04207L25.3431 15.406C24.9526 15.7966 24.3195 15.7966 23.9289 15.406C23.5384 15.0155 23.5384 14.3823 23.9289 13.9918L29.5858 8.33496L23.9289 2.67811C23.5384 2.28758 23.5384 1.65442 23.9289 1.2639C24.3195 0.873371 24.9526 0.873371 25.3431 1.2639L31.7071 7.62786ZM1 7.33496L31 7.33496L31 9.33496L1 9.33496L1 7.33496Z" fill="#F2C452"/>
</svg>
