<svg width="32" height="16" viewBox="0 0 32 16" fill="none" xmlns="http://www.w3.org/2000/svg">
<path d="M31 7.33496C31.5523 7.33496 32 7.78268 32 8.33496C32 8.88725 31.5523 9.33496 31 9.33496V7.33496ZM0.292891 9.04207C-0.097633 8.65154 -0.097633 8.01838 0.292891 7.62786L6.65685 1.26389C7.04738 0.87337 7.68054 0.87337 8.07107 1.26389C8.46159 1.65442 8.46159 2.28758 8.07107 2.67811L2.41421 8.33496L8.07107 13.9918C8.46159 14.3823 8.46159 15.0155 8.07107 15.406C7.68054 15.7966 7.04738 15.7966 6.65685 15.406L0.292891 9.04207ZM31 9.33496L0.999998 9.33496V7.33496L31 7.33496V9.33496Z" fill="#F2C452"/>
</svg>
