<svg width="18" height="16" viewBox="0 0 18 16" fill="none" xmlns="http://www.w3.org/2000/svg">
<path d="M1.5 7.22461C1.08579 7.22461 0.75 7.5604 0.75 7.97461C0.75 8.38882 1.08579 8.72461 1.5 8.72461V7.22461ZM17.0303 8.50494C17.3232 8.21205 17.3232 7.73717 17.0303 7.44428L12.2574 2.67131C11.9645 2.37842 11.4896 2.37842 11.1967 2.67131C10.9038 2.9642 10.9038 3.43908 11.1967 3.73197L15.4393 7.97461L11.1967 12.2172C10.9038 12.5101 10.9038 12.985 11.1967 13.2779C11.4896 13.5708 11.9645 13.5708 12.2574 13.2779L17.0303 8.50494ZM1.5 8.72461H16.5V7.22461H1.5V8.72461Z" fill="#2A657E"/>
</svg>
