<svg width="43" height="43" viewBox="0 0 43 43" fill="none" xmlns="http://www.w3.org/2000/svg">
<g clip-path="url(#clip0_1044_1672)">
<path d="M31.9682 19.4509C31.9682 27.5727 21.5259 34.5343 21.5259 34.5343C21.5259 34.5343 11.0835 27.5727 11.0835 19.4509C11.0835 16.6814 12.1837 14.0253 14.142 12.067C16.1003 10.1087 18.7564 9.0085 21.5259 9.0085C24.2954 9.0085 26.9514 10.1087 28.9097 12.067C30.8681 14.0253 31.9682 16.6814 31.9682 19.4509Z" stroke="#2A657E" stroke-width="1.59122" stroke-linecap="round" stroke-linejoin="round"/>
<path d="M21.5253 22.9001C23.4065 22.9001 24.9315 21.3825 24.9315 19.5104C24.9315 17.6384 23.4065 16.1208 21.5253 16.1208C19.6441 16.1208 18.1191 17.6384 18.1191 19.5104C18.1191 21.3825 19.6441 22.9001 21.5253 22.9001Z" stroke="#2A657E" stroke-width="1.59122" stroke-linecap="round" stroke-linejoin="round"/>
</g>
<defs>
<clipPath id="clip0_1044_1672">
<rect width="27.2496" height="27.117" fill="white" transform="translate(7.90088 8.21289)"/>
</clipPath>
</defs>
</svg>
