<svg width="61" height="61" viewBox="0 0 61 61" fill="none" xmlns="http://www.w3.org/2000/svg">
<path d="M19.0831 39.7028C19.2882 39.8208 19.5318 39.8527 19.7603 39.7915C19.9889 39.7302 20.1839 39.5808 20.3024 39.3759L27.8938 26.2278C28.1671 26.6585 28.5393 27.0177 28.9794 27.2756L32.9919 29.5921C33.3776 29.8141 33.8046 29.9551 34.2466 30.0065C34.6887 30.0579 35.1366 30.0187 35.5629 29.8912C35.6611 30.3201 35.8463 30.7244 36.107 31.0789C36.3676 31.4334 36.6983 31.7307 37.0785 31.9522L41.0736 34.2592C41.4747 34.4889 41.9201 34.6306 42.3801 34.6752C42.8401 34.7197 43.3044 34.666 43.7421 34.5176C44.1798 34.3692 44.581 34.1295 44.9191 33.8143C45.2572 33.4992 45.5245 33.1158 45.7032 32.6895C49.4564 23.3554 45.93 12.6458 37.5003 7.78556C29.0779 2.92851 18.0521 5.23023 11.8468 13.1429C11.5672 13.5108 11.369 13.9339 11.2652 14.3843C11.1614 14.8346 11.1545 15.3018 11.2449 15.755C11.3353 16.2082 11.521 16.637 11.7895 17.013C12.0581 17.3891 12.4036 17.7038 12.8029 17.9363L16.798 20.2433C17.2868 20.5256 17.8414 20.6741 18.406 20.6738C18.723 20.6688 19.0376 20.6175 19.3399 20.5216C19.4424 20.9554 19.6323 21.3636 19.8981 21.7214C20.1638 22.0792 20.4998 22.379 20.8855 22.6025L24.898 24.9199C25.3396 25.1731 25.8349 25.3181 26.3434 25.3428L18.7563 38.4835C18.6977 38.585 18.6596 38.6971 18.6443 38.8133C18.629 38.9295 18.6368 39.0476 18.6671 39.1609C18.6975 39.2741 18.7498 39.3802 18.8212 39.4732C18.8926 39.5662 18.9816 39.6442 19.0831 39.7028ZM33.8844 28.046L29.8719 25.7295C29.7053 25.6335 29.5593 25.5056 29.4421 25.3532C29.325 25.2007 29.2391 25.0267 29.1893 24.841C29.1396 24.6553 29.1269 24.4616 29.152 24.271C29.1772 24.0804 29.2396 23.8966 29.3359 23.7302L37.3269 9.88921C38.8906 11.5654 39.1883 13.8015 39.0134 16.9075C38.6989 20.0894 37.864 23.1981 36.5421 26.1095C36.047 27.2725 35.4497 28.8384 33.8844 28.046ZM44.0473 32.0246C43.9654 32.2148 43.844 32.3854 43.6913 32.5254C43.5386 32.6653 43.358 32.7712 43.1614 32.8363C42.9648 32.9013 42.7566 32.924 42.5506 32.9027C42.3445 32.8815 42.1454 32.8168 41.9661 32.713L37.971 30.4061C37.6477 30.215 37.4095 29.9079 37.3047 29.5473C37.2 29.1867 37.2366 28.7998 37.4071 28.4652C39.7812 23.569 41.5494 17.9873 40.5725 12.5267C42.9027 15.1349 44.4616 18.3396 45.0752 21.7828C45.6889 25.226 45.333 28.772 44.0473 32.0246ZM17.6904 18.6971L13.6953 16.3901C13.5158 16.287 13.3602 16.1469 13.2388 15.9791C13.1173 15.8114 13.0329 15.6198 12.991 15.417C12.9491 15.2142 12.9506 15.0049 12.9956 14.8027C13.0405 14.6006 13.1279 14.4103 13.2518 14.2444C15.4237 11.5023 18.3164 9.41931 21.6057 8.22892C24.895 7.03854 28.4508 6.78782 31.8746 7.50487C28.702 8.51286 25.1311 11.2078 21.9707 15.0682C21.2001 16.0024 20.479 17.0011 19.7891 18.0112C19.7006 18.1979 19.5749 18.3646 19.4199 18.5011C19.2648 18.6376 19.0836 18.7412 18.8872 18.8053C18.6908 18.8695 18.4834 18.893 18.2777 18.8744C18.0719 18.8558 17.8721 18.7955 17.6904 18.6971ZM25.7904 23.3738L21.7779 21.0563C21.6025 20.9548 21.4497 20.8184 21.329 20.6556C21.2082 20.4929 21.1219 20.3072 21.0755 20.1099C21.0322 19.9286 21.0257 19.7406 21.0562 19.5568C21.0868 19.373 21.1539 19.1972 21.2535 19.0397C21.9143 18.0435 22.6291 17.0842 23.3945 16.1659C26.1594 12.7854 30.383 9.25001 33.9757 8.873C34.5797 8.79648 35.1929 8.83845 35.7809 8.99658L27.7897 22.8377C27.5954 23.1736 27.2757 23.4186 26.9009 23.5191C26.5261 23.6196 26.1268 23.5673 25.7904 23.3738Z" fill="#F2C452"/>
<path d="M49.809 44.8022C49.7317 44.6626 49.6184 44.5462 49.4809 44.4651C49.3435 44.3841 49.1868 44.3412 49.0272 44.3411H15.9169L11.9601 34.4309C11.894 34.2652 11.7796 34.1231 11.6319 34.023C11.4841 33.923 11.3098 33.8695 11.1313 33.8696H6.85122C6.70599 33.8713 6.56331 33.908 6.43539 33.9768C6.30746 34.0456 6.1981 34.1443 6.11665 34.2646C6.0352 34.3848 5.98408 34.523 5.96767 34.6674C5.95126 34.8117 5.97005 34.9578 6.02242 35.0933L11.7344 49.3686V54.3576C11.7389 54.5914 11.8348 54.814 12.0017 54.9778C12.1686 55.1415 12.3931 55.2333 12.6269 55.2332C12.8607 55.2332 13.0852 55.1415 13.252 54.9777C13.4189 54.814 13.5149 54.5913 13.5193 54.3575V50.0888H42.3487V54.3576C42.3487 54.5943 42.4427 54.8213 42.6101 54.9887C42.7775 55.156 43.0045 55.25 43.2412 55.25C43.4779 55.25 43.7048 55.156 43.8722 54.9887C44.0396 54.8213 44.1336 54.5943 44.1336 54.3576V50.0888H46.1625L48.751 54.7881C48.828 54.928 48.9412 55.0447 49.0787 55.1259C49.2163 55.2072 49.3731 55.25 49.5328 55.25H54.0604C54.2156 55.2501 54.3682 55.2097 54.503 55.1327C54.6379 55.0558 54.7503 54.945 54.8293 54.8113C54.9082 54.6777 54.9509 54.5257 54.9532 54.3705C54.9554 54.2152 54.9172 54.0621 54.8422 53.9262L49.809 44.8022ZM50.06 53.4652L47.4716 48.7659C47.3945 48.626 47.2813 48.5093 47.1438 48.4281C47.0063 48.3468 46.8495 48.3039 46.6898 48.3039H13.2308L8.16985 35.6546H10.5265L14.4833 45.5647C14.5494 45.7305 14.6638 45.8725 14.8115 45.9726C14.9593 46.0727 15.1337 46.1261 15.3121 46.126H48.5L52.5491 53.4652H50.06Z" fill="#F2C452"/>
</svg>
