<svg width="40" height="40" viewBox="0 0 40 40" fill="none" xmlns="http://www.w3.org/2000/svg">
<g clip-path="url(#clip0_1677_5797)">
<path d="M34.2214 30.46V28.1202H34.2915H35.3481C35.8928 28.1202 36.3345 27.6924 36.3345 27.1647C36.3345 26.6369 35.8928 26.2091 35.3481 26.2091H35.2466C35.0111 22.4859 33.403 19.0171 30.6567 16.3567C27.9104 13.6962 24.3297 12.1383 20.4864 11.9102V9.69684H23.7262C24.271 9.69684 24.7126 9.269 24.7126 8.74127C24.7126 5.95686 22.3742 3.69159 19.5 3.69159C16.6258 3.69159 14.2875 5.95686 14.2875 8.74127C14.2875 9.269 14.7291 9.69684 15.2739 9.69684H18.5136V11.9102C14.6703 12.1384 11.0896 13.6962 8.34328 16.3567C5.59696 19.0172 3.98894 22.4859 3.75339 26.2091H3.65192C3.10717 26.2091 2.66553 26.6369 2.66553 27.1647C2.66553 27.6924 3.10717 28.1202 3.65192 28.1202H4.70842H4.77852V30.46C3.5519 30.8601 2.66553 31.9842 2.66553 33.3058C2.66553 34.9614 4.05595 36.3084 5.76498 36.3084H33.235C34.944 36.3084 36.3345 34.9614 36.3345 33.3058C36.3345 31.9842 35.4481 30.8601 34.2214 30.46ZM19.5 5.60273C20.9426 5.60273 22.1681 6.52091 22.5864 7.7857H16.4138C16.8321 6.52091 18.0574 5.60273 19.5 5.60273ZM19.5 13.7909C26.7804 13.7909 32.7627 19.2792 33.2703 26.2091H33.235H5.76498H5.72973C6.23726 19.2792 12.2196 13.7909 19.5 13.7909ZM32.2486 28.1202V30.3032H6.75137V28.1202H32.2486ZM33.235 34.3972H5.76498C5.14375 34.3972 4.63832 33.9076 4.63832 33.3058C4.63832 32.7039 5.14375 32.2143 5.76498 32.2143H33.235C33.8563 32.2143 34.3617 32.7039 34.3617 33.3058C34.3617 33.9076 33.8563 34.3972 33.235 34.3972Z" fill="#FBF6ED"/>
</g>
<defs>
<clipPath id="clip0_1677_5797">
<rect width="33.6689" height="32.6168" fill="white" transform="translate(2.66553 3.69159)"/>
</clipPath>
</defs>
</svg>
