<svg width="41" height="41" viewBox="0 0 41 41" fill="none" xmlns="http://www.w3.org/2000/svg">
<path fill-rule="evenodd" clip-rule="evenodd" d="M4.66553 12.1163C4.11324 12.1163 3.66553 12.564 3.66553 13.1163C3.66553 13.6686 4.11324 14.1163 4.66553 14.1163H36.3345C36.8867 14.1163 37.3345 13.6686 37.3345 13.1163C37.3345 12.564 36.8867 12.1163 36.3345 12.1163H4.66553ZM4.66553 17.1163C4.11324 17.1163 3.66553 17.564 3.66553 18.1163C3.66553 18.6686 4.11324 19.1163 4.66553 19.1163H36.3345C36.8867 19.1163 37.3345 18.6686 37.3345 18.1163C37.3345 17.564 36.8867 17.1163 36.3345 17.1163H4.66553ZM3.66553 23.1163C3.66553 22.564 4.11324 22.1163 4.66553 22.1163H36.3345C36.8867 22.1163 37.3345 22.564 37.3345 23.1163C37.3345 23.6686 36.8867 24.1163 36.3345 24.1163H4.66553C4.11324 24.1163 3.66553 23.6686 3.66553 23.1163ZM4.66553 27.1163C4.11324 27.1163 3.66553 27.564 3.66553 28.1163C3.66553 28.6686 4.11324 29.1163 4.66553 29.1163H36.3345C36.8867 29.1163 37.3345 28.6686 37.3345 28.1163C37.3345 27.564 36.8867 27.1163 36.3345 27.1163H4.66553Z" fill="#FBF6ED"/>
</svg>
