<svg width="26" height="26" viewBox="0 0 26 26" fill="none" xmlns="http://www.w3.org/2000/svg">
<path fill-rule="evenodd" clip-rule="evenodd" d="M2.38852 0.905377C2.19616 0.707259 1.88415 0.707145 1.69164 0.905121C1.49913 1.1031 1.49902 1.42419 1.69138 1.62231L12.3054 12.5538L0.990234 24.1988C0.797797 24.3969 0.797797 24.718 0.990234 24.916C1.18267 25.1141 1.49467 25.1141 1.68711 24.916L13.002 13.2712L24.3127 24.9202C24.5051 25.1184 24.8171 25.1185 25.0096 24.9205C25.2021 24.7225 25.2022 24.4014 25.0099 24.2033L13.6989 12.554L24.3168 1.62665C24.5092 1.42861 24.5092 1.10751 24.3168 0.909462C24.1243 0.711415 23.8123 0.711415 23.6199 0.909462L13.0023 11.8366L2.38852 0.905377Z" fill="white"/>
</svg>
