<svg width="60" height="60" viewBox="0 0 60 60" fill="none" xmlns="http://www.w3.org/2000/svg">
<path d="M31.4575 20.4521C29.8984 20.4521 28.3859 20.7608 26.962 21.3695C26.5901 21.5285 26.4175 21.959 26.5766 22.331C26.7356 22.7029 27.1659 22.8754 27.5379 22.7165C28.7786 22.186 30.0974 21.917 31.4575 21.917C36.96 21.917 41.4366 26.3936 41.4366 31.896C41.4366 37.3985 36.96 41.8749 31.4575 41.8749C25.9551 41.8749 21.4785 37.3984 21.4785 31.896C21.4785 28.8944 22.8117 26.08 25.1362 24.1746C25.4491 23.9182 25.4948 23.4567 25.2384 23.1439C24.982 22.8311 24.5205 22.7853 24.2076 23.0417C21.5423 25.2265 20.0137 28.4537 20.0137 31.896C20.0137 38.2062 25.1474 43.3398 31.4575 43.3398C37.7677 43.3398 42.9014 38.2061 42.9014 31.896C42.9014 25.5859 37.7677 20.4521 31.4575 20.4521Z" fill="#F2C452"/>
<path d="M31.4574 16.5149C22.9763 16.5149 16.0764 23.4148 16.0764 31.8959C16.0764 40.377 22.9763 47.2769 31.4574 47.2769C39.9385 47.2769 46.8384 40.3771 46.8384 31.8959C46.8384 23.4147 39.9385 16.5149 31.4574 16.5149ZM31.4574 45.812C23.784 45.812 17.5413 39.5693 17.5413 31.8959C17.5413 24.2224 23.784 17.9797 31.4574 17.9797C39.1308 17.9797 45.3735 24.2225 45.3735 31.8959C45.3735 39.5692 39.1308 45.812 31.4574 45.812Z" fill="#F2C452"/>
<path d="M15.6436 7.50556C14.7107 7.56591 13.9799 8.3621 13.9799 9.31826V14.8653C13.9799 15.1214 13.7716 15.3296 13.5156 15.3296C13.2596 15.3296 13.0513 15.1213 13.0513 14.8653V9.31836C13.0513 8.3622 12.3205 7.56591 11.3877 7.50556C10.3525 7.43827 9.48985 8.26191 9.48995 9.28242V14.8653C9.48995 15.1214 9.28165 15.3296 9.02569 15.3296C8.76964 15.3296 8.56133 15.1213 8.56133 14.8653V9.31836C8.56133 8.3622 7.83057 7.56591 6.89776 7.50556C5.86426 7.43847 5 8.26181 5 9.28242C5 9.28242 5 18.8152 5 18.8183C5 20.5041 5.80811 22.0814 6.9626 23.2784C7.09063 23.4113 7.22305 23.5394 7.35899 23.6624C8.20655 24.4295 8.4921 24.688 8.4921 25.6925V49.9478C8.4921 51.4799 9.73858 52.7264 11.2706 52.7264C12.8027 52.7264 14.0491 51.4799 14.0491 49.9478V25.6926C14.0491 24.688 14.3347 24.4296 15.1823 23.6623C16.5983 22.3808 17.5413 20.7764 17.5413 18.818V9.28242C17.5413 8.26181 16.6786 7.43847 15.6436 7.50556ZM12.5843 49.9478C12.5843 50.6721 11.9949 51.2615 11.2706 51.2615C10.5463 51.2615 9.95694 50.6721 9.95694 49.9478V36.5729H12.5843V49.9478ZM16.0765 18.8181C16.0765 20.3573 15.3049 21.5757 14.1994 22.5764C13.2971 23.3931 12.5843 24.0382 12.5843 25.6927V35.1082H9.95694V25.6927C9.95694 24.0383 9.24434 23.3933 8.3421 22.5766C7.23223 21.5719 6.46485 20.3645 6.46485 18.8184V9.28242C6.46485 9.10087 6.61856 8.95478 6.80313 8.96728C6.96485 8.97773 7.09649 9.13525 7.09649 9.31826V14.8653C7.09649 15.9291 7.96192 16.7944 9.02569 16.7944C10.0895 16.7944 10.9548 15.929 10.9548 14.8653V9.28242C10.9548 9.10087 11.1081 8.95507 11.2931 8.96728C11.4548 8.97773 11.5864 9.13525 11.5864 9.31826V14.8653C11.5864 15.9291 12.4519 16.7944 13.5156 16.7944C14.5794 16.7944 15.4447 15.929 15.4447 14.8653V9.31836C15.4447 9.13525 15.5764 8.97792 15.7382 8.96738C15.9223 8.95488 16.0765 9.10087 16.0765 9.28252C16.0765 9.28252 16.0765 18.8159 16.0765 18.8181Z" fill="#F2C452"/>
<path d="M51.2267 7.59956C49.285 8.7186 48.0789 10.806 48.0789 13.047V25.0578C48.0789 27.869 48.5384 30.6422 49.4429 33.3028V49.9478C49.443 51.4799 50.6895 52.7264 52.2215 52.7264C53.7536 52.7264 55.0001 51.4799 55.0001 49.9479C55.0001 49.9479 55.0001 9.8521 55.0001 9.78013C55.0001 7.88472 52.8691 6.65298 51.2267 7.59956ZM53.5353 49.9478C53.5353 50.6721 52.946 51.2615 52.2216 51.2615C51.4973 51.2615 50.908 50.6721 50.908 49.9478V33.9165H53.5353V49.9478ZM53.5353 32.4517H50.7033C49.9336 30.0595 49.5438 27.5749 49.5438 25.0579V13.047C49.5438 11.3281 50.469 9.727 51.9584 8.8687C52.648 8.47134 53.5353 8.98335 53.5353 9.78003V32.4517Z" fill="#F2C452"/>
</svg>
