<svg width="122" height="122" viewBox="0 0 122 122" fill="none" xmlns="http://www.w3.org/2000/svg">
<circle cx="60.8818" cy="60.5693" r="49.5832" fill="#F2C452" stroke="url(#paint0_linear_1450_4534)" stroke-width="0.833673"/>
<g clip-path="url(#clip0_1450_4534)">
<path d="M80.0225 45.1277H74.0943C74.276 44.6872 74.4216 44.2172 74.5266 43.7219C75.1428 40.8146 74.1498 38.2368 72.0558 37.3074C70.9136 36.8004 68.9813 36.5923 66.2593 38.4777C64.6205 39.6127 62.8173 41.4143 60.8819 43.8469C58.9455 41.4122 57.1423 39.6089 55.5045 38.4725C52.7828 36.584 50.8514 36.7914 49.7104 37.2978C47.6185 38.2262 46.6273 40.8053 47.2441 43.7154C47.3496 44.213 47.4959 44.6852 47.6784 45.1276H41.7412C38.5104 45.1276 35.8818 47.7561 35.8818 50.987V56.8463H39.7881V78.3307C39.7881 81.5616 42.4166 84.1901 45.6475 84.1901H76.1162C79.3471 84.1901 81.9756 81.5616 81.9756 78.3307V56.8463H85.8818V50.987C85.8818 47.7562 83.2533 45.1277 80.0225 45.1277ZM55.0225 80.2839H45.6475C44.5705 80.2839 43.6943 79.4078 43.6943 78.3308V56.8464H55.0225V80.2839ZM55.0225 52.9402H39.7881V50.9871C39.7881 49.9101 40.6643 49.0339 41.7412 49.0339H55.0225V52.9402ZM53.0693 45.1277C51.5795 45.1277 51.1138 43.133 51.0655 42.9055C50.8074 41.6879 51.1542 40.9307 51.2951 40.8682C51.3146 40.8595 51.3528 40.8526 51.4103 40.8526C51.6602 40.8526 52.2727 40.9844 53.2777 41.6818C54.0867 42.2431 55.2842 43.2676 56.8765 45.1276L53.0693 45.1277ZM62.835 80.2839H58.9287V56.8464H62.835V80.2839ZM62.835 52.9402H58.9287V49.0339H62.835V52.9402ZM68.4835 41.6889C69.6998 40.8464 70.3422 40.8206 70.4712 40.8778C70.6127 40.9407 70.9626 41.6976 70.7052 42.912C70.6572 43.1387 70.1924 45.1277 68.6943 45.1277H64.888C66.4781 43.2715 67.6747 42.2491 68.4835 41.6889ZM78.0693 78.3308C78.0693 79.4078 77.1932 80.2839 76.1162 80.2839H66.7412V56.8464H78.0693V78.3308ZM81.9756 52.9402H66.7412V49.0339H80.0225C81.0994 49.0339 81.9756 49.9101 81.9756 50.9871V52.9402Z" fill="white"/>
</g>
<defs>
<linearGradient id="paint0_linear_1450_4534" x1="67.5112" y1="10.5693" x2="101.107" y2="113.604" gradientUnits="userSpaceOnUse">
<stop stop-color="white"/>
<stop offset="1" stop-color="#999999"/>
</linearGradient>
<clipPath id="clip0_1450_4534">
<rect width="50" height="50" fill="white" transform="translate(35.8818 35.5693)"/>
</clipPath>
</defs>
</svg>
