<svg width="60" height="60" viewBox="0 0 60 60" fill="none" xmlns="http://www.w3.org/2000/svg">
<path d="M50.1316 41.8422V14.2106C50.1316 12.0305 48.541 10.2632 46.5789 10.2632C44.6169 10.2632 43.0263 12.0304 43.0263 14.2106V19.4737H40.6579V18.1579C40.6521 15.9806 39.0649 14.217 37.1052 14.2106H22.8948C20.9351 14.217 19.3479 15.9806 19.3421 18.1579V19.4737H16.9737V14.2106C16.9737 12.0305 15.3832 10.2632 13.4211 10.2632C11.459 10.2632 9.86843 12.0304 9.86843 14.2106V41.8422C8.56204 41.8465 7.50388 43.0221 7.5 44.4738V47.1054C7.50388 48.5569 8.56204 49.7326 9.86843 49.7369H50.1316C51.438 49.7326 52.4961 48.5569 52.5 47.1054V44.4738C52.4961 43.0221 51.438 41.8465 50.1316 41.8422ZM45.3947 14.2106C45.3947 13.4839 45.925 12.8948 46.5789 12.8948C47.2329 12.8948 47.7631 13.4839 47.7631 14.2106V41.8422H45.3947V14.2106ZM21.7106 18.1579C21.7106 17.4313 22.2408 16.8421 22.8948 16.8421H37.1053C37.7593 16.8421 38.2895 17.4313 38.2895 18.1579V23.4211C38.2895 24.1477 37.7593 24.7369 37.1053 24.7369H35.9211V20.7895C35.9211 20.0629 35.391 19.4737 34.7369 19.4737C34.0828 19.4737 33.5527 20.0629 33.5527 20.7895V24.7369H31.1843V20.7895C31.1843 20.0629 30.654 19.4737 30 19.4737C29.3461 19.4737 28.8158 20.0629 28.8158 20.7895V24.7369H26.4474V20.7895C26.4474 20.0629 25.9172 19.4737 25.2632 19.4737C24.6092 19.4737 24.079 20.0629 24.079 20.7895V24.7369H22.8948C22.2408 24.7369 21.7106 24.1477 21.7106 23.4211V18.1579ZM16.9737 22.1053H19.3421V23.4211C19.3479 25.5985 20.9351 27.362 22.8948 27.3685H37.1053C39.0649 27.362 40.6521 25.5985 40.658 23.4211V22.1053H43.0264V41.8422H40.0185C40.4365 41.0429 40.6571 40.1351 40.658 39.2106C40.658 36.7501 37.5198 31.579 36.8922 30.5658C36.4813 29.9699 35.7134 29.8569 35.1772 30.3135C35.0919 30.3862 35.0155 30.471 34.9501 30.5658C34.3225 31.5789 31.1844 36.7501 31.1844 39.2106C31.1852 40.1351 31.4058 41.0429 31.8238 41.8422H28.1764C28.5945 41.0429 28.8151 40.1351 28.8159 39.2106C28.8159 36.7501 25.6777 31.579 25.0502 30.5658C24.6392 29.9699 23.8714 29.8569 23.3352 30.3135C23.2498 30.3862 23.1735 30.471 23.1081 30.5658C22.4804 31.5789 19.3423 36.7501 19.3423 39.2106C19.3431 40.1351 19.5638 41.0429 19.9818 41.8422H16.9739V22.1053H16.9737ZM33.5527 39.2106C34.0477 37.238 34.8493 35.3766 35.9211 33.7106C36.9951 35.3753 37.7968 37.237 38.2895 39.2106C38.2895 40.664 37.2292 41.8422 35.9211 41.8422C34.6131 41.8422 33.5527 40.664 33.5527 39.2106ZM26.4474 39.2106C26.4474 40.664 25.387 41.8422 24.079 41.8422C22.7709 41.8422 21.7106 40.664 21.7106 39.2106C22.2056 37.238 23.0072 35.3766 24.079 33.7106C25.1529 35.3752 25.9546 37.2369 26.4474 39.2106ZM12.2369 14.2106C12.2369 13.4839 12.7671 12.8948 13.4211 12.8948C14.075 12.8948 14.6053 13.4839 14.6053 14.2106V41.8422H12.2369V14.2106ZM50.1316 47.1053H9.86843V44.4738H50.1316V47.1053Z" fill="#F2C452"/>
</svg>
