<svg width="35" height="38" viewBox="0 0 35 38" fill="none" xmlns="http://www.w3.org/2000/svg">
<path d="M14.6805 1.25829C10.8396 2.29533 6.78751 4.71509 5.40479 6.80838C4.79025 7.74939 4.63661 8.82484 5.07832 9.40098C5.32797 9.72745 12.7217 14.0869 14.3349 14.8358C18.5214 16.8139 29.7944 11.4943 29.7944 7.55735C29.7944 6.98122 29.1607 6.32827 27.9892 5.69452L27.1058 5.21441L25.8383 5.88656C25.147 6.25145 24.5324 6.61633 24.494 6.69315C24.4364 6.78917 24.7053 7.01963 25.0701 7.25008C26.1072 7.86462 26.0304 8.53678 24.7821 9.74666C23.6874 10.8221 20.5955 12.4161 18.8863 12.8002C17.1195 13.2035 16.5626 13.0306 12.7025 10.7837C10.7436 9.65063 9.03443 8.6328 8.9192 8.53678C7.76694 7.59576 10.8781 4.88793 14.4693 3.69726C16.2745 3.08271 17.5996 3.06351 18.6943 3.60123L19.5201 3.98532L20.8068 3.25555C21.5173 2.85226 22.1127 2.48738 22.1127 2.42976C22.1127 2.37215 21.6133 2.02647 21.018 1.66159C19.981 1.04704 19.7889 1.00863 17.9837 0.951021C16.5626 0.912612 15.7176 0.989429 14.6805 1.25829Z" fill="#ECECEC"/>
<path d="M0.987733 11.784V13.474L2.5817 14.0117C3.4459 14.319 4.80942 14.8951 5.5968 15.2792L7.03713 16.0089L7.09475 22.7689L7.13316 29.5289L5.42396 28.3574C4.50215 27.7237 3.11943 26.6866 2.35125 26.0529L0.987733 24.9006V26.7058V28.4918L3.06181 29.9514C6.13452 32.1215 9.39928 34.0227 12.6064 35.5783C16.697 37.5563 16.3513 37.5563 16.3513 35.5207V33.8307L14.7573 33.2929C13.8931 32.9857 12.472 32.3903 11.6078 31.987L10.0138 31.2189V24.5165C10.0138 20.8101 10.0714 17.795 10.129 17.795C10.3403 17.795 13.2978 19.9074 14.7573 21.0981C15.5063 21.7127 16.1784 22.212 16.2361 22.212C16.2937 22.212 16.3513 21.463 16.3513 20.522V18.8512L14.2772 17.3917C11.3965 15.3368 7.69008 13.1475 4.54056 11.6303C0.661258 9.7675 0.987733 9.74829 0.987733 11.784Z" fill="#ECECEC"/>
<path d="M32.4827 11.0352C29.0259 12.5524 24.5705 15.1258 21.0945 17.6224L19.3277 18.8899L19.2701 27.8583C19.2316 35.4825 19.2701 36.8076 19.5005 36.8076C19.923 36.8076 22.7845 35.5401 24.8009 34.4647C27.3167 33.1012 30.3126 31.2575 32.5403 29.6636L34.4032 28.3385V26.5909C34.4032 24.9393 34.384 24.8625 34.0767 25.1313C31.196 27.5703 28.4114 29.4331 24.897 31.2575C23.495 31.9873 22.3044 32.5826 22.2275 32.5826C22.1507 32.5826 22.1315 31.488 22.1507 30.1629L22.2083 27.7431L26.779 25.1121C29.2756 23.6526 31.4265 22.3851 31.5417 22.2699C31.6377 22.1738 31.7145 21.4057 31.6761 20.5222L31.6185 18.9667L27.0094 21.6361C24.4745 23.1148 22.3428 24.3247 22.2659 24.3247C22.1699 24.3247 22.1123 23.3837 22.1123 22.2122V20.0997L23.5719 19.1011C26.683 16.931 32.041 14.1656 33.7886 13.8391L34.4032 13.7239V12.0147C34.4032 11.0737 34.3455 10.3055 34.2687 10.3247C34.1727 10.3247 33.3853 10.6512 32.4827 11.0352Z" fill="#ECECEC"/>
</svg>
