<svg width="40" height="41" viewBox="0 0 40 41" fill="none" xmlns="http://www.w3.org/2000/svg">
<g clip-path="url(#clip0_585_872)">
<circle cx="20" cy="20.6465" r="20" fill="#FBF6ED"/>
<path d="M24.9999 10.6465H15.0001C12.2504 10.6465 10.0002 12.8967 10.0002 15.6464V25.6466C10.0002 28.3956 12.2504 30.6465 15.0001 30.6465H24.9999C27.7496 30.6465 29.9998 28.3956 29.9998 25.6466V15.6464C29.9998 12.8967 27.7496 10.6465 24.9999 10.6465ZM28.333 25.6466C28.333 27.4841 26.8384 28.9798 24.9999 28.9798H15.0001C13.1624 28.9798 11.667 27.4841 11.667 25.6466V15.6464C11.667 13.8084 13.1624 12.3132 15.0001 12.3132H24.9999C26.8384 12.3132 28.333 13.8084 28.333 15.6464V25.6466Z" fill="#2A657E"/>
<path d="M25.4172 16.4794C26.1075 16.4794 26.6672 15.9198 26.6672 15.2295C26.6672 14.5391 26.1075 13.9795 25.4172 13.9795C24.7269 13.9795 24.1672 14.5391 24.1672 15.2295C24.1672 15.9198 24.7269 16.4794 25.4172 16.4794Z" fill="#2A657E"/>
<path d="M20.0001 15.6465C17.2382 15.6465 15.0002 17.8847 15.0002 20.6464C15.0002 23.407 17.2382 25.6467 20.0001 25.6467C22.7613 25.6467 25 23.407 25 20.6464C25 17.8847 22.7613 15.6465 20.0001 15.6465ZM20.0001 23.98C18.1594 23.98 16.667 22.4876 16.667 20.6464C16.667 18.8051 18.1594 17.3132 20.0001 17.3132C21.8408 17.3132 23.3333 18.8051 23.3333 20.6464C23.3333 22.4876 21.8408 23.98 20.0001 23.98Z" fill="#2A657E"/>
</g>
<defs>
<clipPath id="clip0_585_872">
<rect width="40" height="40" fill="white" transform="translate(0 0.646484)"/>
</clipPath>
</defs>
</svg>
