<svg width="309" height="448" viewBox="0 0 309 448" fill="none" xmlns="http://www.w3.org/2000/svg">
<g clip-path="url(#clip0_358_466)">
<path fill-rule="evenodd" clip-rule="evenodd" d="M128.955 185.006C137.816 164.443 140.977 135.237 131.439 103.292C129.574 97.0453 127.846 91.2095 126.232 85.7561L126.23 85.7518C118.34 59.1021 113.157 41.595 107.907 29.9726C104.837 23.1762 102.592 20.4497 101.354 19.3853C100.777 18.89 100.291 18.4993 98.2382 18.4993C97.2916 18.4993 97.0338 18.5396 96.1131 19.4531C94.4866 21.0669 92.0672 24.6148 88.9021 32.0777C84.7926 41.7682 80.8869 54.2083 75.7573 70.5476L75.7556 70.5536C72.7279 80.1975 69.2735 91.2003 65.0994 103.798C55.7935 131.88 58.6248 160.979 67.6654 182.739C72.18 193.605 77.9655 201.97 83.8084 207.372C86.5616 209.918 89.1233 211.636 91.4348 212.744V178.177C85.9242 175.298 82.1158 169.135 82.1158 161.997C82.1158 152.105 89.4312 144.085 98.4548 144.085C107.479 144.085 114.794 152.105 114.794 161.997C114.794 169.065 111.061 175.176 105.637 178.091V212.717C113.142 209.375 122.081 200.957 128.955 185.006ZM40.0894 228.838C56.8849 226.868 68.475 230.165 75.2095 234.796L43.4944 253.107C38.4809 249.739 31.7862 249.293 26.2028 252.516C18.3879 257.029 15.7103 267.022 20.2221 274.837C24.7343 282.651 34.7272 285.329 42.5421 280.817C48.1809 277.561 51.145 271.452 50.6639 265.367L82.8107 246.807C83.099 249.487 82.9321 252.777 82.0324 256.752C80.2752 264.514 75.9242 273.706 68.7711 283.049C54.4467 301.759 30.662 318.76 1.68848 324.742C-11.3108 327.426 -22.5684 329.937 -32.4357 332.137C-49.151 335.864 -61.8769 338.702 -72.3239 339.988C-80.3696 340.979 -84.6519 340.658 -86.8627 340.056C-88.1142 339.715 -88.278 339.512 -88.7513 338.692C-89.7777 336.914 -89.6824 336.298 -89.5416 335.551C-89.2392 333.946 -88.0006 330.639 -83.6495 324.582C-76.2089 314.225 -63.639 300.982 -44.505 280.824C-40.589 276.698 -36.3978 272.283 -31.919 267.543C-9.02274 243.311 17.8499 231.445 40.0894 228.838ZM128.614 282.003C117.676 267.322 115.134 254.839 116.445 246.663L147.96 264.858C147.55 270.883 150.511 276.904 156.094 280.128C163.909 284.64 173.902 281.962 178.414 274.147C182.926 266.332 180.249 256.339 172.434 251.827C166.795 248.572 160.023 249.059 154.993 252.519L124.492 234.909C126.435 233.736 128.847 232.644 131.818 231.722C139.418 229.363 149.554 228.534 161.222 230.058C184.587 233.108 211.203 245.206 230.871 267.306C239.695 277.222 247.498 285.716 254.337 293.161C265.922 305.773 274.742 315.376 281.08 323.78C285.962 330.253 287.823 334.122 288.409 336.338C288.739 337.592 288.643 337.835 288.171 338.655C287.145 340.432 286.562 340.658 285.845 340.91C284.304 341.45 280.821 342.031 273.4 341.291C260.71 340.026 242.958 335.762 215.933 329.27C210.402 327.942 204.482 326.52 198.138 325.011C165.704 317.299 141.992 299.959 128.614 282.003ZM63.9241 211.78C44.392 186.472 33.9347 141.406 48.2473 98.2131C52.0919 86.6104 55.4143 76.0408 58.4114 66.5059C72.1758 22.7152 79.0814 0.746094 98.2382 0.746094C119.602 0.746094 126.044 22.5206 143.375 81.1115C144.968 86.4971 146.653 92.1937 148.451 98.2131C162.651 145.775 152.155 189.353 132.619 213.205C164.502 206.558 212.148 219.563 244.133 255.504C252.26 264.635 259.751 272.797 266.508 280.16C297.552 313.976 313.125 330.941 303.545 347.531C292.865 366.032 270.787 360.724 211.38 346.438L211.341 346.429C205.891 345.119 200.128 343.733 194.031 342.283C139.852 329.399 105.559 292.1 99.3517 260.652C92.0505 292.955 55.4988 331.759 5.27853 342.129C-6.69211 344.601 -17.507 347.008 -27.2631 349.18C-72.069 359.154 -94.5476 364.161 -104.126 347.569C-114.808 329.067 -99.1714 312.602 -57.0959 268.296L-57.0931 268.293C-53.2264 264.222 -49.1365 259.915 -44.8231 255.35C-10.2658 218.777 33.4358 206.228 63.9241 211.78ZM25.3162 135.615C27.6401 136.637 29.948 137.698 32.2339 138.795C32.8631 145.817 33.9471 152.659 35.4288 159.244C30.0496 156.278 24.4044 153.487 18.5799 150.925C-5.64679 140.265 -29.3271 132.088 -47.9537 129.229C-57.3083 127.794 -64.2487 127.888 -68.9082 128.939C-73.2446 129.917 -74.3545 131.368 -74.8069 132.152C-75.1684 132.778 -75.8323 134.097 -74.5019 137.925C-73.0205 142.187 -69.5189 147.938 -63.3475 155.111C-51.0534 169.401 -31.7152 185.344 -10.3407 201.524C-4.93169 205.618 0.600555 209.423 6.14985 212.872C-0.303795 214.719 -6.85223 217.081 -13.4135 219.979C-15.7832 218.317 -18.1262 216.609 -20.4359 214.86C-63.2474 182.453 -102.916 147.385 -89.2923 123.788C-75.6687 100.192 -24.1172 113.864 25.3162 135.615ZM53.2466 343.581C52.8703 340.15 52.5713 336.709 52.3519 333.274C58.2449 328.755 63.688 323.921 68.6333 318.881C68.6102 326.313 69.0228 334.002 69.8732 341.757C72.7176 367.686 77.4126 391.905 84.1517 409.186C87.5362 417.864 91.0293 423.712 94.2004 427.142C97.1464 430.327 98.8844 430.526 99.7121 430.526C100.359 430.526 101.762 430.48 104.346 427.493C107.231 424.159 110.408 418.368 113.489 409.58C119.629 392.069 123.711 367.726 126.994 341.503C127.924 334.073 128.467 326.691 128.616 319.532C133.461 324.296 138.816 328.884 144.658 333.209C144.379 336.669 144.023 340.131 143.59 343.581C137.016 396.102 126.614 447.253 99.7121 447.253C72.8103 447.253 59.0523 396.503 53.2466 343.581ZM218.932 215.259C216.475 217.06 213.982 218.814 211.462 220.513C204.698 217.666 197.884 215.352 191.131 213.559C197.154 210.031 203.168 206.077 209.041 201.77C230.386 186.119 249.309 169.7 261.097 154.998C267.016 147.614 270.407 141.557 271.824 136.996C273.144 132.751 272.445 131.064 271.991 130.281C271.632 129.655 270.819 128.421 266.839 127.659C262.407 126.811 255.675 126.967 246.38 128.725C227.856 132.228 204.381 141.004 179.681 151.424C173.418 154.067 167.344 156.962 161.572 160.051C162.921 153.62 163.886 146.891 164.416 139.918C167.308 138.559 170.233 137.257 173.179 136.014C222.65 115.141 272.853 98.3211 286.477 121.918C300.101 145.515 262.485 183.324 218.932 215.259Z" fill="#F2C452" fill-opacity="0.2"/>
</g>
<defs>
<clipPath id="clip0_358_466">
<rect width="418.976" height="447.381" fill="white" transform="translate(-110 0.30957)"/>
</clipPath>
</defs>
</svg>
