<svg width="132" height="108" viewBox="0 0 132 108" fill="none" xmlns="http://www.w3.org/2000/svg">
<path d="M20.2842 106.736C19.6578 106.736 19.1587 106.523 18.7868 106.096C18.4149 105.669 18.229 105.133 18.229 104.487C18.229 103.841 18.4149 103.305 18.7868 102.878C19.1607 102.451 19.6598 102.238 20.2842 102.238C20.9086 102.238 21.4077 102.451 21.7815 102.878C22.1554 103.303 22.3423 103.839 22.3423 104.487C22.3423 105.133 22.1554 105.669 21.7815 106.096C21.4077 106.523 20.9086 106.736 20.2842 106.736ZM20.2842 106.254C20.75 106.254 21.1141 106.087 21.3763 105.752C21.6386 105.418 21.7698 104.996 21.7698 104.487C21.7698 103.974 21.6376 103.551 21.3734 103.219C21.1111 102.886 20.7481 102.72 20.2842 102.72C19.8183 102.72 19.4543 102.888 19.192 103.225C18.9297 103.561 18.7986 103.982 18.7986 104.487C18.7986 104.988 18.9287 105.408 19.1891 105.747C19.4513 106.085 19.8164 106.254 20.2842 106.254ZM27.8009 106.633V102.822H26.3682V102.341H29.8032V102.822H28.3705V106.633H27.8009ZM34.0669 106.633V102.341H37.0293V102.822H34.6365V104.185H36.8678V104.666H34.6365V106.152H37.0499V106.633H34.0669ZM44.6752 106.633H44.1027V102.834H42.5467L42.4498 105.435C42.4341 105.864 42.3304 106.188 42.1386 106.407C41.9468 106.626 41.706 106.736 41.4163 106.736C41.2872 106.736 41.1609 106.709 41.0376 106.657V106.169C41.1492 106.21 41.2509 106.231 41.3429 106.231C41.5406 106.231 41.6786 106.162 41.7569 106.025C41.8372 105.886 41.8841 105.65 41.8978 105.315L41.9859 102.341H44.6752V106.633ZM49.4234 106.633V102.341H49.993V104.102H51.276C51.7124 104.102 52.0452 104.211 52.2742 104.428C52.5052 104.644 52.6206 104.958 52.6206 105.371C52.6206 105.768 52.5042 106.078 52.2713 106.301C52.0403 106.523 51.7056 106.633 51.2672 106.633H49.4234ZM49.993 106.152H51.1116C51.7379 106.152 52.0511 105.891 52.0511 105.371C52.0511 104.846 51.7379 104.584 51.1116 104.584H49.993V106.152ZM56.6407 107.085H59.6471V107.385H56.6407V107.085ZM66.0981 104.86L65.3788 102.852L64.6448 104.86H66.0981ZM66.7469 106.633L66.2713 105.341H64.4715L63.9812 106.633H63.3941L65.0705 102.341H65.7017L67.3781 106.633H66.7469ZM71.5919 106.633V102.341H74.5308V102.822H72.1615V104.102H73.562C74.0004 104.102 74.3341 104.211 74.5631 104.428C74.7941 104.644 74.9096 104.958 74.9096 105.371C74.9096 105.768 74.7931 106.078 74.5602 106.301C74.3292 106.523 73.9945 106.633 73.5561 106.633H71.5919ZM72.1615 106.152H73.4005C74.0268 106.152 74.34 105.891 74.34 105.371C74.34 104.846 74.0268 104.584 73.4005 104.584H72.1615V106.152ZM80.4416 104.425L79.0294 102.341H79.7135L80.7851 104.017L81.9037 102.341H82.5408L81.1198 104.425L82.6289 106.633H81.9331L80.7792 104.86L79.5872 106.633H78.9443L80.4416 104.425ZM89.0769 104.86L88.3576 102.852L87.6236 104.86H89.0769ZM89.7258 106.633L89.2502 105.341H87.4504L86.9601 106.633H86.3729L88.0494 102.341H88.6806L90.357 106.633H89.7258ZM94.3477 105.221H94.8938C94.8977 105.544 95.0034 105.8 95.2108 105.99C95.4203 106.178 95.7217 106.272 96.1151 106.272C96.4459 106.272 96.7111 106.192 96.9108 106.031C97.1104 105.869 97.2102 105.658 97.2102 105.4C97.2102 105.148 97.128 104.956 96.9636 104.825C96.7992 104.692 96.5203 104.625 96.1269 104.625H95.7423V104.167H95.9595C96.3647 104.179 96.6495 104.122 96.8139 103.997C96.9783 103.871 97.0605 103.69 97.0605 103.454C97.0605 103.205 96.9832 103.019 96.8286 102.896C96.6759 102.77 96.4459 102.708 96.1386 102.708C95.8059 102.708 95.5495 102.781 95.3694 102.928C95.1913 103.075 95.0895 103.294 95.0641 103.586H94.515C94.5307 103.153 94.6853 102.82 94.9789 102.587C95.2725 102.355 95.6649 102.238 96.1562 102.238C96.6181 102.238 96.9783 102.347 97.2367 102.564C97.495 102.779 97.6242 103.067 97.6242 103.427C97.6242 103.627 97.5596 103.811 97.4304 103.979C97.3012 104.145 97.129 104.271 96.9137 104.355C97.1995 104.41 97.4138 104.538 97.5567 104.739C97.7015 104.939 97.7739 105.163 97.7739 105.412C97.7739 105.792 97.6193 106.108 97.3101 106.36C97.0028 106.611 96.5966 106.736 96.0916 106.736C95.5377 106.736 95.1081 106.603 94.8028 106.337C94.4994 106.07 94.3477 105.699 94.3477 105.221ZM102.293 102.341H102.863V105.929H102.874L104.974 102.341H105.696V106.633H105.123V103.031H105.112L103.007 106.633H102.293V102.341ZM110.617 106.633H109.921L111.357 104.775C111.001 104.728 110.734 104.604 110.556 104.405C110.377 104.203 110.288 103.926 110.288 103.574C110.288 103.177 110.408 102.872 110.647 102.661C110.887 102.447 111.218 102.341 111.639 102.341H113.486V106.633H112.916V104.798H112.032L110.617 106.633ZM112.916 102.822H111.712C111.425 102.822 111.21 102.89 111.069 103.025C110.928 103.158 110.858 103.341 110.858 103.574C110.858 103.822 110.933 104.009 111.084 104.135C111.237 104.258 111.466 104.32 111.771 104.32H112.916V102.822Z" fill="#2A657E"/>
<path d="M0.82459 90.0032C0.704334 90.0032 0.644205 89.931 0.644205 89.7867C0.644205 89.6424 0.704334 89.5702 0.82459 89.5702C1.49803 89.5702 2.06323 89.45 2.52021 89.2095C3.00124 88.9449 3.44618 88.5 3.85506 87.8746C4.28798 87.2252 4.75698 86.2993 5.26206 85.0967L12.8743 67.1303C12.9224 67.0582 13.0066 67.0221 13.1268 67.0221C13.2471 67.0221 13.3193 67.0582 13.3433 67.1303L21.8575 85.0606C22.6752 86.8404 23.3727 88.043 23.9499 88.6683C24.5272 89.2696 25.2126 89.5702 26.0063 89.5702C26.1025 89.5702 26.1506 89.6424 26.1506 89.7867C26.1506 89.931 26.1025 90.0032 26.0063 90.0032C25.5494 90.0032 24.8398 89.9791 23.8778 89.931C22.9157 89.8829 22.2182 89.8589 21.7853 89.8589C21.2562 89.8589 20.5828 89.8829 19.765 89.931C18.9954 89.9791 18.4061 90.0032 17.9972 90.0032C17.901 90.0032 17.8529 89.931 17.8529 89.7867C17.8529 89.6424 17.901 89.5702 17.9972 89.5702C18.9112 89.5702 19.5606 89.4861 19.9454 89.3177C20.3543 89.1493 20.5587 88.8487 20.5587 88.4158C20.5587 88.055 20.4144 87.5499 20.1258 86.9005L12.1167 69.9804L13.0186 68.862L6.01968 85.4214C5.68296 86.2391 5.5146 86.9126 5.5146 87.4417C5.5146 88.8607 6.69311 89.5702 9.05014 89.5702C9.1704 89.5702 9.23053 89.6424 9.23053 89.7867C9.23053 89.931 9.1704 90.0032 9.05014 90.0032C8.61722 90.0032 7.99189 89.9791 7.17414 89.931C6.26019 89.8829 5.4665 89.8589 4.79306 89.8589C4.16772 89.8589 3.44618 89.8829 2.62844 89.931C1.9069 89.9791 1.30562 90.0032 0.82459 90.0032ZM49.1731 67.2747C49.2453 67.2025 49.3775 67.1664 49.57 67.1664C49.9307 67.1664 50.1111 67.2506 50.1111 67.419V87.0809C50.1111 87.8025 50.1833 88.3436 50.3276 88.7044C50.4959 89.0411 50.7966 89.2696 51.2295 89.3898C51.6624 89.5101 52.3359 89.5702 53.2498 89.5702C53.322 89.5702 53.358 89.6424 53.358 89.7867C53.358 89.931 53.322 90.0032 53.2498 90.0032C52.5042 90.0032 51.9029 89.9911 51.446 89.9671L48.9567 89.931L46.323 89.9671C45.9142 89.9911 45.349 90.0032 44.6274 90.0032C44.5553 90.0032 44.5192 89.931 44.5192 89.7867C44.5192 89.6424 44.5553 89.5702 44.6274 89.5702C45.5654 89.5702 46.2509 89.5101 46.6838 89.3898C47.1167 89.2696 47.4053 89.0411 47.5496 88.7044C47.694 88.3677 47.7661 87.8265 47.7661 87.0809V69.4393L48.4516 69.5836L32.253 90.3279C32.1808 90.4241 32.0365 90.4722 31.8201 90.4722C31.4593 90.4722 31.2789 90.388 31.2789 90.2196V70.3773C31.2789 69.6557 31.1947 69.1266 31.0264 68.7899C30.8821 68.4532 30.5814 68.2247 30.1245 68.1044C29.6915 67.9601 29.0181 67.888 28.1042 67.888C28.056 67.888 28.032 67.8158 28.032 67.6715C28.032 67.5272 28.056 67.455 28.1042 67.455L29.9802 67.4911C30.9903 67.5392 31.8081 67.5633 32.4334 67.5633C33.1309 67.5633 34.0088 67.5392 35.067 67.4911L36.7626 67.455C36.8107 67.455 36.8348 67.5272 36.8348 67.6715C36.8348 67.8158 36.8107 67.888 36.7626 67.888C35.8246 67.888 35.1392 67.9601 34.7062 68.1044C34.2733 68.2247 33.9727 68.4532 33.8043 68.7899C33.66 69.1266 33.5879 69.6557 33.5879 70.3773V88.2354L32.9385 88.0911L49.1731 67.2747ZM55.3262 90.0032C55.206 90.0032 55.1458 89.931 55.1458 89.7867C55.1458 89.6424 55.206 89.5702 55.3262 89.5702C55.9996 89.5702 56.5649 89.45 57.0218 89.2095C57.5029 88.9449 57.9478 88.5 58.3567 87.8746C58.7896 87.2252 59.2586 86.2993 59.7637 85.0967L67.3759 67.1303C67.424 67.0582 67.5082 67.0221 67.6285 67.0221C67.7487 67.0221 67.8209 67.0582 67.8449 67.1303L76.3591 85.0606C77.1768 86.8404 77.8743 88.043 78.4516 88.6683C79.0288 89.2696 79.7143 89.5702 80.508 89.5702C80.6042 89.5702 80.6523 89.6424 80.6523 89.7867C80.6523 89.931 80.6042 90.0032 80.508 90.0032C80.051 90.0032 79.3415 89.9791 78.3794 89.931C77.4174 89.8829 76.7199 89.8589 76.2869 89.8589C75.7578 89.8589 75.0844 89.8829 74.2666 89.931C73.497 89.9791 72.9077 90.0032 72.4989 90.0032C72.4027 90.0032 72.3546 89.931 72.3546 89.7867C72.3546 89.6424 72.4027 89.5702 72.4989 89.5702C73.4128 89.5702 74.0622 89.4861 74.447 89.3177C74.8559 89.1493 75.0603 88.8487 75.0603 88.4158C75.0603 88.055 74.916 87.5499 74.6274 86.9005L66.6183 69.9804L67.5202 68.862L60.5213 85.4214C60.1846 86.2391 60.0162 86.9126 60.0162 87.4417C60.0162 88.8607 61.1947 89.5702 63.5518 89.5702C63.672 89.5702 63.7322 89.6424 63.7322 89.7867C63.7322 89.931 63.672 90.0032 63.5518 90.0032C63.1188 90.0032 62.4935 89.9791 61.6758 89.931C60.7618 89.8829 59.9681 89.8589 59.2947 89.8589C58.6693 89.8589 57.9478 89.8829 57.1301 89.931C56.4085 89.9791 55.8072 90.0032 55.3262 90.0032ZM103.675 67.2747C103.747 67.2025 103.879 67.1664 104.072 67.1664C104.432 67.1664 104.613 67.2506 104.613 67.419V87.0809C104.613 87.8025 104.685 88.3436 104.829 88.7044C104.998 89.0411 105.298 89.2696 105.731 89.3898C106.164 89.5101 106.837 89.5702 107.751 89.5702C107.824 89.5702 107.86 89.6424 107.86 89.7867C107.86 89.931 107.824 90.0032 107.751 90.0032C107.006 90.0032 106.405 89.9911 105.948 89.9671L103.458 89.931L100.825 89.9671C100.416 89.9911 99.8506 90.0032 99.129 90.0032C99.0569 90.0032 99.0208 89.931 99.0208 89.7867C99.0208 89.6424 99.0569 89.5702 99.129 89.5702C100.067 89.5702 100.752 89.5101 101.185 89.3898C101.618 89.2696 101.907 89.0411 102.051 88.7044C102.196 88.3677 102.268 87.8265 102.268 87.0809V69.4393L102.953 69.5836L86.7546 90.3279C86.6825 90.4241 86.5382 90.4722 86.3217 90.4722C85.9609 90.4722 85.7805 90.388 85.7805 90.2196V70.3773C85.7805 69.6557 85.6964 69.1266 85.528 68.7899C85.3837 68.4532 85.0831 68.2247 84.6261 68.1044C84.1932 67.9601 83.5197 67.888 82.6058 67.888C82.5577 67.888 82.5336 67.8158 82.5336 67.6715C82.5336 67.5272 82.5577 67.455 82.6058 67.455L84.4818 67.4911C85.4919 67.5392 86.3097 67.5633 86.935 67.5633C87.6325 67.5633 88.5104 67.5392 89.5686 67.4911L91.2642 67.455C91.3123 67.455 91.3364 67.5272 91.3364 67.6715C91.3364 67.8158 91.3123 67.888 91.2642 67.888C90.3262 67.888 89.6408 67.9601 89.2079 68.1044C88.7749 68.2247 88.4743 68.4532 88.3059 68.7899C88.1616 69.1266 88.0895 69.6557 88.0895 70.3773V88.2354L87.4401 88.0911L103.675 67.2747ZM129.923 89.5702C129.971 89.5702 129.995 89.6424 129.995 89.7867C129.995 89.931 129.971 90.0032 129.923 90.0032C129.129 90.0032 128.516 89.9911 128.083 89.9671L125.63 89.931L123.104 89.9671C122.671 89.9911 122.082 90.0032 121.336 90.0032C121.288 90.0032 121.264 89.931 121.264 89.7867C121.264 89.6424 121.288 89.5702 121.336 89.5702C122.25 89.5702 122.924 89.5101 123.357 89.3898C123.79 89.2696 124.078 89.0411 124.223 88.7044C124.367 88.3436 124.439 87.8025 124.439 87.0809V78.1338L125.088 78.3142C124.126 78.3142 123.321 78.4465 122.671 78.7111C122.046 78.9516 121.384 79.4687 120.687 80.2624C120.014 81.0561 119.196 82.2827 118.234 83.9422C117.055 85.9625 116.153 87.4056 115.528 88.2715C114.927 89.1373 114.494 89.6424 114.229 89.7867C113.965 89.931 113.64 90.0032 113.255 90.0032H109.539C109.467 90.0032 109.431 89.931 109.431 89.7867C109.431 89.6424 109.467 89.5702 109.539 89.5702C110.79 89.5462 111.872 89.0652 112.786 88.1272C113.7 87.1651 114.806 85.5296 116.105 83.2207C117.163 81.3687 118.15 80.094 119.064 79.3965C119.977 78.675 121.12 78.2541 122.491 78.1338L122.743 78.3864C120.194 78.3623 118.246 77.8693 116.899 76.9072C115.552 75.9211 114.879 74.5863 114.879 72.9027C114.879 71.8204 115.155 70.8583 115.708 70.0165C116.286 69.1747 117.067 68.5253 118.053 68.0683C119.064 67.5873 120.194 67.3468 121.445 67.3468C121.998 67.3468 122.635 67.3829 123.357 67.455C123.645 67.4791 123.982 67.5031 124.367 67.5272C124.752 67.5512 125.173 67.5633 125.63 67.5633C126.255 67.5633 127.073 67.5392 128.083 67.4911L129.887 67.455C129.935 67.455 129.959 67.5272 129.959 67.6715C129.959 67.8158 129.935 67.888 129.887 67.888C128.949 67.888 128.263 67.9601 127.83 68.1044C127.421 68.2247 127.133 68.4532 126.964 68.7899C126.82 69.1266 126.748 69.6557 126.748 70.3773V87.0809C126.748 87.8025 126.82 88.3436 126.964 88.7044C127.133 89.0411 127.433 89.2696 127.866 89.3898C128.299 89.5101 128.985 89.5702 129.923 89.5702ZM117.296 72.0007C117.296 73.7324 117.789 75.1394 118.775 76.2217C119.785 77.28 121.228 77.8091 123.104 77.8091C123.97 77.8091 124.655 77.737 125.161 77.5927L124.439 77.8452V70.4494C124.439 69.4874 124.15 68.8139 123.573 68.4291C122.996 68.0202 122.274 67.8158 121.409 67.8158C118.667 67.8158 117.296 69.2108 117.296 72.0007Z" fill="#2A657E"/>
<path fill-rule="evenodd" clip-rule="evenodd" d="M69.037 20.3737C69.9805 18.1843 70.317 15.0748 69.3015 11.6737C69.1029 11.0084 68.9189 10.3869 68.7469 9.80616L68.7469 9.80612L68.7469 9.80597C67.9068 6.96873 67.3549 5.10484 66.7961 3.86744C66.4692 3.14384 66.2302 2.85355 66.0983 2.74022C66.0369 2.68749 65.9852 2.64589 65.7666 2.64589C65.6658 2.64589 65.6384 2.65018 65.5404 2.74744C65.3672 2.91926 65.1096 3.297 64.7726 4.09157C64.3351 5.1233 63.9193 6.44778 63.3731 8.18742L63.3731 8.1876C63.0507 9.21451 62.6829 10.3861 62.2384 11.7275C61.2476 14.7175 61.549 17.8156 62.5116 20.1323C62.9922 21.2893 63.6082 22.1798 64.2303 22.755C64.5236 23.0262 64.7965 23.2092 65.0428 23.3271V19.6466C64.456 19.3401 64.0505 18.684 64.0505 17.924C64.0505 16.8707 64.8293 16.0169 65.7901 16.0169C66.7509 16.0169 67.5297 16.8707 67.5297 17.924C67.5297 18.6764 67.1322 19.3271 66.5549 19.6374V23.3238C67.3538 22.9678 68.3053 22.0716 69.037 20.3737ZM59.5757 25.0404C61.3638 24.8307 62.5976 25.1816 63.3147 25.6746L59.9383 27.624C59.4045 27.2657 58.6919 27.2183 58.0976 27.5614C57.2656 28.0418 56.9805 29.1058 57.4609 29.9378C57.9412 30.7699 59.0052 31.0549 59.8372 30.5746C60.4377 30.2279 60.7533 29.5772 60.7019 28.9292L64.1242 26.9534C64.1549 27.2387 64.1371 27.5891 64.0413 28.0125C63.8542 28.8388 63.391 29.8175 62.6294 30.8123C61.1043 32.8042 58.572 34.6143 55.4872 35.2513C54.1034 35.537 52.9051 35.8042 51.8547 36.0384L51.854 36.0386C50.0744 36.4354 48.7194 36.7376 47.6072 36.8745C46.7506 36.9799 46.2946 36.9457 46.0592 36.8817C45.926 36.8454 45.9086 36.8238 45.8582 36.7365C45.7489 36.5472 45.759 36.4816 45.774 36.4021C45.8062 36.2312 45.9381 35.879 46.4013 35.2342C47.1935 34.1315 48.5318 32.7216 50.5689 30.5754L50.569 30.5754L50.569 30.5753C50.986 30.1361 51.4322 29.6659 51.909 29.1613C54.3468 26.5813 57.2079 25.318 59.5757 25.0404ZM69.0007 30.7008C67.8361 29.1376 67.5654 27.8085 67.7051 26.938L71.0609 28.8755C71.0174 29.517 71.3326 30.158 71.927 30.5012C72.7591 30.9816 73.823 30.6965 74.3034 29.8645C74.7838 29.0324 74.4987 27.9685 73.6667 27.4881C73.0663 27.1415 72.3452 27.1934 71.8097 27.5617L68.562 25.6866C68.7689 25.5619 69.0256 25.4456 69.3418 25.3474C70.151 25.0963 71.2302 25.0081 72.4725 25.1703C74.9601 25.4951 77.7938 26.7831 79.8878 29.1361C80.8273 30.1918 81.6581 31.0962 82.3863 31.8889L82.3863 31.8889C83.6198 33.2317 84.5589 34.254 85.2336 35.1488C85.7532 35.8379 85.9516 36.2499 86.0138 36.4858C86.049 36.6193 86.039 36.6452 85.9886 36.7325C85.8793 36.9218 85.8174 36.9458 85.7411 36.9726C85.577 37.0301 85.2061 37.092 84.416 37.0132C83.065 36.8785 81.175 36.4245 78.2981 35.7335L78.2977 35.7334L78.2975 35.7334C77.7086 35.5919 77.0783 35.4405 76.4029 35.2799C72.9497 34.4587 70.425 32.6126 69.0007 30.7008ZM62.1132 23.2243C60.0337 20.5297 58.9203 15.7316 60.4441 11.1329C60.8535 9.89761 61.2072 8.77228 61.5263 7.75709L61.5263 7.75708C62.9918 3.09475 63.727 0.755725 65.7666 0.755725C68.0413 0.755725 68.727 3.07404 70.5723 9.31215C70.7419 9.88555 70.9213 10.4921 71.1127 11.1329C72.6245 16.1968 71.5071 20.8365 69.4271 23.376C72.8217 22.6683 77.8945 24.0529 81.2999 27.8795C82.165 28.8517 82.9626 29.7207 83.6823 30.5046L83.6823 30.5047C86.9873 34.105 88.6453 35.9112 87.6255 37.6776C86.4882 39.6474 84.1376 39.0822 77.8126 37.5612L77.8123 37.5611C77.231 37.4213 76.6161 37.2735 75.9656 37.1188C70.1974 35.7471 66.5463 31.7761 65.8852 28.428C65.1077 31.8671 61.2162 35.9984 55.8694 37.1024C54.5949 37.3655 53.4435 37.6219 52.4048 37.8531C47.6343 38.9151 45.241 39.4479 44.2212 37.6816C43.0839 35.7117 44.7488 33.9586 49.2285 29.2415C49.6402 28.8079 50.0758 28.3493 50.5351 27.8632C54.2144 23.9692 58.8672 22.6332 62.1132 23.2243ZM58.0027 15.1151C58.2502 15.224 58.4961 15.337 58.7396 15.4539C58.8066 16.2015 58.9221 16.9301 59.0798 17.6311C58.507 17.3152 57.9058 17.018 57.2854 16.7451C54.706 15.6102 52.1848 14.7395 50.2017 14.4352C49.2057 14.2824 48.4668 14.2924 47.9707 14.4043C47.509 14.5085 47.3908 14.663 47.3427 14.7463C47.3042 14.813 47.2335 14.9535 47.3751 15.361C47.5328 15.8148 47.9056 16.4272 48.5627 17.1909C49.8716 18.7123 51.9306 20.4097 54.2063 22.1323C54.7822 22.5683 55.3713 22.9734 55.9621 23.3406C55.275 23.5373 54.5778 23.7888 53.8793 24.0974C53.6269 23.9203 53.3774 23.7384 53.1315 23.5522C48.5734 20.1019 44.3499 16.3682 45.8004 13.8559C47.2509 11.3436 52.7395 12.7993 58.0027 15.1151ZM60.9761 37.257C60.936 36.8918 60.9042 36.5256 60.8809 36.16C61.5083 35.679 62.0878 35.1644 62.6143 34.6278C62.6119 35.4189 62.6558 36.2374 62.7463 37.0628C63.0492 39.8234 63.549 42.4021 64.2665 44.2419C64.6269 45.1658 64.9988 45.7884 65.3364 46.1536C65.65 46.4928 65.8351 46.514 65.9232 46.514C65.9921 46.514 66.1415 46.5089 66.4166 46.1911C66.7238 45.8362 67.062 45.2196 67.3901 44.2837C68.0437 42.4194 68.4784 39.8276 68.8279 37.0358C68.9269 36.2444 68.9847 35.4582 69.0006 34.6958C69.5164 35.2031 70.0865 35.6916 70.7086 36.1522C70.6789 36.5207 70.6409 36.8896 70.5949 37.257C69.8949 42.8489 68.7874 48.2949 65.9232 48.2949C63.059 48.2949 61.5942 42.8916 60.9761 37.257ZM78.6167 23.5947C78.3552 23.7864 78.0899 23.9731 77.8216 24.154C77.1014 23.8509 76.3759 23.6045 75.657 23.4136C76.2981 23.038 76.9383 22.617 77.5636 22.1586C79.8362 20.4922 81.8508 18.7441 83.1059 17.1788C83.7363 16.3927 84.097 15.7477 84.2482 15.2621C84.3888 14.8102 84.3141 14.6306 84.266 14.5472C84.2275 14.4805 84.1412 14.3491 83.7174 14.268C83.2455 14.1777 82.5289 14.1944 81.5389 14.3815C79.5669 14.7544 77.0675 15.6888 74.4377 16.7983C73.771 17.0796 73.1246 17.3878 72.5101 17.7165C72.6537 17.0318 72.7565 16.3154 72.813 15.573C73.1207 15.4285 73.4319 15.2898 73.7455 15.1575C79.0125 12.9353 84.3577 11.1445 85.8082 13.6568C87.2587 16.1691 83.2537 20.1946 78.6167 23.5947Z" fill="#2A657E"/>
</svg>
