<svg width="164" height="134" viewBox="0 0 164 134" fill="none" xmlns="http://www.w3.org/2000/svg">
<g clip-path="url(#clip0_358_420)">
<path d="M32.3644 111.049C32.4835 111.049 32.5433 111.139 32.5433 111.319C32.5433 111.499 32.4835 111.588 32.3644 111.588C31.798 111.588 30.9187 111.559 29.7264 111.499C28.5341 111.439 27.6697 111.409 27.1333 111.409C26.4774 111.409 25.6428 111.439 24.6293 111.499C23.6755 111.559 22.9453 111.588 22.4385 111.588C22.3194 111.588 22.2597 111.499 22.2597 111.319C22.2597 111.139 22.3194 111.049 22.4385 111.049C23.5414 111.049 24.3463 110.945 24.853 110.735C25.3597 110.525 25.6131 110.166 25.6131 109.657C25.6131 109.237 25.4193 108.593 25.0317 107.725L15.4189 87.2367L7.59453 105.883C7.17724 106.901 6.96858 107.725 6.96858 108.354C6.96858 109.282 7.32627 109.971 8.04164 110.42C8.78682 110.84 9.8897 111.049 11.3503 111.049C11.4993 111.049 11.5738 111.139 11.5738 111.319C11.5738 111.499 11.4993 111.588 11.3503 111.588C10.8137 111.588 10.0387 111.559 9.02528 111.499C7.89261 111.439 6.90896 111.409 6.07437 111.409C5.29938 111.409 4.40517 111.439 3.39172 111.499C2.49749 111.559 1.75232 111.588 1.15617 111.588C1.00713 111.588 0.932617 111.499 0.932617 111.319C0.932617 111.139 1.00713 111.049 1.15617 111.049C1.99078 111.049 2.69124 110.9 3.25758 110.6C3.85373 110.271 4.40517 109.716 4.91189 108.938C5.44841 108.129 6.02965 106.976 6.6556 105.478L16.0896 83.1032C16.1492 83.0134 16.2535 82.9684 16.4026 82.9684C16.5516 82.9684 16.641 83.0134 16.6708 83.1032L27.2227 105.433C28.2361 107.65 29.1004 109.147 29.8159 109.926C30.5312 110.675 31.3807 111.049 32.3644 111.049ZM66.1276 111.049C66.2171 111.049 66.2619 111.139 66.2619 111.319C66.2619 111.499 66.2171 111.588 66.1276 111.588C65.2036 111.588 64.4585 111.574 63.8922 111.544L60.8071 111.499L57.5432 111.544C57.0066 111.574 56.3063 111.588 55.4418 111.588C55.3524 111.588 55.3076 111.499 55.3076 111.319C55.3076 111.139 55.3524 111.049 55.4418 111.049C56.6043 111.049 57.4538 110.975 57.9904 110.825C58.5268 110.675 58.8845 110.39 59.0634 109.971C59.2423 109.552 59.3317 108.878 59.3317 107.949V87.2367L40.1059 111.993C40.0165 112.113 39.8376 112.173 39.5695 112.173C39.1224 112.173 38.8989 112.068 38.8989 111.858V87.1468C38.8989 86.2483 38.7945 85.5892 38.5858 85.1699C38.4069 84.7506 38.0344 84.4661 37.468 84.3162C36.9315 84.1366 36.097 84.0468 34.9642 84.0468C34.9046 84.0468 34.8748 83.9569 34.8748 83.7772C34.8748 83.5974 34.9046 83.5076 34.9642 83.5076L37.2893 83.5524C38.5411 83.6124 39.5546 83.6423 40.3296 83.6423C41.1939 83.6423 42.282 83.6124 43.5934 83.5524L45.6948 83.5076C45.7842 83.5076 45.829 83.5974 45.829 83.7772C45.829 83.9569 45.7842 84.0468 45.6948 84.0468C44.5324 84.0468 43.6829 84.1366 43.1463 84.3162C42.6099 84.4661 42.2521 84.7506 42.0733 85.1699C41.8944 85.5892 41.805 86.2483 41.805 87.1468V108.129L61.0754 83.283C61.1648 83.1931 61.3287 83.1481 61.5671 83.1481C62.0143 83.1481 62.2378 83.253 62.2378 83.4625V107.949C62.2378 108.848 62.3272 109.522 62.5061 109.971C62.7148 110.39 63.0873 110.675 63.6239 110.825C64.1605 110.975 64.9951 111.049 66.1276 111.049ZM99.9092 111.049C100.028 111.049 100.088 111.139 100.088 111.319C100.088 111.499 100.028 111.588 99.9092 111.588C99.3429 111.588 98.4635 111.559 97.2712 111.499C96.0789 111.439 95.2146 111.409 94.678 111.409C94.0223 111.409 93.1877 111.439 92.1743 111.499C91.2204 111.559 90.4902 111.588 89.9835 111.588C89.8642 111.588 89.8046 111.499 89.8046 111.319C89.8046 111.139 89.8642 111.049 89.9835 111.049C91.0863 111.049 91.8911 110.945 92.3978 110.735C92.9045 110.525 93.1579 110.166 93.1579 109.657C93.1579 109.237 92.9641 108.593 92.5766 107.725L82.9639 87.2367L75.1394 105.883C74.7221 106.901 74.5135 107.725 74.5135 108.354C74.5135 109.282 74.8711 109.971 75.5865 110.42C76.3317 110.84 77.4345 111.049 78.8951 111.049C79.0441 111.049 79.1186 111.139 79.1186 111.319C79.1186 111.499 79.0441 111.588 78.8951 111.588C78.3586 111.588 77.5835 111.559 76.5701 111.499C75.4375 111.439 74.4538 111.409 73.6192 111.409C72.8442 111.409 71.95 111.439 70.9366 111.499C70.0424 111.559 69.2971 111.588 68.701 111.588C68.552 111.588 68.4775 111.499 68.4775 111.319C68.4775 111.139 68.552 111.049 68.701 111.049C69.5357 111.049 70.2361 110.9 70.8025 110.6C71.3985 110.271 71.95 109.716 72.4567 108.938C72.9933 108.129 73.5746 106.976 74.2004 105.478L83.6345 83.1032C83.6941 83.0134 83.7984 82.9684 83.9474 82.9684C84.0964 82.9684 84.1859 83.0134 84.2157 83.1032L94.7675 105.433C95.7809 107.65 96.6454 109.147 97.3606 109.926C98.0761 110.675 98.9256 111.049 99.9092 111.049ZM133.673 111.049C133.762 111.049 133.807 111.139 133.807 111.319C133.807 111.499 133.762 111.588 133.673 111.588C132.749 111.588 132.003 111.574 131.437 111.544L128.352 111.499L125.088 111.544C124.552 111.574 123.851 111.588 122.987 111.588C122.897 111.588 122.853 111.499 122.853 111.319C122.853 111.139 122.897 111.049 122.987 111.049C124.149 111.049 124.999 110.975 125.535 110.825C126.072 110.675 126.429 110.39 126.608 109.971C126.787 109.552 126.876 108.878 126.876 107.949V87.2367L107.651 111.993C107.561 112.113 107.383 112.173 107.114 112.173C106.667 112.173 106.444 112.068 106.444 111.858V87.1468C106.444 86.2483 106.339 85.5892 106.131 85.1699C105.952 84.7506 105.579 84.4661 105.013 84.3162C104.476 84.1366 103.642 84.0468 102.509 84.0468C102.449 84.0468 102.42 83.9569 102.42 83.7772C102.42 83.5974 102.449 83.5076 102.509 83.5076L104.834 83.5524C106.086 83.6124 107.099 83.6423 107.874 83.6423C108.739 83.6423 109.827 83.6124 111.138 83.5524L113.24 83.5076C113.329 83.5076 113.374 83.5974 113.374 83.7772C113.374 83.9569 113.329 84.0468 113.24 84.0468C112.077 84.0468 111.228 84.1366 110.691 84.3162C110.155 84.4661 109.797 84.7506 109.618 85.1699C109.439 85.5892 109.35 86.2483 109.35 87.1468V108.129L128.62 83.283C128.71 83.1931 128.874 83.1481 129.112 83.1481C129.559 83.1481 129.783 83.253 129.783 83.4625V107.949C129.783 108.848 129.872 109.522 130.051 109.971C130.26 110.39 130.632 110.675 131.169 110.825C131.705 110.975 132.54 111.049 133.673 111.049ZM161.15 111.049C161.21 111.049 161.239 111.139 161.239 111.319C161.239 111.499 161.21 111.588 161.15 111.588C160.196 111.588 159.451 111.574 158.914 111.544L155.829 111.499L152.699 111.544C152.163 111.574 151.433 111.588 150.509 111.588C150.449 111.588 150.419 111.499 150.419 111.319C150.419 111.139 150.449 111.049 150.509 111.049C151.641 111.049 152.476 110.975 153.013 110.825C153.549 110.675 153.907 110.39 154.086 109.971C154.264 109.522 154.354 108.848 154.354 107.949V97.0314C153.37 97.0913 152.521 97.3158 151.805 97.7053C151.09 98.0648 150.33 98.7387 149.525 99.7271C148.72 100.686 147.766 102.123 146.664 104.04C145.203 106.556 144.085 108.354 143.31 109.432C142.565 110.51 142.028 111.139 141.701 111.319C141.403 111.499 141 111.588 140.493 111.588H135.888C135.799 111.588 135.754 111.499 135.754 111.319C135.754 111.139 135.799 111.049 135.888 111.049C137.438 111.019 138.78 110.42 139.912 109.252C141.045 108.054 142.416 106.017 144.026 103.142C145.158 101.165 146.201 99.7271 147.155 98.8286C148.109 97.9299 149.212 97.3309 150.464 97.0314C147.871 96.7918 145.889 96.0879 144.517 94.9197C143.176 93.7216 142.505 92.179 142.505 90.2919C142.505 88.944 142.848 87.7459 143.534 86.6975C144.249 85.6492 145.218 84.8404 146.44 84.2714C147.692 83.6723 149.093 83.3728 150.643 83.3728C151.328 83.3728 152.118 83.4177 153.013 83.5076C153.37 83.5376 153.787 83.5674 154.264 83.5974C154.741 83.6274 155.263 83.6423 155.829 83.6423C156.604 83.6423 157.618 83.6124 158.87 83.5524L161.15 83.5076C161.21 83.5076 161.239 83.5974 161.239 83.7772C161.239 83.9569 161.21 84.0468 161.15 84.0468C159.987 84.0468 159.138 84.1366 158.601 84.3162C158.065 84.4661 157.707 84.7506 157.528 85.1699C157.349 85.5892 157.26 86.2483 157.26 87.1468V107.949C157.26 108.848 157.349 109.522 157.528 109.971C157.737 110.39 158.095 110.675 158.601 110.825C159.138 110.975 159.987 111.049 161.15 111.049ZM145.546 89.1686C145.546 91.3553 146.157 93.1075 147.379 94.4254C148.601 95.7434 150.375 96.4023 152.699 96.4023C153.087 96.4023 153.638 96.3723 154.354 96.3125V87.2367C154.354 86.0386 153.996 85.1999 153.281 84.7207C152.565 84.2115 151.671 83.9569 150.598 83.9569C147.23 83.9569 145.546 85.6941 145.546 89.1686Z" fill="#FBF6ED"/>
<path fill-rule="evenodd" clip-rule="evenodd" d="M86.0072 24.5321C87.1764 21.8056 87.5936 17.9332 86.3351 13.6974C86.0893 12.8702 85.8616 12.0973 85.6488 11.375L85.6483 11.3735L85.6478 11.3717C84.6065 7.83808 83.9226 5.51677 83.2299 3.97569C82.825 3.07453 82.5287 2.71301 82.3653 2.57186C82.2893 2.50619 82.2251 2.4544 81.9541 2.4544C81.8294 2.4544 81.7953 2.45974 81.6738 2.58086C81.4591 2.79485 81.1399 3.26527 80.7223 4.25482C80.1801 5.5397 79.6647 7.18915 78.9879 9.35566L78.9878 9.356C78.5883 10.6349 78.1325 12.0939 77.5816 13.7644C76.3537 17.4881 76.7272 21.3465 77.9202 24.2317C78.5158 25.6725 79.2791 26.7816 80.0502 27.4978C80.4134 27.8353 80.7514 28.0633 81.0566 28.2101V23.6266C80.3294 23.245 79.8268 22.4278 79.8268 21.4814C79.8268 20.1697 80.792 19.1064 81.9828 19.1064C83.1734 19.1064 84.1388 20.1697 84.1388 21.4814C84.1388 22.4186 83.646 23.229 82.9306 23.6154V28.2065C83.9208 27.7633 85.1002 26.6472 86.0072 24.5321ZM74.2815 30.344C76.4978 30.0829 78.0269 30.5199 78.9156 31.134L74.7309 33.562C74.0692 33.1156 73.1859 33.0564 72.4492 33.4837C71.418 34.082 71.0647 35.407 71.6601 36.4433C72.2554 37.4794 73.574 37.8345 74.6051 37.2363C75.3492 36.8046 75.7402 35.9946 75.6768 35.1877L79.9186 32.7268C79.9566 33.082 79.9345 33.5184 79.8159 34.0455C79.5839 35.0744 79.0098 36.2934 78.066 37.5323C76.176 40.013 73.0376 42.2672 69.2146 43.0605C67.4993 43.4164 66.0139 43.7493 64.712 44.0409L64.7118 44.0411C62.5064 44.5352 60.8272 44.9114 59.4487 45.082C58.3871 45.2133 57.822 45.1708 57.5303 45.091C57.3652 45.0458 57.3436 45.0189 57.2812 44.9102C57.1458 44.6744 57.1583 44.5927 57.1768 44.4936C57.2167 44.2808 57.3801 43.8424 57.9544 43.0392C58.9361 41.6659 60.5947 39.91 63.1193 37.2371C63.6361 36.69 64.1891 36.1046 64.78 35.4762C67.8012 32.2631 71.347 30.6898 74.2815 30.344ZM85.9622 37.3935C84.5189 35.4469 84.1834 33.7917 84.3565 32.7075L88.5149 35.1201C88.4609 35.9191 88.8515 36.7175 89.5882 37.1448C90.6195 37.7431 91.938 37.388 92.5333 36.3519C93.1286 35.3156 92.7753 33.9906 91.7442 33.3923C91.0003 32.9607 90.1066 33.0254 89.4429 33.4841L85.4184 31.149C85.6748 30.9937 85.993 30.8487 86.385 30.7265C87.3877 30.4137 88.7253 30.3039 90.2648 30.5058C93.3477 30.9103 96.8598 32.5145 99.4549 35.4448C100.619 36.7594 101.649 37.8856 102.551 38.8728L102.551 38.873L102.551 38.8732C104.08 40.5454 105.244 41.8185 106.08 42.933C106.724 43.7911 106.97 44.3042 107.047 44.5978C107.09 44.7643 107.078 44.7965 107.016 44.9051C106.88 45.141 106.804 45.1708 106.709 45.2042C106.506 45.2759 106.046 45.3529 105.067 45.2547C103.392 45.0871 101.05 44.5216 97.484 43.6609C96.7541 43.4848 95.973 43.2962 95.1358 43.0962C90.8562 42.0735 87.7275 39.7744 85.9622 37.3935ZM77.4265 28.0824C74.8493 24.7266 73.4695 18.751 75.3579 13.024C75.8651 11.4859 76.3035 10.0847 76.6989 8.82064L76.699 8.82006V8.81979C78.5153 3.0134 79.4264 0.100418 81.9541 0.100418C84.7732 0.100418 85.623 2.98759 87.9099 10.7564L87.9106 10.7583C88.1205 11.4718 88.3428 12.2266 88.5797 13.024C90.4533 19.3303 89.0684 25.1087 86.4907 28.2713C90.6977 27.3899 96.9845 29.1143 101.205 33.8799C102.277 35.0903 103.265 36.1723 104.157 37.1484L104.157 37.1491C108.253 41.633 110.308 43.8823 109.044 46.0821C107.635 48.5354 104.722 47.8314 96.8831 45.9372C96.1625 45.7631 95.4004 45.5789 94.594 45.3862C87.4451 43.678 82.9202 38.7323 82.1011 34.5625C81.1377 38.8457 76.3148 43.9909 69.6882 45.3659C68.1088 45.6935 66.682 46.0127 65.3948 46.3007H65.3945C59.4823 47.6234 56.5163 48.2869 55.2524 46.0871C53.8429 43.6338 55.9063 41.4507 61.458 35.5761L61.4583 35.5758C61.9686 35.0359 62.5082 34.4648 63.0774 33.8594C67.6372 29.0101 73.4036 27.3462 77.4265 28.0824ZM72.3321 17.9833C72.6388 18.1189 72.9434 18.2594 73.245 18.4049C73.3279 19.3359 73.471 20.2433 73.6665 21.1163C72.9568 20.723 72.2118 20.353 71.4434 20.0133C68.2466 18.5998 65.1221 17.5155 62.6644 17.1366C61.43 16.9462 60.5143 16.9587 59.8995 17.0981C59.3272 17.2279 59.1808 17.4202 59.121 17.5241C59.0734 17.6071 58.9858 17.7821 59.1613 18.2896C59.3568 18.8547 59.8189 19.6173 60.6331 20.5684C62.2552 22.4631 64.807 24.577 67.6272 26.7224C68.341 27.2652 69.071 27.7698 69.8033 28.227C68.9517 28.4721 68.0876 28.7852 67.2218 29.1695C66.9092 28.949 66.6 28.7226 66.2953 28.4906C60.6463 24.1938 55.4121 19.544 57.2097 16.4151C59.0074 13.2863 65.8096 15.0992 72.3321 17.9833ZM76.0175 45.5584C75.968 45.1035 75.9284 44.6471 75.8996 44.1916C76.6771 43.5926 77.3953 42.9515 78.0478 42.2832C78.0447 43.2687 78.0992 44.2883 78.2114 45.3164C78.5868 48.7545 79.2063 51.9659 80.0954 54.2571C80.542 55.4079 81.0029 56.1833 81.4214 56.6381C81.81 57.0605 82.0395 57.0869 82.1486 57.0869C82.2341 57.0869 82.4193 57.0804 82.76 56.6848C83.1408 56.2428 83.56 55.4749 83.9666 54.3093C84.7765 51.9876 85.3153 48.7598 85.7484 45.2829C85.8711 44.2977 85.9427 43.3189 85.9626 42.3697C86.6017 43.0013 87.3083 43.6096 88.0792 44.1831C88.0424 44.6418 87.9954 45.1011 87.9384 45.5584C87.0709 52.5225 85.6984 59.3048 82.1486 59.3048C78.599 59.3048 76.7835 52.5757 76.0175 45.5584ZM97.8795 28.5437C97.5554 28.7824 97.2265 29.015 96.8939 29.2403C96.0015 28.8627 95.1022 28.556 94.2113 28.3181C95.006 27.8503 95.7995 27.3261 96.5746 26.755C99.3909 24.6798 101.888 22.5027 103.443 20.5534C104.224 19.5743 104.671 18.7712 104.859 18.1665C105.033 17.6035 104.941 17.38 104.881 17.2761C104.833 17.1931 104.726 17.0293 104.201 16.9283C103.616 16.8158 102.728 16.8366 101.501 17.0698C99.0573 17.5341 95.9596 18.6978 92.7005 20.0795C91.8741 20.4299 91.0726 20.8138 90.3109 21.2234C90.489 20.3707 90.6164 19.4785 90.6863 18.5537C91.0678 18.3736 91.4537 18.2009 91.8425 18.0362C98.3701 15.2686 104.995 13.0383 106.792 16.1671C108.59 19.2959 103.626 24.3091 97.8795 28.5437Z" fill="#FBF6ED"/>
</g>
<defs>
<clipPath id="clip0_358_420">
<rect width="162.402" height="133.184" fill="white" transform="translate(0.798828 0.00335693)"/>
</clipPath>
</defs>
</svg>
