<svg width="67" height="46" viewBox="0 0 67 46" fill="none" xmlns="http://www.w3.org/2000/svg">
<g clip-path="url(#clip0_1677_5794)">
<path d="M13.6546 45.4815C13.7033 45.4815 13.7277 45.5183 13.7277 45.5919C13.7277 45.6654 13.7033 45.7022 13.6546 45.7022C13.4229 45.7022 13.0634 45.69 12.5758 45.6654C12.0882 45.6409 11.7347 45.6286 11.5153 45.6286C11.2471 45.6286 10.9058 45.6409 10.4913 45.6654C10.1012 45.69 9.80262 45.7022 9.59539 45.7022C9.54668 45.7022 9.52225 45.6654 9.52225 45.5919C9.52225 45.5183 9.54668 45.4815 9.59539 45.4815C10.0464 45.4815 10.3756 45.4385 10.5828 45.3526C10.79 45.2668 10.8936 45.1195 10.8936 44.911C10.8936 44.7392 10.8144 44.4755 10.6559 44.1197L6.72473 35.7284L3.52492 43.3653C3.35427 43.7824 3.26894 44.1197 3.26894 44.3773C3.26894 44.7576 3.41522 45.0398 3.70777 45.2238C4.01251 45.3956 4.46353 45.4815 5.06083 45.4815C5.12177 45.4815 5.15225 45.5183 5.15225 45.5919C5.15225 45.6654 5.12177 45.7022 5.06083 45.7022C4.84141 45.7022 4.52448 45.69 4.11003 45.6654C3.64682 45.6409 3.24456 45.6286 2.90325 45.6286C2.58632 45.6286 2.22063 45.6409 1.80618 45.6654C1.44048 45.69 1.13574 45.7022 0.891945 45.7022C0.830996 45.7022 0.800522 45.6654 0.800522 45.5919C0.800522 45.5183 0.830996 45.4815 0.891945 45.4815C1.23326 45.4815 1.51971 45.4201 1.75132 45.2974C1.99511 45.1625 2.22063 44.9355 2.42785 44.6166C2.64726 44.2853 2.88496 43.813 3.14094 43.1996L6.99899 34.0355C7.02337 33.9987 7.06604 33.9802 7.12698 33.9802C7.18793 33.9802 7.2245 33.9987 7.23669 34.0355L11.5519 43.1812C11.9663 44.0891 12.3198 44.7024 12.6124 45.0214C12.9049 45.3281 13.2523 45.4815 13.6546 45.4815ZM27.4621 45.4815C27.4987 45.4815 27.517 45.5183 27.517 45.5919C27.517 45.6654 27.4987 45.7022 27.4621 45.7022C27.0842 45.7022 26.7795 45.6962 26.5479 45.6839L25.2863 45.6654L23.9515 45.6839C23.7321 45.6962 23.4457 45.7022 23.0921 45.7022C23.0556 45.7022 23.0372 45.6654 23.0372 45.5919C23.0372 45.5183 23.0556 45.4815 23.0921 45.4815C23.5675 45.4815 23.9149 45.4508 24.1344 45.3894C24.3537 45.3281 24.5 45.2115 24.5732 45.0398C24.6463 44.868 24.6829 44.592 24.6829 44.2117V35.7284L16.8205 45.8679C16.7839 45.917 16.7108 45.9415 16.6011 45.9415C16.4183 45.9415 16.3269 45.8986 16.3269 45.8127V35.6916C16.3269 35.3236 16.2842 35.0537 16.1988 34.8819C16.1257 34.7102 15.9733 34.5937 15.7417 34.5323C15.5223 34.4587 15.181 34.4219 14.7178 34.4219C14.6934 34.4219 14.6812 34.3851 14.6812 34.3115C14.6812 34.2379 14.6934 34.2011 14.7178 34.2011L15.6686 34.2194C16.1806 34.244 16.595 34.2562 16.912 34.2562C17.2654 34.2562 17.7104 34.244 18.2467 34.2194L19.1061 34.2011C19.1427 34.2011 19.161 34.2379 19.161 34.3115C19.161 34.3851 19.1427 34.4219 19.1061 34.4219C18.6307 34.4219 18.2833 34.4587 18.0639 34.5323C17.8445 34.5937 17.6982 34.7102 17.625 34.8819C17.5519 35.0537 17.5153 35.3236 17.5153 35.6916V44.2853L25.396 34.1091C25.4325 34.0723 25.4996 34.0538 25.5971 34.0538C25.78 34.0538 25.8714 34.0968 25.8714 34.1826V44.2117C25.8714 44.5798 25.9079 44.8558 25.9811 45.0398C26.0664 45.2115 26.2188 45.3281 26.4382 45.3894C26.6576 45.4508 26.9989 45.4815 27.4621 45.4815ZM41.2771 45.4815C41.3259 45.4815 41.3503 45.5183 41.3503 45.5919C41.3503 45.6654 41.3259 45.7022 41.2771 45.7022C41.0455 45.7022 40.6859 45.69 40.1983 45.6654C39.7107 45.6409 39.3573 45.6286 39.1378 45.6286C38.8697 45.6286 38.5284 45.6409 38.1139 45.6654C37.7238 45.69 37.4252 45.7022 37.218 45.7022C37.1692 45.7022 37.1448 45.6654 37.1448 45.5919C37.1448 45.5183 37.1692 45.4815 37.218 45.4815C37.669 45.4815 37.9981 45.4385 38.2053 45.3526C38.4125 45.2668 38.5162 45.1195 38.5162 44.911C38.5162 44.7392 38.4369 44.4755 38.2785 44.1197L34.3473 35.7284L31.1475 43.3653C30.9768 43.7824 30.8915 44.1197 30.8915 44.3773C30.8915 44.7576 31.0377 45.0398 31.3303 45.2238C31.6351 45.3956 32.0861 45.4815 32.6834 45.4815C32.7443 45.4815 32.7748 45.5183 32.7748 45.5919C32.7748 45.6654 32.7443 45.7022 32.6834 45.7022C32.464 45.7022 32.147 45.69 31.7326 45.6654C31.2694 45.6409 30.8671 45.6286 30.5258 45.6286C30.2088 45.6286 29.8432 45.6409 29.4287 45.6654C29.0631 45.69 28.7583 45.7022 28.5145 45.7022C28.4535 45.7022 28.4231 45.6654 28.4231 45.5919C28.4231 45.5183 28.4535 45.4815 28.5145 45.4815C28.8558 45.4815 29.1423 45.4201 29.3739 45.2974C29.6176 45.1625 29.8432 44.9355 30.0504 44.6166C30.2698 44.2853 30.5075 43.813 30.7635 43.1996L34.6216 34.0355C34.6459 33.9987 34.6886 33.9802 34.7495 33.9802C34.8105 33.9802 34.847 33.9987 34.8593 34.0355L39.1744 43.1812C39.5889 44.0891 39.9424 44.7024 40.2349 45.0214C40.5275 45.3281 40.8749 45.4815 41.2771 45.4815ZM55.0847 45.4815C55.1213 45.4815 55.1395 45.5183 55.1395 45.5919C55.1395 45.6654 55.1213 45.7022 55.0847 45.7022C54.7068 45.7022 54.4021 45.6962 54.1704 45.6839L52.9088 45.6654L51.574 45.6839C51.3547 45.6962 51.0682 45.7022 50.7147 45.7022C50.6781 45.7022 50.6598 45.6654 50.6598 45.5919C50.6598 45.5183 50.6781 45.4815 50.7147 45.4815C51.1901 45.4815 51.5375 45.4508 51.7569 45.3894C51.9763 45.3281 52.1226 45.2115 52.1957 45.0398C52.2688 44.868 52.3054 44.592 52.3054 44.2117V35.7284L44.4431 45.8679C44.4065 45.917 44.3334 45.9415 44.2237 45.9415C44.0408 45.9415 43.9494 45.8986 43.9494 45.8127V35.6916C43.9494 35.3236 43.9067 35.0537 43.8214 34.8819C43.7483 34.7102 43.5959 34.5937 43.3643 34.5323C43.1448 34.4587 42.8035 34.4219 42.3404 34.4219C42.3159 34.4219 42.3038 34.3851 42.3038 34.3115C42.3038 34.2379 42.3159 34.2011 42.3404 34.2011L43.2911 34.2194C43.8031 34.244 44.2175 34.2562 44.5345 34.2562C44.888 34.2562 45.3329 34.244 45.8693 34.2194L46.7287 34.2011C46.7652 34.2011 46.7835 34.2379 46.7835 34.3115C46.7835 34.3851 46.7652 34.4219 46.7287 34.4219C46.2532 34.4219 45.9058 34.4587 45.6864 34.5323C45.467 34.5937 45.3207 34.7102 45.2476 34.8819C45.1745 35.0537 45.1379 35.3236 45.1379 35.6916V44.2853L53.0186 34.1091C53.0551 34.0723 53.1222 34.0538 53.2197 34.0538C53.4025 34.0538 53.4939 34.0968 53.4939 34.1826V44.2117C53.4939 44.5798 53.5305 44.8558 53.6037 45.0398C53.689 45.2115 53.8414 45.3281 54.0608 45.3894C54.2802 45.4508 54.6215 45.4815 55.0847 45.4815ZM66.3215 45.4815C66.346 45.4815 66.3581 45.5183 66.3581 45.5919C66.3581 45.6654 66.346 45.7022 66.3215 45.7022C65.9315 45.7022 65.6267 45.6962 65.4074 45.6839L64.1457 45.6654L62.8658 45.6839C62.6464 45.6962 62.3477 45.7022 61.9698 45.7022C61.9455 45.7022 61.9333 45.6654 61.9333 45.5919C61.9333 45.5183 61.9455 45.4815 61.9698 45.4815C62.4331 45.4815 62.7744 45.4508 62.9938 45.3894C63.2132 45.3281 63.3595 45.2115 63.4326 45.0398C63.5058 44.8558 63.5423 44.5798 63.5423 44.2117V39.7401C63.14 39.7646 62.7926 39.8566 62.5001 40.0161C62.2075 40.1633 61.8967 40.4393 61.5676 40.8442C61.2384 41.2368 60.8484 41.8256 60.3974 42.6107C59.8001 43.6413 59.3429 44.3773 59.026 44.819C58.7213 45.2606 58.5018 45.5183 58.3678 45.5919C58.2459 45.6654 58.0813 45.7022 57.8741 45.7022H55.9908C55.9542 45.7022 55.9359 45.6654 55.9359 45.5919C55.9359 45.5183 55.9542 45.4815 55.9908 45.4815C56.6247 45.4692 57.1732 45.2238 57.6364 44.7454C58.0996 44.2547 58.6603 43.4204 59.3186 42.2427C59.7817 41.433 60.2084 40.8442 60.5985 40.4762C60.9886 40.1081 61.4396 39.8627 61.9516 39.7401C60.891 39.6419 60.0804 39.3536 59.5197 38.8752C58.9712 38.3845 58.6969 37.7527 58.6969 36.9798C58.6969 36.4277 58.8371 35.937 59.1175 35.5076C59.41 35.0782 59.8062 34.747 60.3059 34.5139C60.8179 34.2685 61.3908 34.1459 62.0247 34.1459C62.305 34.1459 62.6281 34.1643 62.9938 34.2011C63.14 34.2134 63.3107 34.2256 63.5058 34.2379C63.7008 34.2502 63.9141 34.2562 64.1457 34.2562C64.4626 34.2562 64.8771 34.244 65.389 34.2194L66.3215 34.2011C66.346 34.2011 66.3581 34.2379 66.3581 34.3115C66.3581 34.3851 66.346 34.4219 66.3215 34.4219C65.8462 34.4219 65.4988 34.4587 65.2793 34.5323C65.0599 34.5937 64.9137 34.7102 64.8405 34.8819C64.7674 35.0537 64.7308 35.3236 64.7308 35.6916V44.2117C64.7308 44.5798 64.7674 44.8558 64.8405 45.0398C64.9259 45.2115 65.0721 45.3281 65.2793 45.3894C65.4988 45.4508 65.8462 45.4815 66.3215 45.4815ZM59.9403 36.5197C59.9403 37.4153 60.1902 38.133 60.6899 38.6727C61.1897 39.2125 61.915 39.4824 62.8658 39.4824C63.0243 39.4824 63.2497 39.4701 63.5423 39.4456V35.7284C63.5423 35.2377 63.396 34.8942 63.1035 34.6979C62.8109 34.4894 62.4452 34.3851 62.0064 34.3851C60.629 34.3851 59.9403 35.0966 59.9403 36.5197Z" fill="#FBF6ED"/>
<path fill-rule="evenodd" clip-rule="evenodd" d="M35.5916 10.0463C36.0697 8.92957 36.2403 7.34354 35.7256 5.60871C35.6252 5.2699 35.532 4.95334 35.445 4.65751L35.4448 4.6569L35.4446 4.65613C35.0187 3.20887 34.7391 2.25812 34.4558 1.62694C34.2902 1.25785 34.169 1.10978 34.1022 1.05197C34.0711 1.02507 34.0449 1.00386 33.934 1.00386C33.883 1.00386 33.8691 1.00605 33.8194 1.05566C33.7316 1.1433 33.6011 1.33597 33.4303 1.74126C33.2086 2.26752 32.9978 2.94309 32.721 3.83043L32.721 3.83057C32.5576 4.35436 32.3712 4.95194 32.1459 5.63615C31.6437 7.16125 31.7965 8.74155 32.2844 9.92324C32.528 10.5134 32.8401 10.9676 33.1555 11.261C33.304 11.3992 33.4422 11.4926 33.567 11.5527V9.67544C33.2696 9.51912 33.0641 9.18443 33.0641 8.79679C33.0641 8.25955 33.4588 7.82407 33.9458 7.82407C34.4327 7.82407 34.8275 8.25955 34.8275 8.79679C34.8275 9.18066 34.626 9.51256 34.3334 9.67082V11.5512C34.7383 11.3697 35.2206 10.9126 35.5916 10.0463ZM30.7963 12.4267C31.7027 12.3197 32.328 12.4987 32.6915 12.7503L30.9801 13.7447C30.7095 13.5618 30.3483 13.5376 30.047 13.7126C29.6253 13.9577 29.4808 14.5003 29.7243 14.9248C29.9678 15.3492 30.507 15.4946 30.9287 15.2496C31.233 15.0728 31.3929 14.741 31.3669 14.4105L33.1016 13.4026C33.1172 13.5481 33.1081 13.7268 33.0596 13.9427C32.9648 14.3641 32.73 14.8634 32.344 15.3708C31.5711 16.3868 30.2876 17.3101 28.7242 17.635C28.0227 17.7808 27.4153 17.9171 26.8829 18.0366L26.8828 18.0366C25.9809 18.239 25.2942 18.3931 24.7304 18.463C24.2963 18.5167 24.0652 18.4993 23.9459 18.4667C23.8784 18.4481 23.8696 18.4371 23.844 18.3926C23.7886 18.296 23.7938 18.2626 23.8013 18.222C23.8176 18.1348 23.8845 17.9553 24.1193 17.6263C24.5208 17.0638 25.1991 16.3447 26.2315 15.2499C26.4429 15.0259 26.669 14.7861 26.9107 14.5287C28.1462 13.2127 29.5963 12.5683 30.7963 12.4267ZM35.5732 15.314C34.9829 14.5167 34.8457 13.8388 34.9165 13.3947L36.6171 14.3829C36.595 14.7101 36.7548 15.0371 37.056 15.2121C37.4778 15.4571 38.017 15.3117 38.2604 14.8874C38.5039 14.4629 38.3594 13.9202 37.9377 13.6752C37.6335 13.4984 37.268 13.5249 36.9966 13.7128L35.3508 12.7564C35.4556 12.6928 35.5857 12.6334 35.746 12.5833C36.1561 12.4552 36.7031 12.4103 37.3327 12.493C38.5935 12.6586 40.0298 13.3156 41.091 14.5158C41.5671 15.0543 41.9881 15.5155 42.3571 15.9199L42.3573 15.9199L42.3573 15.92C42.9825 16.6049 43.4584 17.1263 43.8003 17.5828C44.0637 17.9342 44.1643 18.1444 44.1958 18.2647C44.2136 18.3328 44.2085 18.346 44.183 18.3905C44.1276 18.4871 44.0962 18.4993 44.0575 18.513C43.9744 18.5424 43.7864 18.5739 43.386 18.5337C42.7012 18.465 41.7433 18.2334 40.285 17.8809C39.9865 17.8088 39.6671 17.7315 39.3247 17.6496C37.5746 17.2308 36.2951 16.2891 35.5732 15.314ZM32.0825 11.5004C31.0285 10.1259 30.4642 7.67852 31.2365 5.33288C31.4439 4.70292 31.6232 4.12903 31.7849 3.6113L31.785 3.61106V3.61095C32.5277 1.23281 32.9004 0.0397339 33.934 0.0397339C35.0869 0.0397339 35.4344 1.22224 36.3697 4.40414L36.3699 4.4049C36.4558 4.69715 36.5467 5.00627 36.6436 5.33288C37.4098 7.91578 36.8435 10.2825 35.7893 11.5778C37.5097 11.2168 40.0808 11.923 41.8066 13.8749C42.245 14.3706 42.6492 14.8138 43.0139 15.2136L43.0141 15.2139C44.6892 17.0504 45.5295 17.9716 45.0127 18.8726C44.4362 19.8774 43.2449 19.5891 40.0393 18.8132C39.7446 18.7419 39.4329 18.6665 39.1031 18.5876C36.1796 17.8879 34.3291 15.8623 33.9941 14.1545C33.6002 15.9088 31.6279 18.0161 28.9179 18.5792C28.272 18.7134 27.6885 18.8442 27.1621 18.9621H27.162C24.7442 19.5038 23.5312 19.7756 23.0144 18.8746C22.4379 17.8698 23.2817 16.9757 25.5521 14.5696L25.5523 14.5695C25.7609 14.3484 25.9816 14.1145 26.2144 13.8665C28.0791 11.8803 30.4373 11.1989 32.0825 11.5004ZM29.9991 7.36408C30.1245 7.41961 30.2491 7.47716 30.3724 7.53673C30.4064 7.91808 30.4649 8.28972 30.5448 8.64726C30.2546 8.4862 29.9499 8.33463 29.6357 8.19551C28.3284 7.61657 27.0506 7.1725 26.0455 7.0173C25.5407 6.93931 25.1662 6.94443 24.9148 7.00152C24.6808 7.05467 24.6209 7.13345 24.5964 7.17599C24.5769 7.21 24.5411 7.28166 24.6129 7.48952C24.6928 7.72098 24.8818 8.03333 25.2148 8.42285C25.8782 9.19889 26.9217 10.0647 28.0751 10.9434C28.3669 11.1657 28.6655 11.3724 28.965 11.5596C28.6167 11.66 28.2633 11.7882 27.9093 11.9457C27.7814 11.8553 27.655 11.7626 27.5303 11.6676C25.2202 9.90774 23.0797 8.00329 23.8148 6.7218C24.5499 5.44032 27.3317 6.18283 29.9991 7.36408ZM31.5063 18.6581C31.486 18.4718 31.4698 18.2849 31.458 18.0983C31.776 17.8529 32.0697 17.5904 32.3366 17.3167C32.3353 17.7203 32.3576 18.1379 32.4035 18.559C32.557 19.9671 32.8103 21.2824 33.1739 22.2209C33.3566 22.6922 33.5451 23.0097 33.7162 23.196C33.8751 23.369 33.969 23.3799 34.0136 23.3799C34.0486 23.3799 34.1243 23.3772 34.2636 23.2152C34.4194 23.0341 34.5908 22.7196 34.757 22.2422C35.0883 21.2913 35.3086 19.9693 35.4857 18.5452C35.5359 18.1417 35.5652 17.7408 35.5733 17.3521C35.8347 17.6108 36.1236 17.8599 36.4389 18.0948C36.4239 18.2827 36.4046 18.4708 36.3813 18.6581C36.0266 21.5104 35.4653 24.2882 34.0136 24.2882C32.562 24.2882 31.8195 21.5322 31.5063 18.6581ZM40.4468 11.6893C40.3142 11.7871 40.1797 11.8824 40.0437 11.9746C39.6787 11.82 39.311 11.6944 38.9466 11.5969C39.2716 11.4053 39.5962 11.1906 39.9131 10.9567C41.0648 10.1068 42.0859 9.21509 42.722 8.4167C43.0415 8.01573 43.2243 7.68676 43.3009 7.43909C43.3722 7.20854 43.3344 7.11697 43.31 7.07444C43.2905 7.04042 43.2467 6.97335 43.0319 6.93199C42.7928 6.88592 42.4296 6.89443 41.9278 6.98992C40.9284 7.18011 39.6616 7.65673 38.3288 8.2226C37.9908 8.36613 37.663 8.52335 37.3516 8.69112C37.4244 8.3419 37.4765 7.97647 37.5051 7.59771C37.6611 7.52395 37.8189 7.4532 37.9779 7.38573C40.6474 6.25219 43.3565 5.33875 44.0916 6.62022C44.8267 7.90167 42.797 9.95495 40.4468 11.6893Z" fill="#FBF6ED"/>
</g>
<defs>
<clipPath id="clip0_1677_5794">
<rect width="67" height="46" fill="white"/>
</clipPath>
</defs>
</svg>
