<svg width="43" height="43" viewBox="0 0 43 43" fill="none" xmlns="http://www.w3.org/2000/svg">
<path d="M32.4282 12.2055H13.4316C11.7359 12.2055 10.3574 13.584 10.3574 15.2797V28.2631C10.3574 29.9589 11.7359 31.3373 13.4316 31.3373H32.423C34.1187 31.3373 35.4972 29.9589 35.4972 28.2631V15.2849C35.5024 13.5892 34.1239 12.2055 32.4282 12.2055ZM34.0979 28.2631C34.0979 29.1838 33.3489 29.9328 32.4282 29.9328H13.4316C12.5109 29.9328 11.7619 29.1838 11.7619 28.2631V15.2849C11.7619 14.3642 12.5109 13.6152 13.4316 13.6152H32.423C33.3437 13.6152 34.0927 14.3642 34.0927 15.2849V28.2631H34.0979Z" fill="#2A657E"/>
<path d="M26.212 21.6093L32.3604 16.0956C32.6465 15.8355 32.6725 15.3933 32.4124 15.102C32.1523 14.8159 31.7102 14.7899 31.4189 15.05L22.9401 22.6601L21.286 21.1828C21.2808 21.1776 21.2756 21.1724 21.2756 21.1672C21.2392 21.1308 21.2028 21.0996 21.1612 21.0684L14.4302 15.0448C14.1389 14.7847 13.6967 14.8107 13.4367 15.102C13.1766 15.3933 13.2026 15.8355 13.4939 16.0956L19.7151 21.6562L13.5199 27.456C13.239 27.7213 13.2234 28.1635 13.4887 28.4496C13.6291 28.5952 13.8164 28.6732 14.0036 28.6732C14.1753 28.6732 14.347 28.6108 14.4822 28.486L20.771 22.6029L22.4772 24.127C22.6124 24.2466 22.7789 24.3038 22.9453 24.3038C23.1118 24.3038 23.2834 24.2414 23.4135 24.1218L25.1665 22.5508L31.4189 28.4912C31.5541 28.6212 31.731 28.6836 31.9026 28.6836C32.0899 28.6836 32.272 28.6108 32.4124 28.4652C32.6777 28.1843 32.6673 27.7369 32.3864 27.4716L26.212 21.6093Z" fill="#2A657E"/>
</svg>
