<svg width="55" height="55" viewBox="0 0 55 55" fill="none" xmlns="http://www.w3.org/2000/svg">
<g clip-path="url(#clip0_1721_5842)">
<circle cx="27.5" cy="27.6332" r="27.2844" fill="#FBF6ED"/>
<path d="M38.7859 17.752H16.2203C14.206 17.752 12.5686 19.1758 12.5686 20.9275V34.3388C12.5686 36.0904 14.206 37.5143 16.2203 37.5143H38.7797C40.794 37.5143 42.4314 36.0904 42.4314 34.3388V20.9328C42.4376 19.1812 40.8002 17.752 38.7859 17.752ZM40.7693 34.3388C40.7693 35.2898 39.8795 36.0636 38.7859 36.0636H16.2203C15.1267 36.0636 14.2369 35.2898 14.2369 34.3388V20.9328C14.2369 19.9818 15.1267 19.2081 16.2203 19.2081H38.7797C39.8733 19.2081 40.7631 19.9818 40.7631 20.9328V34.3388H40.7693Z" fill="#2A657E"/>
<path d="M31.3975 27.4626L38.701 21.7671C39.0409 21.4984 39.0718 21.0417 38.7628 20.7408C38.4539 20.4453 37.9287 20.4184 37.5827 20.6871L27.511 28.548L25.5461 27.022C25.5399 27.0166 25.5337 27.0112 25.5337 27.0059C25.4905 26.9683 25.4472 26.936 25.3978 26.9038L17.4022 20.6817C17.0562 20.413 16.531 20.4399 16.222 20.7408C15.9131 21.0417 15.944 21.4984 16.29 21.7671L23.68 27.5109L16.3209 33.502C15.9872 33.776 15.9687 34.2327 16.2838 34.5282C16.4507 34.6787 16.6731 34.7593 16.8955 34.7593C17.0994 34.7593 17.3033 34.6948 17.464 34.5659L24.9343 28.4889L26.961 30.0632C27.1217 30.1868 27.3194 30.2459 27.5171 30.2459C27.7149 30.2459 27.9188 30.1814 28.0733 30.0578L30.1556 28.4351L37.5827 34.5712C37.7433 34.7056 37.9534 34.77 38.1573 34.77C38.3797 34.77 38.596 34.6948 38.7628 34.5444C39.078 34.2542 39.0656 33.7921 38.7319 33.5181L31.3975 27.4626Z" fill="#2A657E"/>
</g>
<defs>
<clipPath id="clip0_1721_5842">
<rect width="54.5688" height="54.5688" fill="white" transform="translate(0.215576 0.348755)"/>
</clipPath>
</defs>
</svg>
