<svg width="30" height="31" viewBox="0 0 30 31" fill="none" xmlns="http://www.w3.org/2000/svg">
<path d="M24.0915 7.35254H7.91265C6.46842 7.35254 5.29443 8.52653 5.29443 9.97075V21.0284C5.29443 22.4726 6.46842 23.6466 7.91265 23.6466H24.0871C25.5313 23.6466 26.7053 22.4726 26.7053 21.0284V9.97518C26.7097 8.53096 25.5358 7.35254 24.0915 7.35254ZM25.5136 21.0284C25.5136 21.8125 24.8757 22.4505 24.0915 22.4505H7.91265C7.12851 22.4505 6.49057 21.8125 6.49057 21.0284V9.97518C6.49057 9.19105 7.12851 8.55311 7.91265 8.55311H24.0871C24.8712 8.55311 25.5092 9.19105 25.5092 9.97518V21.0284H25.5136Z" fill="#FBF6ED"/>
<path d="M18.7973 15.3617L24.0338 10.6658C24.2774 10.4443 24.2996 10.0677 24.0781 9.81963C23.8565 9.57597 23.48 9.55382 23.2319 9.77533L16.0108 16.2566L14.602 14.9985C14.5975 14.994 14.5931 14.9896 14.5931 14.9852C14.5621 14.9542 14.5311 14.9276 14.4957 14.901L8.76305 9.7709C8.51496 9.54939 8.1384 9.57154 7.91689 9.81963C7.69539 10.0677 7.71754 10.4443 7.96563 10.6658L13.2641 15.4016L7.98778 20.3412C7.74855 20.5672 7.73526 20.9437 7.9612 21.1874C8.08081 21.3114 8.24029 21.3779 8.39978 21.3779C8.54597 21.3779 8.69217 21.3247 8.80735 21.2184L14.1634 16.2079L15.6165 17.5059C15.7317 17.6078 15.8734 17.6566 16.0152 17.6566C16.157 17.6566 16.3032 17.6034 16.4139 17.5015L17.9069 16.1636L23.2319 21.2228C23.3471 21.3336 23.4977 21.3867 23.6439 21.3867C23.8034 21.3867 23.9584 21.3247 24.0781 21.2007C24.304 20.9614 24.2951 20.5804 24.0559 20.3545L18.7973 15.3617Z" fill="#FBF6ED"/>
</svg>
