<svg width="60" height="60" viewBox="0 0 60 60" fill="none" xmlns="http://www.w3.org/2000/svg">
<path d="M49.5 25.9626V7.5H31.0375V25.9626H39.5698V49.8633H26.8741C27.5118 49.0489 27.9708 48.0882 28.1882 47.0395H35.6804V39.7972C35.6804 35.5664 32.2384 32.1243 28.0076 32.1243H24.9034L19.0941 23.4634H4.5V26.1001H17.6878L21.7285 32.1243H4.5V34.761H28.0076C30.3283 34.761 32.2864 36.3395 32.8674 38.4788H29.5829V41.1155H33.0436V44.4028H28.2155C27.6286 41.2158 24.8314 38.7931 21.4772 38.7931C18.123 38.7931 15.3258 41.2158 14.7389 44.4028H4.5V47.0395H14.7665C14.9839 48.0882 15.4429 49.0489 16.0806 49.8633H4.5V52.5H49.5V49.8633H42.2065V25.9626H49.5ZM17.2606 45.6466C17.2606 43.3214 19.1522 41.4297 21.4774 41.4297C23.8025 41.4297 25.6941 43.3213 25.6941 45.6466C25.6941 47.9717 23.8025 49.8633 21.4774 49.8633C19.1522 49.8633 17.2606 47.9717 17.2606 45.6466ZM33.6742 10.1367H46.8633V23.3258H33.6742V10.1367Z" fill="#F2C452"/>
<path d="M40.2366 12.1482H36.9873L36.9915 21.1232H39.6282V18.6921C39.6282 18.6921 40.086 18.6904 40.2366 18.6904C42.0614 18.6904 43.546 17.223 43.546 15.4193C43.546 13.6156 42.0613 12.1482 40.2366 12.1482ZM40.2366 16.0537C40.0848 16.0537 39.6347 16.0554 39.6347 16.0554L39.6319 14.7849H40.2366C40.595 14.7849 40.9092 15.0814 40.9092 15.4193C40.9092 15.7572 40.595 16.0537 40.2366 16.0537Z" fill="#F2C452"/>
</svg>
