<svg width="26" height="25" viewBox="0 0 26 25" fill="none" xmlns="http://www.w3.org/2000/svg">
<path d="M10.8361 10.7415C13.7658 10.7415 16.1468 8.36057 16.1468 5.43083C16.1468 2.50108 13.7658 0.120117 10.8361 0.120117C7.90636 0.120117 5.52539 2.50108 5.52539 5.43083C5.52539 8.36057 7.90636 10.7415 10.8361 10.7415ZM10.8361 1.89035C12.7922 1.89035 14.3766 3.47471 14.3766 5.43083C14.3766 7.38694 12.7922 8.9713 10.8361 8.9713C8.87999 8.9713 7.29563 7.38694 7.29563 5.43083C7.29563 3.47471 8.87999 1.89035 10.8361 1.89035Z" fill="#FBF6ED"/>
<path d="M10.8362 11.6265C5.83524 11.6265 1.09985 15.0696 1.09985 18.7074V23.133C1.09985 23.6198 1.49816 24.0181 1.98497 24.0181H19.6873C20.1741 24.0181 20.5725 23.6198 20.5725 23.133V18.7074C20.5725 15.0696 15.8371 11.6265 10.8362 11.6265ZM18.8022 22.2479H2.87009V18.7074C2.87009 16.0786 6.88853 13.3967 10.8362 13.3967C14.7838 13.3967 18.8022 16.0786 18.8022 18.7074V22.2479Z" fill="#FBF6ED"/>
</svg>
