<svg width="30" height="31" viewBox="0 0 30 31" fill="none" xmlns="http://www.w3.org/2000/svg">
<path d="M21.0038 19.5129C20.64 18.8118 19.9125 18.3762 19.1055 18.3762C18.754 18.3762 18.4019 18.4621 18.0874 18.6244L16.7206 19.329C16.0471 18.6113 15.1677 17.6388 14.406 16.1619C13.6452 14.6863 13.3618 13.4095 13.1665 12.4392L14.5344 11.7345C15.604 11.1814 16.0365 9.88341 15.4985 8.84137L13.6415 5.24039C13.2802 4.53733 12.5528 4.10059 11.7434 4.10059C11.4057 4.10059 11.0671 4.17992 10.7614 4.33004C10.4544 4.44945 8.93827 5.12152 7.81164 7.13019C6.23055 9.94903 6.7192 13.2978 9.49834 18.6893C13.1515 25.7698 17.6934 26.727 17.8847 26.7642C18.3482 26.8546 18.7868 26.9004 19.1883 26.9004C20.5565 26.9004 21.334 26.3877 21.9588 25.9757C22.9849 25.2988 23.3646 24.0965 22.8611 23.1159L21.0038 19.5129ZM21.2235 24.8607C20.6743 25.2228 20.1558 25.5648 19.1883 25.5648C18.8725 25.5648 18.5199 25.5273 18.1405 25.4533C18.0998 25.4452 14.0349 24.5688 10.6854 18.077C8.1402 13.1395 7.64505 10.1573 8.97656 7.78357C9.94461 6.05761 11.197 5.59219 11.2445 5.57492L11.2914 5.55898L11.3355 5.53628C11.4643 5.46994 11.6016 5.43619 11.7434 5.43619C12.05 5.43619 12.3222 5.59513 12.454 5.85175L14.3117 9.45379C14.5121 9.8421 14.3369 10.3331 13.9217 10.5477L12.3348 11.3653L12.3063 11.3809C11.8595 11.6391 11.7412 12.1423 11.8205 12.5194C12.0321 13.5806 12.3219 15.0341 13.219 16.774C14.1132 18.508 15.1281 19.586 15.8676 20.3715C16.0811 20.6005 16.373 20.7319 16.6684 20.7318C16.8559 20.7318 17.0429 20.679 17.2116 20.5785L18.6997 19.8113C18.8277 19.7453 18.9642 19.7118 19.1055 19.7118C19.4119 19.7118 19.6851 19.8713 19.8175 20.1265L21.6735 23.7269C21.894 24.1565 21.5948 24.6158 21.2235 24.8607Z" fill="#FBF6ED"/>
</svg>
