<svg width="43" height="43" viewBox="0 0 43 43" fill="none" xmlns="http://www.w3.org/2000/svg">
<path d="M28.9472 26.731C28.4975 25.8644 27.5982 25.326 26.6007 25.326C26.1662 25.326 25.731 25.4322 25.3422 25.6328L23.6528 26.5037C22.8203 25.6165 21.7333 24.4145 20.7917 22.589C19.8514 20.765 19.501 19.1867 19.2597 17.9874L20.9504 17.1163C22.2726 16.4326 22.8072 14.8282 22.1422 13.5402L19.8467 9.08907C19.4001 8.22003 18.501 7.68018 17.5006 7.68018C17.0831 7.68018 16.6645 7.77824 16.2867 7.9638C15.9072 8.1114 14.0332 8.94214 12.6406 11.425C10.6862 14.9093 11.2903 19.0487 14.7255 25.7129C19.2411 34.465 24.8552 35.6483 25.0917 35.6943C25.6647 35.806 26.2067 35.8626 26.703 35.8626C28.3942 35.8626 29.3553 35.2288 30.1276 34.7196C31.3959 33.8829 31.8653 32.3967 31.2429 31.1846L28.9472 26.731ZM29.2187 33.3414C28.5399 33.7889 27.8989 34.2116 26.7031 34.2116C26.3127 34.2116 25.8769 34.1653 25.4079 34.0739C25.3576 34.0638 20.333 32.9805 16.1928 24.9562C13.0467 18.853 12.4347 15.1668 14.0805 12.2326C15.2771 10.0992 16.8251 9.52392 16.8839 9.50257L16.9419 9.48287L16.9964 9.4548C17.1556 9.37281 17.3254 9.33109 17.5006 9.33109C17.8795 9.33109 18.216 9.52755 18.379 9.84475L20.6752 14.2972C20.9229 14.7771 20.7063 15.384 20.1931 15.6494L18.2316 16.66L18.1964 16.6792C17.6441 16.9984 17.4978 17.6204 17.5959 18.0865C17.8574 19.3983 18.2156 21.1949 19.3245 23.3455C20.4299 25.4889 21.6843 26.8214 22.5984 27.7923C22.8623 28.0754 23.2231 28.2379 23.5883 28.2377C23.8201 28.2377 24.0512 28.1724 24.2597 28.0482L26.0991 27.0999C26.2574 27.0183 26.4261 26.9769 26.6007 26.9769C26.9795 26.9769 27.3172 27.174 27.4808 27.4894L29.7749 31.9399C30.0476 32.4709 29.6776 33.0386 29.2187 33.3414Z" fill="#2A657E"/>
</svg>
