<svg width="55" height="55" viewBox="0 0 55 55" fill="none" xmlns="http://www.w3.org/2000/svg">
<g clip-path="url(#clip0_1721_5847)">
<circle cx="27.5" cy="27.3076" r="27.2844" fill="#FBF6ED"/>
<path d="M36.1217 33.0695C35.5992 32.0627 34.5546 31.4371 33.3956 31.4371C32.8909 31.4371 32.3852 31.5605 31.9336 31.7936L29.9709 32.8054C29.0037 31.7747 27.7409 30.3783 26.647 28.2574C25.5545 26.1384 25.1475 24.3048 24.8671 22.9115L26.8314 21.8994C28.3674 21.1051 28.9885 19.2412 28.2159 17.7448L25.5492 12.5737C25.0303 11.5641 23.9858 10.9369 22.8235 10.9369C22.3385 10.9369 21.8522 11.0508 21.4132 11.2664C20.9724 11.4379 18.7952 12.403 17.1773 15.2875C14.9068 19.3355 15.6085 24.1445 19.5995 31.8867C24.8455 42.0546 31.3678 43.4292 31.6426 43.4827C32.3082 43.6125 32.938 43.6782 33.5145 43.6782C35.4793 43.6782 36.5958 42.9419 37.4931 42.3503C38.9666 41.3783 39.5119 39.6517 38.7888 38.2435L36.1217 33.0695ZM36.4371 40.7492C35.6486 41.2691 34.9039 41.7602 33.5147 41.7602C33.0611 41.7602 32.5548 41.7064 32.0099 41.6001C31.9515 41.5885 26.1141 40.3299 21.3042 31.0075C17.6491 23.9171 16.9381 19.6345 18.8502 16.2258C20.2403 13.7472 22.0387 13.0789 22.107 13.0541L22.1744 13.0312L22.2377 12.9986C22.4227 12.9033 22.6199 12.8549 22.8235 12.8549C23.2637 12.8549 23.6546 13.0831 23.8439 13.4516L26.5116 18.6243C26.7994 19.1819 26.5478 19.8869 25.9516 20.1952L23.6727 21.3693L23.6318 21.3917C22.9902 21.7625 22.8203 22.485 22.9342 23.0266C23.238 24.5506 23.6542 26.6378 24.9424 29.1363C26.2266 31.6264 27.684 33.1744 28.7459 34.3025C29.0525 34.6313 29.4717 34.8201 29.8959 34.8199C30.1652 34.8199 30.4337 34.744 30.6759 34.5998L32.8129 33.4981C32.9968 33.4032 33.1928 33.3551 33.3956 33.3551C33.8357 33.3551 34.228 33.5841 34.4181 33.9506L37.0834 39.1209C37.4001 39.7379 36.9703 40.3974 36.4371 40.7492Z" fill="#2A657E"/>
</g>
<defs>
<clipPath id="clip0_1721_5847">
<rect width="54.5688" height="54.5688" fill="white" transform="translate(0.215576 0.0231934)"/>
</clipPath>
</defs>
</svg>
