<svg width="34" height="21" viewBox="0 0 34 21" fill="none" xmlns="http://www.w3.org/2000/svg">
<path fill-rule="evenodd" clip-rule="evenodd" d="M33.1877 0.913086H0.931152V0.918214L10.3884 0.918156L0.931152 10.8211V10.8293L10.3884 20.7322L0.931152 20.7322V20.7371H33.1877V0.913086ZM26.0083 14.375C26.1489 14.0521 26.2192 13.7083 26.2192 13.3438C26.2192 12.9792 26.1489 12.638 26.0083 12.3203C25.8729 11.9974 25.6854 11.7161 25.4458 11.4766C25.2062 11.2318 24.925 11.0391 24.6021 10.8984C24.2843 10.7578 23.9432 10.6875 23.5786 10.6875C23.2088 10.6875 22.8625 10.7578 22.5396 10.8984C22.2218 11.0391 21.9406 11.2318 21.6958 11.4766C21.4562 11.7161 21.2661 11.9974 21.1255 12.3203C20.9901 12.638 20.9224 12.9792 20.9224 13.3438C20.9224 13.7083 20.9901 14.0521 21.1255 14.375C21.2661 14.6927 21.4562 14.9714 21.6958 15.2109C21.9406 15.4505 22.2218 15.6406 22.5396 15.7812C22.8625 15.9167 23.2088 15.9844 23.5786 15.9844C23.9432 15.9844 24.2843 15.9167 24.6021 15.7812C24.925 15.6406 25.2062 15.4505 25.4458 15.2109C25.6854 14.9714 25.8729 14.6927 26.0083 14.375ZM17.8989 16.1016L23.6567 6.01562H21.7896L16.0239 16.1016H17.8989ZM18.6802 9.79688C18.8208 9.47396 18.8911 9.1276 18.8911 8.75781C18.8911 8.39323 18.8208 8.05208 18.6802 7.73438C18.5448 7.41146 18.3547 7.13021 18.1099 6.89062C17.8703 6.65104 17.589 6.46354 17.2661 6.32812C16.9432 6.1875 16.5994 6.11719 16.2349 6.11719C15.8703 6.11719 15.5265 6.1875 15.2036 6.32812C14.8859 6.46354 14.6073 6.65104 14.3677 6.89062C14.1281 7.13021 13.938 7.41146 13.7974 7.73438C13.6619 8.05208 13.5942 8.39323 13.5942 8.75781C13.5942 9.1276 13.6619 9.47396 13.7974 9.79688C13.938 10.1146 14.1281 10.3958 14.3677 10.6406C14.6073 10.8802 14.8859 11.0703 15.2036 11.2109C15.5265 11.3464 15.8703 11.4141 16.2349 11.4141C16.5994 11.4141 16.9432 11.3464 17.2661 11.2109C17.589 11.0703 17.8703 10.8802 18.1099 10.6406C18.3547 10.3958 18.5448 10.1146 18.6802 9.79688ZM24.5083 12.9531C24.5604 13.0729 24.5864 13.2031 24.5864 13.3438C24.5864 13.4844 24.5604 13.6172 24.5083 13.7422C24.4562 13.862 24.3833 13.9688 24.2896 14.0625C24.201 14.151 24.0942 14.2214 23.9692 14.2734C23.8494 14.3255 23.7192 14.3516 23.5786 14.3516C23.438 14.3516 23.3052 14.3255 23.1802 14.2734C23.0552 14.2214 22.9458 14.151 22.8521 14.0625C22.7635 13.9688 22.6906 13.862 22.6333 13.7422C22.5812 13.6172 22.5552 13.4844 22.5552 13.3438C22.5552 13.2031 22.5812 13.0729 22.6333 12.9531C22.6906 12.8281 22.7635 12.7188 22.8521 12.625C22.9458 12.5312 23.0552 12.4583 23.1802 12.4062C23.3052 12.349 23.438 12.3203 23.5786 12.3203C23.7192 12.3203 23.8494 12.349 23.9692 12.4062C24.0942 12.4583 24.201 12.5312 24.2896 12.625C24.3833 12.7188 24.4562 12.8281 24.5083 12.9531ZM17.1802 8.36719C17.2323 8.48698 17.2583 8.61719 17.2583 8.75781C17.2583 8.89844 17.2323 9.03125 17.1802 9.15625C17.1281 9.28125 17.0552 9.39062 16.9614 9.48438C16.8729 9.57812 16.7661 9.65104 16.6411 9.70312C16.5161 9.75521 16.3807 9.78125 16.2349 9.78125C16.0942 9.78125 15.9614 9.75521 15.8364 9.70312C15.7166 9.65104 15.6099 9.57812 15.5161 9.48438C15.4276 9.39062 15.3573 9.28125 15.3052 9.15625C15.2531 9.03125 15.2271 8.89844 15.2271 8.75781C15.2271 8.61719 15.2531 8.48698 15.3052 8.36719C15.3573 8.24219 15.4276 8.13542 15.5161 8.04688C15.6099 7.95312 15.7166 7.88021 15.8364 7.82812C15.9614 7.77604 16.0942 7.75 16.2349 7.75C16.3807 7.75 16.5161 7.77604 16.6411 7.82812C16.7661 7.88021 16.8729 7.95312 16.9614 8.04688C17.0552 8.13542 17.1281 8.24219 17.1802 8.36719Z" fill="#F2C452"/>
</svg>
