<svg width="49" height="49" viewBox="0 0 49 49" fill="none" xmlns="http://www.w3.org/2000/svg">
<path d="M43.5557 21.7192V13.7306C43.5557 11.5166 41.7544 9.71533 39.5404 9.71533H9.1924C6.97836 9.71533 5.17709 11.5166 5.17709 13.7306V21.7192C2.99605 22.9768 1.52368 25.3312 1.52368 28.0246V31.6737C1.52368 32.4129 2.12295 33.0121 2.86212 33.0121H4.18307V35.0052C4.18307 36.9652 5.7776 38.5597 7.73752 38.5597C9.69744 38.5597 11.292 36.9652 11.292 35.0052V33.0121H37.4408V35.0052C37.4408 36.9652 39.0353 38.5597 40.9952 38.5597C42.9552 38.5597 44.5497 36.9652 44.5497 35.0052V33.0121H45.8706C46.6098 33.0121 47.2091 32.4129 47.2091 31.6737V28.0246C47.2091 25.3312 45.7367 22.9768 43.5557 21.7192ZM7.85405 13.7306C7.85396 12.9926 8.45439 12.3922 9.1924 12.3922H39.5403C40.2783 12.3922 40.8787 12.9926 40.8787 13.7306V20.813C40.5693 20.7727 40.2545 20.7497 39.9343 20.7497H39.3893C39.4655 20.4424 39.5067 20.1213 39.5067 19.7907V19.0241C39.5067 16.8266 37.7189 15.0388 35.5214 15.0388H28.7862C26.5887 15.0388 24.8008 16.8265 24.8008 19.0241V19.7907C24.8008 20.1213 24.842 20.4424 24.9183 20.7497H23.8145C23.8907 20.4424 23.9319 20.1213 23.9319 19.7907V19.0241C23.9319 16.8266 22.1441 15.0388 19.9466 15.0388H13.2114C11.0139 15.0388 9.22604 16.8265 9.22604 19.0241V19.7907C9.22604 20.1213 9.26718 20.4424 9.34347 20.7497H8.79846C8.47821 20.7497 8.16341 20.7727 7.85405 20.813V13.7306ZM36.8298 19.0242V19.7908C36.8298 20.1698 36.6669 20.5106 36.4086 20.7498H27.899C27.6406 20.5106 27.4777 20.1698 27.4777 19.7908V19.0242C27.4777 18.3028 28.0647 17.7157 28.7862 17.7157H35.5214C36.2428 17.7157 36.8298 18.3027 36.8298 19.0242ZM21.255 19.0242V19.7908C21.255 20.1698 21.0921 20.5106 20.8338 20.7498H12.3243C12.0659 20.5106 11.9029 20.1698 11.9029 19.7908V19.0242C11.9029 18.3028 12.4899 17.7157 13.2114 17.7157H19.9466C20.668 17.7157 21.255 18.3027 21.255 19.0242ZM8.61509 35.0051C8.61509 35.4889 8.22141 35.8826 7.73752 35.8826C7.25363 35.8826 6.85995 35.4889 6.85995 35.0051V33.0119H8.61509V35.0051ZM41.8728 35.0051C41.8728 35.4889 41.4791 35.8826 40.9952 35.8826C40.5113 35.8826 40.1177 35.4889 40.1177 35.0051V33.0119H41.8728V35.0051ZM44.5322 30.3351H4.20056V28.0245C4.20056 25.4892 6.26318 23.4266 8.79846 23.4266H39.9343C42.4696 23.4266 44.5322 25.4891 44.5322 28.0245V30.3351Z" fill="#FBF6ED"/>
</svg>
