<svg width="60" height="60" viewBox="0 0 60 60" fill="none" xmlns="http://www.w3.org/2000/svg">
<path d="M29.7322 19.9609C31.6818 19.9609 33.2622 18.3805 33.2622 16.4309C33.2622 14.4813 31.6818 12.9009 29.7322 12.9009C27.7826 12.9009 26.2021 14.4813 26.2021 16.4309C26.2021 18.3805 27.7826 19.9609 29.7322 19.9609Z" fill="#F2C452"/>
<path d="M27.1929 25.072L28.5161 30.4528C28.9989 30.3527 29.4953 30.3002 30.0001 30.3002C31.9312 30.3002 33.7453 31.0507 35.1082 32.4137C35.3507 32.6561 35.66 32.7843 36.0029 32.7843C36.3458 32.7843 36.6552 32.6561 36.8977 32.4136C37.255 32.0562 37.6441 31.7422 38.0574 31.4716L35.7964 22.2779L42.742 12.8486C43.2999 12.0912 43.1381 11.0249 42.3808 10.467C41.6235 9.90918 40.5572 10.0708 39.9992 10.8282L32.9787 20.3593C32.879 20.3792 28.6963 21.396 28.4506 21.4912L19.8445 12.7301C19.1855 12.0592 18.1072 12.0495 17.4359 12.7086C16.7649 13.3678 16.7552 14.4463 17.4145 15.1173L27.1929 25.072Z" fill="#F2C452"/>
<path d="M16.046 35.5734C16.5664 35.0531 17.2583 34.7665 17.9942 34.7665C18.7302 34.7665 19.4221 35.0532 19.9424 35.5734C22.1783 37.8094 25.8163 37.8092 28.0519 35.5734C28.5723 35.0531 29.2642 34.7665 30 34.7665C30.736 34.7665 31.4279 35.0532 31.9483 35.5734C33.0313 36.6565 34.4713 37.253 36.003 37.253C37.5347 37.253 38.9748 36.6565 40.0578 35.5734C40.5781 35.0531 41.27 34.7665 42.006 34.7665C42.7419 34.7665 43.4338 35.0532 43.9542 35.5734C46.1898 37.8092 49.8278 37.8094 52.0636 35.5734C52.6454 34.9917 52.6454 34.0486 52.0636 33.4669C51.4819 32.8851 50.5387 32.8851 49.957 33.4669C49.4367 33.9872 48.7448 34.2738 48.0089 34.2738C47.2729 34.2738 46.581 33.9871 46.0606 33.4669C43.8248 31.2309 40.1868 31.2312 37.9512 33.4669C37.4308 33.9872 36.7389 34.2738 36.003 34.2738C35.2671 34.2738 34.5753 33.9872 34.0549 33.4669C32.9718 32.3838 31.5317 31.7874 30 31.7874C28.4685 31.7874 27.0284 32.3839 25.9453 33.4669C24.871 34.541 23.1233 34.541 22.049 33.4669C19.8134 31.2311 16.1754 31.2309 13.9396 33.4669C13.4192 33.9872 12.7273 34.2738 11.9913 34.2738C11.2554 34.2738 10.5635 33.9871 10.0432 33.4669C9.46148 32.8851 8.51825 32.8851 7.93657 33.4669C7.3548 34.0486 7.3548 34.9917 7.93657 35.5734C10.1723 37.8094 13.8103 37.8092 16.046 35.5734Z" fill="#F2C452"/>
<path d="M49.9568 39.7728C49.4364 40.2932 48.7445 40.5797 48.0086 40.5797C47.2727 40.5797 46.5808 40.2931 46.0604 39.7728C43.8246 37.5368 40.1866 37.5371 37.9509 39.7728C37.4305 40.2932 36.7387 40.5797 36.0028 40.5797C35.2669 40.5797 34.575 40.2932 34.0546 39.7728C32.9715 38.6897 31.5315 38.0933 29.9998 38.0933C28.4682 38.0933 27.0282 38.6898 25.9451 39.7728C24.8707 40.8469 23.123 40.8469 22.0488 39.7728C19.8131 37.537 16.1752 37.5368 13.9393 39.7728C13.4189 40.2932 12.727 40.5797 11.9911 40.5797C11.2552 40.5797 10.5633 40.2931 10.0429 39.7728C9.46124 39.191 8.518 39.191 7.93633 39.7728C7.35456 40.3545 7.35456 41.2976 7.93633 41.8794C10.1722 44.1153 13.8101 44.1151 16.0458 41.8794C16.5662 41.3591 17.2581 41.0725 17.9939 41.0725C18.7299 41.0725 19.4218 41.3591 19.9422 41.8794C22.178 44.1153 25.816 44.1151 28.0517 41.8794C28.572 41.3591 29.2639 41.0725 29.9998 41.0725C30.7358 41.0725 31.4277 41.3591 31.948 41.8794C33.0311 42.9625 34.4711 43.5589 36.0028 43.5589C37.5345 43.5589 38.9745 42.9624 40.0575 41.8794C40.5779 41.3591 41.2698 41.0725 42.0058 41.0725C42.7416 41.0725 43.4335 41.3591 43.9539 41.8794C46.1896 44.1151 49.8275 44.1153 52.0634 41.8794C52.6452 41.2977 52.6452 40.3545 52.0634 39.7728C51.4817 39.191 50.5385 39.191 49.9568 39.7728Z" fill="#F2C452"/>
<path d="M49.9568 46.0787C49.4364 46.599 48.7445 46.8856 48.0086 46.8856C47.2727 46.8856 46.5808 46.599 46.0604 46.0787C43.8246 43.8427 40.1866 43.8429 37.9509 46.0787C37.4305 46.5991 36.7387 46.8856 36.0028 46.8856C35.2669 46.8856 34.575 46.5991 34.0546 46.0787C32.9715 44.9956 31.5315 44.3992 29.9998 44.3992C28.4682 44.3992 27.0282 44.9957 25.9451 46.0787C24.8707 47.1528 23.123 47.1528 22.0488 46.0787C19.8131 43.8428 16.1752 43.8427 13.9393 46.0787C13.4189 46.599 12.727 46.8856 11.9911 46.8856C11.2552 46.8856 10.5633 46.599 10.0429 46.0787C9.46124 45.4969 8.518 45.4969 7.93633 46.0787C7.35456 46.6604 7.35456 47.6035 7.93633 48.1853C10.1722 50.4212 13.8101 50.4211 16.0458 48.1853C16.5662 47.6649 17.2581 47.3784 17.9939 47.3784C18.7299 47.3784 19.4218 47.665 19.9422 48.1853C22.178 50.4212 25.816 50.4211 28.0517 48.1853C28.572 47.6649 29.2639 47.3784 29.9998 47.3784C30.7358 47.3784 31.4277 47.665 31.948 48.1853C33.0311 49.2684 34.4711 49.8648 36.0028 49.8648C37.5345 49.8648 38.9745 49.2683 40.0575 48.1853C40.5779 47.6649 41.2698 47.3784 42.0058 47.3784C42.7416 47.3784 43.4335 47.665 43.9539 48.1853C46.1896 50.4211 49.8275 50.4212 52.0634 48.1853C52.6452 47.6035 52.6452 46.6605 52.0634 46.0787C51.4817 45.4969 50.5385 45.4969 49.9568 46.0787Z" fill="#F2C452"/>
</svg>
