<svg width="60" height="60" viewBox="0 0 60 60" fill="none" xmlns="http://www.w3.org/2000/svg">
<g clip-path="url(#clip0_358_378)">
<path d="M15.2468 25.3564V27.58H17.9285V34.6435H20.479V27.58H23.1474V25.3564H15.2468Z" fill="#F2C452"/>
<path d="M28.0497 25.3564H25.7213L22.4905 34.6435H25.0934L25.6429 32.8253H28.1151L28.6775 34.6435H31.2673L28.0497 25.3564ZM26.0221 31.1249L26.8855 28.2472L27.7095 31.1249H26.0221Z" fill="#F2C452"/>
<path d="M40.7637 25.3564H38.0168L36.3294 28.2864L34.6419 25.3564H31.8821L34.9821 30.0654L31.9867 34.6435H34.7467L36.3294 31.8442L37.9121 34.6435H40.659L37.6636 30.0654L40.7637 25.3564Z" fill="#F2C452"/>
<path d="M44.7531 25.3564H42.2026V34.6435H44.7531V25.3564Z" fill="#F2C452"/>
<path d="M50.0973 19.188H9.90267L7.5 40.8121H52.5L50.0973 19.188ZM10.5875 38.0486L12.3761 21.9514H47.6238L49.4124 38.0486H10.5875Z" fill="#F2C452"/>
</g>
<defs>
<clipPath id="clip0_358_378">
<rect width="45" height="45" fill="white" transform="translate(7.5 7.5)"/>
</clipPath>
</defs>
</svg>
