<svg width="60" height="60" viewBox="0 0 60 60" fill="none" xmlns="http://www.w3.org/2000/svg">
<path d="M16.5031 28.8931C15.6692 29.727 15.6692 31.084 16.5031 31.9261C17.3369 32.7599 18.694 32.7599 19.536 31.9261C25.3075 26.1545 34.7005 26.1545 40.472 31.9261C40.8889 32.343 41.4366 32.5555 41.9844 32.5555C42.5321 32.5555 43.0798 32.343 43.4967 31.9261C44.3306 31.0922 44.3306 29.7352 43.4967 28.8931C36.0575 21.4458 23.9423 21.4458 16.5031 28.8931Z" fill="#F2C452"/>
<path d="M22.2909 34.6811C21.4571 35.5149 21.4571 36.872 22.2909 37.714C23.1248 38.5479 24.4818 38.5479 25.3238 37.714C27.8989 35.1307 32.1008 35.1307 34.676 37.714C35.0929 38.1309 35.6406 38.3435 36.1883 38.3435C36.736 38.3435 37.2838 38.1309 37.7007 37.714C38.5345 36.8802 38.5345 35.5231 37.7007 34.6893C33.4579 30.4301 26.5419 30.4301 22.2909 34.6811Z" fill="#F2C452"/>
<path d="M30 45.2349C31.5757 45.2349 32.8531 43.9576 32.8531 42.3819C32.8531 40.8062 31.5757 39.5288 30 39.5288C28.4243 39.5288 27.147 40.8062 27.147 42.3819C27.147 43.9576 28.4243 45.2349 30 45.2349Z" fill="#F2C452"/>
<path d="M49.3746 23.0074C38.69 12.3309 21.31 12.3309 10.6254 23.0074C9.79154 23.8412 9.79154 25.1982 10.6254 26.0403C11.4592 26.8741 12.8163 26.8741 13.6583 26.0403C22.6671 17.0233 37.3329 17.0233 46.3499 26.0403C46.7668 26.4572 47.3145 26.6697 47.8623 26.6697C48.41 26.6697 48.9577 26.4572 49.3746 26.0403C50.2085 25.2064 50.2085 23.8494 49.3746 23.0074Z" fill="#F2C452"/>
</svg>
