<svg width="57" height="57" viewBox="0 0 57 57" fill="none" xmlns="http://www.w3.org/2000/svg">
<path fill-rule="evenodd" clip-rule="evenodd" d="M21.5341 20.0708C21.1493 19.6745 20.5253 19.6743 20.1403 20.0703C19.7553 20.4662 19.755 21.1084 20.1398 21.5046L26.8044 28.3686L19.6676 35.7136C19.2827 36.1097 19.2827 36.7518 19.6676 37.1479C20.0524 37.544 20.6764 37.544 21.0613 37.1479L28.1977 29.8035L35.3313 37.1505C35.716 37.5467 36.34 37.547 36.725 37.151C37.1101 36.7551 37.1103 36.1129 36.7256 35.7166L29.5914 28.3691L36.2584 21.5078C36.6433 21.1117 36.6433 20.4695 36.2584 20.0734C35.8735 19.6773 35.2495 19.6773 34.8647 20.0734L28.1982 26.9342L21.5341 20.0708Z" fill="#F2C452"/>
</svg>
